<svg xmlns="http://www.w3.org/2000/svg" width="350" height="350" xmlns:v="https://vecta.io/nano"><style><![CDATA[.S{font-size:21.333px}.T{fill:#913225}]]></style><text xml:space="preserve" x="270.197" y="118.324" transform="rotate(19.857)" fill="#000" class="S"><tspan x="270.197" y="118.324" class="T">ア</tspan></text><text xml:space="preserve" x="146.273" y="119.59" class="S T"><tspan x="146.273" y="119.59">カ</tspan></text><text xml:space="preserve" x="166.784" y="161.742" class="S T"><tspan x="166.784" y="161.742">サ</tspan></text><text xml:space="preserve" x="205.581" y="341.08" class="S T"><tspan x="205.581" y="341.08">サ</tspan></text><text xml:space="preserve" x="142.389" y="305.89" class="S T"><tspan x="142.389" y="305.89">タ</tspan></text><text xml:space="preserve" x="118.347" y="270.139" class="S T"><tspan x="118.347" y="270.139">ナ</tspan></text><text xml:space="preserve" x="-143.827" y="358.985" transform="rotate(309.023)" class="S T"><tspan x="-143.827" y="358.985">ハ</tspan></text><text xml:space="preserve" x="89.102" y="357.059" transform="rotate(309.023)" class="S T"><tspan x="89.102" y="357.059">ハ</tspan></text><text xml:space="preserve" x="314.959" y="273.484" class="S T"><tspan x="314.959" y="273.484">マ</tspan></text><text xml:space="preserve" x="178.578" y="229.017" class="S T"><tspan x="178.578" y="229.017">ヤ</tspan></text><text xml:space="preserve" x="70.17" y="363.18" transform="rotate(328.753)" class="S T"><tspan x="70.17" y="363.18">ラ</tspan></text><text xml:space="preserve" x="267.185" y="171.374" transform="rotate(18.203)" class="S T"><tspan x="267.185" y="171.374">ガ</tspan></text><text xml:space="preserve" x="92.056" y="130.114" class="S T"><tspan x="92.056" y="130.114">イ</tspan></text><text xml:space="preserve" x="304.26" y="318.673" class="S T"><tspan x="304.26" y="318.673">イ</tspan></text><text xml:space="preserve" x="48.471" y="359.597" transform="rotate(334.241)" class="S T"><tspan x="48.471" y="359.597">キ</tspan></text><text xml:space="preserve" x="179.62" y="119.835" class="S T"><tspan x="179.62" y="119.835">シ</tspan></text><text xml:space="preserve" x="-58.535" y="-354.568" transform="rotate(124.292)" class="S T"><tspan x="-58.535" y="-354.568">シ</tspan></text><text xml:space="preserve" x="105.307" y="230.38" class="S T"><tspan x="105.307" y="230.38">ヒ</tspan></text><text xml:space="preserve" x="261.594" y="101.106" class="S T"><tspan x="261.594" y="101.106">ミ</tspan></text><text xml:space="preserve" x="-30.137" y="269.764" transform="rotate(313.737)" class="S T"><tspan x="-30.137" y="269.764">ミ</tspan></text><text xml:space="preserve" x="265.873" y="320.451" class="S T"><tspan x="265.873" y="320.451">リ</tspan></text><text xml:space="preserve" x="280.566" y="135.747" class="S T"><tspan x="280.566" y="135.747">ウ</tspan></text><text xml:space="preserve" x="14.336" y="259.58" transform="rotate(299.15)" class="S T"><tspan x="14.336" y="259.58">ス</tspan></text><text xml:space="preserve" x="169.178" y="354.547" transform="rotate(348.768)" class="S T"><tspan x="169.178" y="354.547">ヌ</tspan></text><text xml:space="preserve" x="27.562" y="289.617" transform="rotate(334.323)" class="S T"><tspan x="27.562" y="289.617">フ</tspan></text><text xml:space="preserve" x="81.129" y="284.942" class="S T"><tspan x="81.129" y="284.942">ル</tspan></text><text xml:space="preserve" x="123.785" y="152.019" class="S T"><tspan x="123.785" y="152.019">ケ</tspan></text><text xml:space="preserve" x="270.844" y="2.246" transform="rotate(27.731)" class="S T"><tspan x="270.844" y="2.246">セ</tspan></text><text xml:space="preserve" x="-99.006" y="414.124" transform="rotate(300.883)" class="S T"><tspan x="-99.006" y="414.124">テ</tspan></text><text xml:space="preserve" x="136.076" y="390.472" transform="rotate(326.575)" class="S T"><tspan x="136.076" y="390.472">ネ</tspan></text><text xml:space="preserve" x="8.83" y="445.005" transform="rotate(326.575)" class="S T"><tspan x="8.83" y="445.005">ネ</tspan></text><text xml:space="preserve" x="192.892" y="182.327" class="S T"><tspan x="192.892" y="182.327">ヘ</tspan></text><text xml:space="preserve" x="-464.633" y="155.207" transform="rotate(245.729)" class="S T"><tspan x="-464.633" y="155.207">ヘ</tspan></text><text xml:space="preserve" x="232.765" y="174.83" class="S T"><tspan x="232.765" y="174.83">メ</tspan></text><text xml:space="preserve" x="228.972" y="227.76" transform="rotate(334.4)" class="S T"><tspan x="228.972" y="227.76">レ</tspan></text><text xml:space="preserve" x="243.398" y="191.065" transform="rotate(18.825)" class="S T"><tspan x="243.398" y="191.065">オ</tspan></text><text xml:space="preserve" x="250.146" y="209.591" class="S T"><tspan x="250.146" y="209.591">ソ</tspan></text><text xml:space="preserve" x="270.489" y="175.163" class="S T"><tspan x="270.489" y="175.163">ホ</tspan></text><text xml:space="preserve" x="123.028" y="193.574" class="S T"><tspan x="123.028" y="193.574">モ</tspan></text><text xml:space="preserve" x="285.15" y="252.629" class="S T"><tspan x="285.15" y="252.629">ロ</tspan></text><text xml:space="preserve" x="204.479" y="148.929" class="S T"><tspan x="204.479" y="148.929">ヲ</tspan></text><text xml:space="preserve" x="36.268" y="157.918" transform="rotate(16.029)" fill="#000" class="S"><tspan x="36.268" y="157.918" class="T">ア</tspan></text><text xml:space="preserve" x="64.621" y="218.251" transform="rotate(356.172)" class="S T"><tspan x="64.621" y="218.251">マ</tspan></text><text xml:space="preserve" x="-101.23" y="218.821" transform="rotate(324.925)" class="S T"><tspan x="-101.23" y="218.821">ラ</tspan></text><text xml:space="preserve" x="41.07" y="199.939" transform="rotate(14.375)" class="S T"><tspan x="41.07" y="199.939">ガ</tspan></text><text xml:space="preserve" x="-129.139" y="240.64" transform="rotate(330.413)" class="S T"><tspan x="-129.139" y="240.64">キ</tspan></text><text xml:space="preserve" x="10.887" y="41.74" transform="rotate(356.172)" class="S T"><tspan x="10.887" y="41.74">ミ</tspan></text><text xml:space="preserve" x="-22.124" y="300.773" transform="rotate(356.172)" class="S T"><tspan x="-22.124" y="300.773">リ</tspan></text><text xml:space="preserve" x="47.096" y="93.527" transform="rotate(356.172)" class="S T"><tspan x="47.096" y="93.527">ウ</tspan></text><text xml:space="preserve" x="-66.21" y="36.864" transform="rotate(295.322)" class="S T"><tspan x="-66.21" y="36.864">ス</tspan></text><text xml:space="preserve" x="-32.056" y="284.743" transform="rotate(344.94)" class="S T"><tspan x="-32.056" y="284.743">ヌ</tspan></text><text xml:space="preserve" x="44.546" y="73.515" transform="rotate(23.903)" class="S T"><tspan x="44.546" y="73.515">セ</tspan></text><text xml:space="preserve" x="-183.774" y="196.713" transform="rotate(297.055)" class="S T"><tspan x="-183.774" y="196.713">テ</tspan></text><text xml:space="preserve" x="259.84" y="-82.973" transform="rotate(28.383)" class="S T"><tspan x="259.84" y="-82.973">タ</tspan></text><text xml:space="preserve" x="201.35" y="271.394" transform="rotate(28.383)" class="S T"><tspan x="201.35" y="271.394">ヒ</tspan></text><text xml:space="preserve" x="161.089" y="328.383" transform="rotate(2.783)" class="S T"><tspan x="161.089" y="328.383">レ</tspan></text><text xml:space="preserve" x="236.379" y="-228.871" transform="rotate(47.209)" class="S T"><tspan x="236.379" y="-228.871">オ</tspan></text><text xml:space="preserve" x="236.138" y="224.592" transform="rotate(28.383)" class="S T"><tspan x="236.138" y="224.592">モ</tspan></text><text xml:space="preserve" x="183.926" y="257.356" transform="rotate(24.555)" class="S T"><tspan x="183.926" y="257.356">マ</tspan></text><text xml:space="preserve" x="-158.355" y="293.617" transform="rotate(325.438)" class="S T"><tspan x="-158.355" y="293.617">テ</tspan></text><text xml:space="preserve" x="-42.571" y="194.436" transform="rotate(322.747)" class="S T"><tspan x="-42.571" y="194.436">ネ</tspan></text><text xml:space="preserve" x="-0.704" y="132.61" transform="rotate(356.172)" class="S T"><tspan x="-0.704" y="132.61">メ</tspan></text><text xml:space="preserve" x="309.405" y="-35.392" transform="rotate(97.089)" class="S T"><tspan x="309.405" y="-35.392">メ</tspan></text><text xml:space="preserve" x="16.677" y="167.371" transform="rotate(356.172)" class="S T"><tspan x="16.677" y="167.371">ソ</tspan></text><text xml:space="preserve" x="37.019" y="132.943" transform="rotate(356.172)" class="S T"><tspan x="37.019" y="132.943">ホ</tspan></text><text xml:space="preserve" x="29.51" y="198.36" transform="rotate(356.172)" class="S T"><tspan x="29.51" y="198.36">ロ</tspan></text><text xml:space="preserve" x="83.725" y="85.33" class="S T"><tspan x="83.725" y="85.33">タ</tspan></text><text xml:space="preserve" x="63.771" y="53.669" class="S T"><tspan x="63.771" y="53.669">ナ</tspan></text><text xml:space="preserve" x="-5.376" y="173.023" transform="rotate(309.023)" class="S T"><tspan x="-5.376" y="173.023">ハ</tspan></text><text xml:space="preserve" x="239.426" y="39.911" class="S T"><tspan x="239.426" y="39.911">マ</tspan></text><text xml:space="preserve" x="119.914" y="8.457" class="S T"><tspan x="119.914" y="8.457">ヤ</tspan></text><text xml:space="preserve" x="140.727" y="157.028" transform="rotate(328.753)" class="S T"><tspan x="140.727" y="157.028">ラ</tspan></text><text xml:space="preserve" x="142.556" y="-19.822" transform="rotate(18.203)" class="S T"><tspan x="142.556" y="-19.822">ガ</tspan></text><text xml:space="preserve" x="111.123" y="150.086" transform="rotate(334.241)" class="S T"><tspan x="111.123" y="150.086">キ</tspan></text><text xml:space="preserve" x="73.342" y="87.32" transform="rotate(334.323)" class="S T"><tspan x="73.342" y="87.32">フ</tspan></text><text xml:space="preserve" x="56.527" y="253.867" transform="rotate(300.883)" class="S T"><tspan x="56.527" y="253.867">テ</tspan></text><text xml:space="preserve" x="71.858" y="49.763" transform="rotate(334.4)" class="S T"><tspan x="71.858" y="49.763">レ</tspan></text><text xml:space="preserve" x="135.102" y="12.963" transform="rotate(18.825)" class="S T"><tspan x="135.102" y="12.963">オ</tspan></text><text xml:space="preserve" x="336.43" y="108.403" transform="rotate(18.825)" class="S T"><tspan x="336.43" y="108.403">オ</tspan></text><text xml:space="preserve" x="204.315" y="20.02" class="S T"><tspan x="204.315" y="20.02">ロ</tspan></text><text xml:space="preserve" x="47.581" y="-1.366" transform="rotate(25.799)" class="S T"><tspan x="47.581" y="-1.366">テ</tspan></text><text xml:space="preserve" x="-22.508" y="111.243" transform="rotate(356.172)" class="S T"><tspan x="-22.508" y="111.243">ヲ</tspan></text><text xml:space="preserve" x="119.914" y="358.457" class="S T"><tspan x="119.914" y="358.457">ヤ</tspan></text><text xml:space="preserve" x="251.892" y="312.662" transform="rotate(18.203)" class="S T"><tspan x="251.892" y="312.662">ガ</tspan></text><text xml:space="preserve" x="-79.373" y="365.404" transform="rotate(334.4)" class="S T"><tspan x="-79.373" y="365.404">レ</tspan></text><text xml:space="preserve" x="204.315" y="370.02" class="S T"><tspan x="204.315" y="370.02">ロ</tspan></text><text xml:space="preserve" x="201.624" y="152.891" transform="rotate(326.575)" class="S T"><tspan x="201.624" y="152.891">ネ</tspan></text><text xml:space="preserve" x="-145.569" y="299.075" transform="rotate(245.729)" class="S T"><tspan x="-145.569" y="299.075">ヘ</tspan></text><text xml:space="preserve" x="83.485" y="353.236" transform="rotate(295.322)" class="S T"><tspan x="83.485" y="353.236">ス</tspan></text><text xml:space="preserve" x="326.711" y="134.612" transform="rotate(356.172)" class="S T"><tspan x="326.711" y="134.612">ヲ</tspan></text><text xml:space="preserve" x="-131.268" y="85.144" transform="rotate(309.023)" class="S T"><tspan x="-131.268" y="85.144">ハ</tspan></text><text xml:space="preserve" x="-156.038" y="197.679" transform="rotate(326.575)" class="S T"><tspan x="-156.038" y="197.679">ネ</tspan></text><text xml:space="preserve" x="372.662" y="61.277" transform="rotate(16.029)" fill="#000" class="S"><tspan x="372.662" y="61.277" class="T">ア</tspan></text><text xml:space="preserve" x="-1.387" y="27.97" transform="rotate(47.209)" class="S T"><tspan x="-1.387" y="27.97">オ</tspan></text><text xml:space="preserve" x="-2.449" y="-312.299" transform="rotate(97.089)" class="S T"><tspan x="-2.449" y="-312.299">メ</tspan></text><text xml:space="preserve" x="266.213" y="-382.716" transform="rotate(97.089)" class="S T"><tspan x="266.213" y="-382.716">メ</tspan></text><text xml:space="preserve" x="380.112" y="113.046" transform="rotate(14.375)" class="S T"><tspan x="380.112" y="113.046">ガ</tspan></text></svg>