<svg xmlns="http://www.w3.org/2000/svg" xmlns:xlink="http://www.w3.org/1999/xlink" width="350" height="350" xmlns:v="https://vecta.io/nano"><style><![CDATA[.B{stroke-opacity:1}.C{stroke-linecap:round}.D{stroke-linejoin:round}.E{stroke-miterlimit:10}.F{stroke-dasharray:none}.G{fill:none}.H{stroke:#fff}.I{stroke-width:48.924}]]></style><defs><pattern xlink:href="#B" id="A" patternTransform="matrix(2.1920179,0,0,2.1920179,4601.0139,3126.15)"/><pattern xlink:href="#Au" id="B" patternTransform="matrix(0.87621375,0,0,0.87621375,6747.8599,4798.4102)"/><clipPath id="C"><path d="M0 0h12000v12000H0z"/></clipPath><clipPath id="D"><path d="M15768.3-2482.99h-3769V.25h3769z"/></clipPath><clipPath id="E"><path d="M8162 0v1h2168V0z"/></clipPath><clipPath id="F"><path d="M0 0h12000v12000H0z"/></clipPath><clipPath id="G"><path d="M3768.78-2482.99H-.25V.25h3769.03z"/></clipPath><clipPath id="H"><path d="M0 0h12000v12000H0z"/></clipPath><clipPath id="I"><path d="M8162.61-1034.31H3163.52V.25h4999.09z"/></clipPath><clipPath id="J"><path d="M0 0h12000v12000H0z"/></clipPath><clipPath id="K"><path d="M11999.7-2040.66H9412.89V.25h2586.81z"/></clipPath><clipPath id="L"><path d="M9552.9 620.305h2446.8V-2282.99H9552.9z"/></clipPath><clipPath id="M"><path d="M0 0h12000v12000H0z"/></clipPath><clipPath id="N"><path d="M.25-2040.66h-2586.86V.25H.25z"/></clipPath><clipPath id="O"><path d="M-2446.6 620.305H.25V-2282.99H-2446.6z"/></clipPath><clipPath id="P"><path d="M0 0h12000v12000H0z"/></clipPath><clipPath id="Q"><path d="M13341.1 6885.96h-1341.8V8550.3h1341.8z"/></clipPath><clipPath id="R"><path d="M0 0h12000v12000H0z"/></clipPath><clipPath id="S"><path d="M15768.3 9516.51h-3769v2483.19h3769z"/></clipPath><clipPath id="T"><path d="M0 0h12000v12000H0z"/></clipPath><clipPath id="U"><path d="M16397.7 367.223h-4398.4V4351.29h4398.4z"/></clipPath><clipPath id="V"><path d="M0 0h12000v12000H0z"/></clipPath><clipPath id="W"><path d="M14368.4 4789.49h-2369.1v2537.07h2369.1z"/></clipPath><clipPath id="X"><path d="M0 0h12000v12000H0z"/></clipPath><clipPath id="Y"><path d="M23999.3-.25h-12000v1005.76h12000z"/></clipPath><clipPath id="Z"><path d="M24488.4-.25H11015.9v1701.22h13472.5z"/></clipPath><clipPath id="a"><path d="M0 0h12000v12000H0z"/></clipPath><clipPath id="b"><path d="M13164 8681.95h-1164.7v1449.35H13164z"/></clipPath><clipPath id="c"><path d="M0 0h12000v12000H0z"/></clipPath><clipPath id="d"><path d="M11999.7 552.254H9803.86V4250.29h2195.84z"/></clipPath><clipPath id="e"><path d="M0 0v12000h12000V0z"/></clipPath><clipPath id="f"><path d="M0 0h12000v12000H0z"/></clipPath><clipPath id="g"><path d="M8236.46-.25H2998.71v2651.89h5237.75z"/></clipPath><clipPath id="h"><path d="M0 0h12000v12000H0z"/></clipPath><clipPath id="i"><path d="M1341.61 6885.96H-.25V8550.3h1341.86z"/></clipPath><clipPath id="j"><path d="M0 0h12000v12000H0z"/></clipPath><clipPath id="k"><path d="M10232.1 4910.45h1767.6v2080.97h-1767.6z"/></clipPath><clipPath id="l"><path d="M8162 11402v598h2168v-598z"/></clipPath><clipPath id="m"><path d="M0 0h12000v12000H0z"/></clipPath><clipPath id="n"><path d="M3768.78 9516.51H-.25v2483.19h3769.03z"/></clipPath><clipPath id="o"><path d="M0 0h12000v12000H0z"/></clipPath><clipPath id="p"><path d="M4398.15 367.223H-.25V4351.29h4398.4z"/></clipPath><clipPath id="q"><path d="M0 0h12000v12000H0z"/></clipPath><clipPath id="r"><path d="M8162.61 10965.2H3163.52v1034.5h4999.09z"/></clipPath><clipPath id="s"><path d="M0 0h12000v12000H0z"/></clipPath><clipPath id="t"><path d="M2368.86 4789.49H-.25v2537.07h2369.11z"/></clipPath><clipPath id="u"><path d="M0 0h12000v12000H0z"/></clipPath><clipPath id="v"><path d="M11999.7 6363.57H7012.22V10085h4987.48z"/></clipPath><clipPath id="w"><path d="M0 0h12000v12000H0z"/></clipPath><clipPath id="x"><path d="M11999.7 9958.84H9412.89v2040.86h2586.81z"/></clipPath><clipPath id="y"><path d="M9552.9 12619.8h2446.8V9716.51H9552.9z"/></clipPath><clipPath id="z"><path d="M0 0h12000v12000H0z"/></clipPath><clipPath id="AA"><path d="M11999.7-.25H-.25v1005.76H11999.7z"/></clipPath><clipPath id="AB"><path d="M12488.9-.25H-983.621v1701.22H12488.9z"/></clipPath><clipPath id="AC"><path d="M0 0h12000v12000H0z"/></clipPath><clipPath id="AD"><path d="M11999.7-.25H-.25v1005.76H11999.7z"/></clipPath><clipPath id="AE"><path d="M12488.9-.25H-983.621v1701.22H12488.9z"/></clipPath><clipPath id="AF"><path d="M9552.9 619.805h2446.8V-2283.49H9552.9z"/></clipPath><clipPath id="AG"><path d="M0 0h12000v12000H0z"/></clipPath><clipPath id="AH"><path d="M11352.4-.25H7903.17v2359.51h3449.23z"/></clipPath><clipPath id="AI"><path d="M0 0h12000v12000H0z"/></clipPath><clipPath id="AJ"><path d="M0 0h12000v12000H0z"/></clipPath><clipPath id="AK"><path d="M1164.55 8681.95H-.25v1449.35h1164.8z"/></clipPath><clipPath id="AL"><path d="M0 0h12000v12000H0z"/></clipPath><clipPath id="AM"><path d="M11221.2 8493.6h778.5v1637.7h-778.5z"/></clipPath><clipPath id="AN"><path d="M0 0h12000v12000H0z"/></clipPath><clipPath id="AO"><path d="M.25 552.254h-2195.89V4250.29H.25z"/></clipPath><clipPath id="AP"><path d="M0 0h12000v12000H0z"/></clipPath><clipPath id="AQ"><path d="M-1767.37 4910.45H.25v2080.97h-1767.62z"/></clipPath><clipPath id="AR"><path d="M0 0h12000v12000H0z"/></clipPath><clipPath id="AS"><path d="M.25 6363.57h-4987.53V10085H.25z"/></clipPath><clipPath id="AT"><path d="M0 0h12000v12000H0z"/></clipPath><clipPath id="AU"><path d="M.25 9958.84h-2586.86v2040.86H.25z"/></clipPath><clipPath id="AV"><path d="M-2446.6 12619.8H.25V9716.51H-2446.6z"/></clipPath><clipPath id="AW"><path d="M0 0h12000v12000H0z"/></clipPath><clipPath id="AX"><path d="M.25-.25H-11999.7v1005.76H.25z"/></clipPath><clipPath id="AY"><path d="M489.434-.25H-12983.1v1701.22H489.434z"/></clipPath><clipPath id="AZ"><path d="M-2446.6 619.805H.25V-2283.49H-2446.6z"/></clipPath><clipPath id="Aa"><path d="M0 0h12000v12000H0z"/></clipPath><clipPath id="Ab"><path d="M-778.25 8493.6H.25v1637.7h-778.5z"/></clipPath><clipPath id="Ac"><path d="M0 0h12000v12000H0z"/></clipPath><clipPath id="Ad"><path d="M23999.3 11999.2h-12000V13005h12000z"/></clipPath><clipPath id="Ae"><path d="M24488.4 11999.2H11015.9v1701.3h13472.5z"/></clipPath><clipPath id="Af"><path d="M0 0h12000v12000H0z"/></clipPath><clipPath id="Ag"><path d="M8236.46 11999.2H2998.71v2651.9h5237.75z"/></clipPath><clipPath id="Ah"><path d="M0 0h12000v12000H0z"/></clipPath><clipPath id="Ai"><path d="M11999.7 11999.2H-.25V13005H11999.7z"/></clipPath><clipPath id="Aj"><path d="M12488.9 11999.2H-983.621v1701.3H12488.9z"/></clipPath><clipPath id="Ak"><path d="M0 0h12000v12000H0z"/></clipPath><clipPath id="Al"><path d="M11999.7 11999.2H-.25V13005H11999.7z"/></clipPath><clipPath id="Am"><path d="M12488.9 11999.2H-983.621v1701.3H12488.9z"/></clipPath><clipPath id="An"><path d="M9552.9 12619.3h2446.8V9716.01H9552.9z"/></clipPath><clipPath id="Ao"><path d="M0 0h12000v12000H0z"/></clipPath><clipPath id="Ap"><path d="M11352.4 11999.2H7903.17v2359.6h3449.23z"/></clipPath><clipPath id="Aq"><path d="M0 0h12000v12000H0z"/></clipPath><clipPath id="Ar"><path d="M.25 11999.2H-11999.7V13005H.25z"/></clipPath><clipPath id="As"><path d="M489.434 11999.2H-12983.1v1701.3H489.434z"/></clipPath><clipPath id="At"><path d="M-2446.6 12619.3H.25V9716.01H-2446.6z"/></clipPath><pattern id="Au" height="1199.95" width="1199.95" patternUnits="userSpaceOnUse" patternTransform="matrix(4,0,0,4,-2390,2374)"><g transform="scale(.1)"><g clip-path="url(#C)"><g clip-path="url(#D)"><path d="M12193-371.266c-73.6 78.895 2.9 180.496 78.3 219.707 352.6 183.586 565.6-321.718 333.6-564.66-69.9-73.082-166.5-115.996-265.2-137.808-195.2-43.149-411.4-4.793-567.6 120.156-156.1 124.953-241.9 339.324-195.4 533.816 28.9 120.813 103.3 225.582 184.1 319.891 101.8 118.742 217.5 200.894 370.4 240.449 303.5 78.504 644.9-10.976 870.8-228.246 53.7-51.598 102-111.379 125.8-181.918 31.4-92.891 17.3-194.199 3-291.172l16.7 103.875c75.7 470.293 981 188.387 710.2-234.07-13.8-21.426-38.2-32.949-55-51.082-8.1-8.789-33.1-25.82-27.5-39.508 10.8-1.551 37.3 10.82 48.9 14.883 10.8 3.797 20.1 9.879 31.2 13.363 188.7 59.168 309-78.031 401.9-220.41 31.4-48.258 65.5-96.172 111.4-130.926 138.7-104.887 345.7-10.855 458.3 92.223 7.3 6.726 11.7 16.203 18.6 23.383 65.3 67.816 147.6 142.984 241.4 175.422 87.3 30.207 170-1.793 249.7-37.918 39.7-17.993 78.7-38.2 120.5-50.895 42.4-12.852 92.2-5.84 130.2-17.937-9.9-19.926-29.1-25.684-50.8-28.235-92.7-10.894-202.5 34.121-290.6-2.199-74.6-30.77-128.7-82.316-150.6-161.469-21.6-78.082-17.9-195.299-113.1-223.669-14.9-4.45-34.9-1.08-50.4-1.06-46.5.05-104.1 15.71-120.1-45.89-15.2-58.73 25.9-101.24-14.3-156.1-76.8-104.66-251.5-149.74-373.1-117.48-173 45.94-190.7 314.79 15.3 319.47 42.4.96 126.4-28.09 114.2-158.55" class="B C D E F G H I"/></g></g><g clip-path="url(#E)" class="C D E F G H I"><path d="M8975.41 1055.56c-78.79-199.306-16.43-467.04 150.01-618.697 202.6-184.601 520.57-166.422 746.57-37.543 109.77 62.598 208.81 143.11 326.01 192.356 131.9 55.39 275.1 66.914 406.1 5.961 143.5-66.758 259.2-199.938 421.9-223.266 63.9-9.16 133.7 4.375 180.8 48.414v-.113c-1.4-84.957-113.1-178.922-183.4-209.961-163.6-72.203-299 22.469-453.1 67.363-146.8 42.735-309.9 21.711-445.9-45.761-175.37-86.95-320.89-224.512-500.99-303.594C9056.88-318.027 8226.9 87.141 8165.4 733.324c-16.73 175.903 40.61 410.296 200.36 470.996 101.66 38.63 264.82 20.92 315.63-90.36 53.83-117.886-59.17-247.468-176.44-257.308-65.76-5.519-142.1 49.203-127.44 129.379m10.27-86.468S8384.11-71.012 9398.8 6.195" class="B"/></g><g clip-path="url(#F)"><g clip-path="url(#G)"><path d="M193.5-371.266c-73.645 78.895 2.941 180.496 78.258 219.707 352.629 183.586 565.676-321.718 333.597-564.66-69.812-73.082-166.421-115.996-265.113-137.808-195.258-43.149-411.476-4.793-567.605 120.156s-241.895 339.324-195.41 533.816c28.875 120.813 103.238 225.582 184.078 319.891 101.781 118.742 217.484 200.894 370.39 240.449 303.485 78.504 644.891-10.976 870.855-228.246 53.66-51.598 101.99-111.379 125.78-181.918 31.33-92.891 17.3-194.199 2.93-291.172l16.73 103.875c75.74 470.293 981.03 188.387 710.17-234.07-13.73-21.426-38.14-32.949-54.91-51.082-8.13-8.789-33.17-25.82-27.58-39.508 10.81-1.551 37.34 10.82 48.92 14.883 10.81 3.797 20.07 9.879 31.19 13.363 188.68 59.168 309.02-78.031 401.89-220.41 31.48-48.258 65.53-96.172 111.48-130.926 138.7-104.887 345.66-10.855 458.24 92.223 7.35 6.726 11.68 16.203 18.6 23.383 65.32 67.816 147.6 142.984 241.39 175.422 87.34 30.207 170.03-1.793 249.7-37.918 39.68-17.993 78.71-38.2 120.55-50.895 42.36-12.852 92.18-5.84 130.13-17.937-9.86-19.926-29.03-25.684-50.73-28.235-92.77-10.894-202.57 34.121-290.62-2.199-74.59-30.77-128.74-82.316-150.62-161.469-21.6-78.082-17.86-195.299-113.07-223.669-14.92-4.45-34.97-1.08-50.4-1.06-46.53.05-104.09 15.71-120.08-45.89-15.23-58.73 25.88-101.24-14.34-156.1-76.75-104.66-251.49-149.74-373.05-117.48-173.09 45.94-190.77 314.79 15.21 319.47 42.48.96 126.4-28.09 114.26-158.55" class="B C D E F G H I"/></g></g><g clip-path="url(#H)"><g clip-path="url(#I)" class="C D E F G H I"><path d="M6271.33 535.504c19.93-49.402-44.47-100.422-85.16-114.754-123.5-43.488-249.17 109.695-158.11 215.078 119.7 138.524 386.74 118.617 513.55 4.969 104.07-93.277 138.47-280.711 40.62-390.141-68.95-77.109-173.9-75.687-268.96-66.265-90.18 8.941-184.82 10.476-267.06-33.395-73.08-38.988-126.83-102.269-213.68-113.219-86.29-10.883-195.58 13.098-252.14 83.95-37.75 47.296-48.37 111.75-41.82 171.91 9.22 84.605 76.4 177.054 53.62 262.875-34.36 129.433-226.62 124.176-293.01 236.519-27.72 46.899-33.43 105.539-18.33 157.883 37.59 130.316 175.16 179.726 292.21 214.276 62.84 18.54 122.65 30.49 177.94 66.09 95.25 61.33 190.95 139.39 305.1 169.41 131.04 34.46 260.73-18.47 384.49-58.35 119.36-38.45 248.66-20.5 366.02-62.84 140.24-50.59 251.48-154.37 303.68-294.57 22.83-61.309 22.84-128.36 50.87-187.602 32.03-67.73 83.37-129.008 148.15-167.699 142.62-85.188 263.75-218.43 325.51-376.133 74.06-189.133 42.45-415.273-65.76-587.117-80.3-127.531-211.16-211.254-356.63-245.285-84.34-19.727-180.89-27.293-266.8-15.828-101.49 13.546-195.46 48.507-299.68 49.222-93.02.637-192.59-18.765-269.73-73.324-96.78-68.437-166.18-168.699-273.48-222.91-132.41-66.895-268.91-65.922-402.87-4.828-137.25 62.59-245.84 166.34-407.29 155.855-157.07-10.195-282.99-125.047-434.83-156.285-235.23-48.394-529.38 58.652-628.57 290.391-60.46 141.254-101.47 328.011-255.32 396.535-118.94 52.976-258.7 37.406-373.16 102.285-112.35 63.68-181.97 193.574-176.84 322.078.58 14.469 1.85 29.836-5.04 42.57m1861.43 714.135c-53.74 98.56-188.56 135.98-293.37 127.83-94.14-7.33-197.66-61.03-255.66-135.87-30.04-38.751-48.76-94.137-37.44-145.427 11.92-54 70.53-89.597 68.5-147.46-2.44-69.254-96.39-87.489-146.78-107.606-72.65-29.004-129.87-77.047-144.36-158.594-11.62-65.476 12.77-140.578 64.16-183.652 74.57-62.484 179.45-41.063 267.64-32.078 120.53 12.277 249.28-7.637 361.65-59.434 103.04-47.496 218.11-118.222 273.08-221.445 60.11-112.875 6.77-258.262-120.38-294.699-125.5-35.965-216.47 105.625-339.66 100.578-150.21-6.153-113.59-243.321-262.37-261.934-34.5-4.316-69.61 4.039-101.48 17.949-105.25 45.938-167.64 142.075-216.84 241.266-51.02 102.867-96.61 221.637-199.84 283.59-133.02 79.836-300.56 48.617-445.68 32.082-134.76-15.359-274.68 58.562-316.19 192.586" class="B"/><path d="M4887.97 224.098c49-16.809 65.48-89.571 55.71-135.254-44.74-209.106-364.03-123.399-481.64-50.934-118.22 72.836-201.35 178.102-342.71 210.551-179.53 41.211-296.22-114.977-464.17-141.359-83.74-13.161-144.97 41.25-163.83 61.929M6519.9 664.617c165.19-70.086 425.5-325.387 336.67-640.781-67.67-240.305-377.56-348.414-604.53-229.531" class="B"/></g></g><g clip-path="url(#J)"><g clip-path="url(#K)"><g clip-path="url(#L)"><path d="M12193.5-371.266c-73.6 78.895 2.9 180.496 78.3 219.707 352.6 183.586 565.6-321.718 333.6-564.66-69.9-73.082-166.5-115.996-265.2-137.808-195.2-43.149-411.4-4.793-567.6 120.156-156.1 124.953-241.9 339.324-195.4 533.816 28.9 120.813 103.3 225.582 184.1 319.891 101.8 118.742 217.5 200.894 370.4 240.449 303.5 78.504 644.9-10.976 870.8-228.246 53.7-51.598 102-111.379 125.8-181.918 31.4-92.891 17.3-194.199 3-291.172l16.7 103.875c75.7 470.293 981 188.387 710.2-234.07-13.8-21.426-38.2-32.949-55-51.082-8.1-8.789-33.1-25.82-27.5-39.508 10.8-1.551 37.3 10.82 48.9 14.883 10.8 3.797 20.1 9.879 31.2 13.363 188.7 59.168 309-78.031 401.9-220.41 31.5-48.258 65.5-96.172 111.5-130.926 138.6-104.887 345.6-10.855 458.2 92.223 7.3 6.726 11.7 16.203 18.6 23.383 65.3 67.816 147.6 142.984 241.4 175.422 87.3 30.207 170-1.793 249.7-37.918 39.7-17.993 78.7-38.2 120.5-50.895 42.4-12.852 92.2-5.84 130.2-17.937-9.9-19.926-29.1-25.684-50.8-28.235-92.7-10.894-202.5 34.121-290.6-2.199-74.6-30.77-128.7-82.316-150.6-161.469-21.6-78.082-17.9-195.299-113.1-223.669-14.9-4.45-34.9-1.08-50.4-1.06-46.5.05-104.1 15.71-120.1-45.89-15.2-58.73 25.9-101.24-14.3-156.1-76.8-104.66-251.5-149.74-373.1-117.48-173 45.94-190.7 314.79 15.3 319.47 42.4.96 126.4-28.09 114.2-158.55" class="B C D E F G H I"/></g></g></g><g clip-path="url(#M)"><g clip-path="url(#N)"><g clip-path="url(#O)"><path d="M194-371.266c-73.645 78.895 2.941 180.496 78.258 219.707 352.629 183.586 565.676-321.718 333.597-564.66-69.812-73.082-166.421-115.996-265.113-137.808-195.258-43.149-411.476-4.793-567.605 120.156s-241.895 339.324-195.41 533.816c28.875 120.813 103.238 225.582 184.078 319.891 101.781 118.742 217.48 200.894 370.39 240.449 303.485 78.504 644.891-10.976 870.855-228.246 53.66-51.598 101.99-111.379 125.78-181.918 31.33-92.891 17.3-194.199 2.93-291.172l16.73 103.875c75.75 470.293 981.03 188.387 710.17-234.07-13.73-21.426-38.14-32.949-54.91-51.082-8.13-8.789-33.17-25.82-27.58-39.508 10.81-1.551 37.34 10.82 48.92 14.883 10.82 3.797 20.07 9.879 31.19 13.363 188.68 59.168 309.02-78.031 401.89-220.41 31.48-48.258 65.53-96.172 111.48-130.926 138.7-104.887 345.65-10.855 458.24 92.223 7.35 6.726 11.68 16.203 18.6 23.383 65.32 67.816 147.6 142.984 241.39 175.422 87.34 30.207 170.03-1.793 249.7-37.918 39.68-17.993 78.71-38.2 120.56-50.895 42.35-12.852 92.17-5.84 130.12-17.937-9.86-19.926-29.03-25.684-50.73-28.235-92.77-10.894-202.57 34.121-290.62-2.199-74.59-30.77-128.74-82.316-150.62-161.469-21.59-78.082-17.86-195.299-113.08-223.669-14.91-4.45-34.96-1.08-50.39-1.06-46.53.05-104.09 15.71-120.08-45.89-15.23-58.73 25.88-101.24-14.34-156.1-76.75-104.66-251.49-149.74-373.05-117.48-173.09 45.94-190.77 314.79 15.21 319.47 42.48.96 126.4-28.09 114.26-158.55" class="B C D E F G H I"/></g></g></g><g clip-path="url(#P)"><g clip-path="url(#Q)"><path d="M11287.4 8184.25c114.5 50.81 255.5 56.19 372.8 11.36 57.2-21.86 109.9-56.75 146.8-106.13 44.3-59.08 46.4-127.92 73.7-193.84 12.7-30.51 35.2-58.44 66.1-70.01 77.2-28.83 166.2 31.72 234 61.28 26 11.34 53 22.89 81.4 22.55 124.5-1.47 134.6-142.56 223.2-198.32 127.4-80.11 270.2 36.74 380.3 90.84 51 25 109.9 35.63 161.7 6.44l1-10.83c-148.1 9.25-196.5-179.17-303-252.58-96.7-66.59-209.9-66.96-319-33.41-91.5 28.15-183.9 42.29-258.6-28.59-60.1-57.11-92-138.93-133.4-209.15-123-208.31-371.9-307.44-598.6-199.77-160.4 76.15-264.6 268.68-188.1 436.49" class="B C D E F G H I"/></g></g><g clip-path="url(#R)"><g clip-path="url(#S)" class="C D E F G H I"><path d="M12193 11628.2c-73.6 78.9 2.9 180.5 78.3 219.7 352.6 183.6 565.6-321.7 333.6-564.6-69.9-73.1-166.5-116-265.2-137.8-195.2-43.2-411.4-4.8-567.6 120.1-156.1 125-241.9 339.4-195.4 533.8 28.9 120.9 103.3 225.6 184.1 319.9 101.8 118.8 217.5 200.9 370.4 240.5 303.5 78.5 644.9-11 870.8-228.3 53.7-51.6 102-111.3 125.8-181.9 31.4-92.9 17.3-194.2 3-291.2l16.7 103.9c75.7 470.3 981 188.4 710.2-234-13.8-21.5-38.2-33-55-51.1-8.1-8.8-33.1-25.8-27.5-39.5 10.8-1.6 37.3 10.8 48.9 14.8 10.8 3.8 20.1 9.9 31.2 13.4 188.7 59.2 309-78 401.9-220.4 31.4-48.3 65.5-96.2 111.4-130.9 138.7-104.9 345.7-10.9 458.3 92.2 7.3 6.7 11.7 16.2 18.6 23.4 65.3 67.8 147.6 143 241.4 175.4 87.3 30.2 170-1.8 249.7-37.9 39.7-18 78.7-38.2 120.5-50.9 42.4-12.9 92.2-5.9 130.2-17.9-9.9-20-29.1-25.7-50.8-28.3-92.7-10.9-202.5 34.1-290.6-2.2-74.6-30.8-128.7-82.3-150.6-161.4-21.6-78.1-17.9-195.3-113.1-223.7-14.9-4.5-34.9-1.1-50.4-1.1-46.5.1-104.1 15.7-120.1-45.9-15.2-58.7 25.9-101.2-14.3-156.1-76.8-104.6-251.5-149.7-373.1-117.4-173 45.9-190.7 314.7 15.3 319.4 42.4 1 126.4-28.1 114.2-158.5m-3854.7-84.9c220 42.1 366.8-171.2 477.5-266.9 109.6-94.6 182.5-171.1 327.4-197.6 82.2-15 173-6.3 252.4 26.1 95.6 39.1 141.4 105.2 205.6 178.6-16.6-19 74.3-81.6 89.8-91.9 161-106.5 338.6-6.6 435.6 136.3" class="B"/></g></g><g clip-path="url(#T)"><g clip-path="url(#U)" class="C D E F G H I"><path d="M11492 2386.6c-226.2 0-83.2-224.92 91.8-204.13 144.1 17.13 260.8 141.74 215 271.63-16.3 46.27-47.7 87.13-82.1 124.64-56.8 61.78-132.4 122.34-221.3 142.68-58.3 13.33-104.3-17.09-159.4-23.84-68.5-8.41-102.6 9.95-167.1 25.34-202.7 48.36-395.6-19.71-504.9-179.71-98.3-143.85-75.7-326.69 45.2-455.77 101.5-108.34 215-102.09 355.7-128.43 109.4-20.49 62-38.53 101.7-125.38 29.5-64.4 92.5-117.56 158.1-152.94 222.5-119.82 548.5-98.62 704.3 102.49 108 139.49 87.9 282.41 5.6 423.76 23.7-40.7 193.6 93.58 216.4 115.25 177.6 168.87 16.2 426.92-143.6 553.62-201.3 159.6-486.7 242.01-752.2 190.62-70.1-13.58-139.4-53.52-212.4-53.96-69.2-.41-142.2 32.02-213.3 38.09-602.6 51.42-1076.65-556-860.2-1048.55 88.8-202.19 280.5-267.55 501.1-308.96 95.7-18 66-104.59 76.1-172.77 12.5-83.41 39.2-166.77 100.5-232.62 186.7-200.36 609-197.96 861.3-127.9 201.5 55.98 411.7 144.36 591-12.73m797.7 1944.21c-61.4-41.38-18.8-117.77 35-151.35 164.1-102.52 415.6 20.18 390.5 200.84-10.1 72.46-57.2 137.44-115.9 188.41-103.9 90.26-263.8 114.29-400.1 76.75-113.9-31.39-178.5-178.85-293.1-155.48-245.4 50.03-407.9-164.83-362.7-360.92 33.4-145.43 139-277.61 285-349.44 75.7-37.22 161.3-58.14 247.6-61.49 88.2-3.42 159.1 13.28 244.5-2.24 113.1-20.56 211.3-39.19 327.2-14.98 355.7 74.29 609.1 457.93 466.9 768.02-55.2 120.34-232.2 202.99-232.2 330.53-.2 238.81-180.3 439.64-410.8 551.65-167.5 81.41-381.6 94.59-565.7 42.65-128.3-36.18-222-107.93-302.6-201.54-75.5-87.55-132-219.76-254.9-263.17-114.4-40.43-229.1 2.42-346.4-.95-205.9-5.91-460.8-210.3-365.3-408.94m228.7-2139.79c172.4 63.31 322.4-59.53 383.7-194.32 81.8-179.785 205.6-313.886 445.8-247.39 339 93.836 536.6 478.07 928.5 433.12 115.2-13.21 223.8-78.35 259.2-179.995 32.7-94.004 77.5-170.512 200.3-178.918 245.4-16.813 517.3 251.033 740.7 47.812" class="B"/><path d="M12254 3961.08l-98.4.03c-24.3-.41-33.5 3.71-54 14.17-19.5 9.93-42 10.89-62.7 17.8-69.7 23.18-142.1 56.49-217.7 55.89-41.7-.34-79.3.03-119.6-7.21-21.2-3.79-36.5-5.85-57.2-12.76-22.6-7.55-44.2-14.63-67.2-20.86-45-12.11-80.5-33.97-121.3-52.86-16.6-7.69-30.1-19.62-44.6-30.14l-22.5-16.84c-15-11.2-14.3-20.31-24.1-33.54-23.8-32.32-74-24.97-112.8-25.55-23.9-.35-32.3 7.67-53.8 14.41-24.1 7.57-47.9 9.66-73.4 9.52-48-.27-103.4 6.16-150.9.41-22.8-2.76-44.5-11.74-66.9-16.34-23-4.72-47-10.15-69.1-17.82-88.9-30.88-179.1-95.26-222.5-172.22-20.5-36.27-29-66.25-28.6-106.7.2-21.18-7.9-37.53-9.4-57.95-1.4-18.63.3-37.92.3-56.63.1-78.24 35.9-149.21 35.9-228.09 0-38.28-.1-75.35-13.1-111.9-7.2-20.14-13.5-44.01-27.2-60.25-10.9-13-45.5-42.24-13.5-51.64" class="B"/></g></g><g clip-path="url(#V)"><g clip-path="url(#W)" class="C D E F G H I"><path d="M12959.6 6246.22c17.8-44.16-39.7-89.77-76.1-102.58-110.4-38.88-222.7 98.06-141.3 192.26 107 123.84 345.7 106.04 459 4.45 93.1-83.39 123.8-250.94 36.4-348.76-61.7-68.94-155.5-67.67-240.5-59.24-80.6 7.99-165.2 9.36-238.7-29.86-65.3-34.85-113.4-91.42-191-101.21-77.2-9.73-174.9 11.71-225.4 75.05-33.8 42.28-43.3 99.9-37.4 153.68 8.2 75.63 68.3 158.27 47.9 234.99-30.7 115.7-202.6 111.01-261.9 211.43-24.8 41.92-29.9 94.35-16.4 141.14 33.6 116.49 156.6 160.66 261.2 191.55 56.2 16.58 109.7 27.26 159.1 59.08 85.1 54.82 170.7 124.6 272.7 151.44 117.2 30.81 233.1-16.51 343.7-52.16 106.7-34.38 222.3-18.33 327.2-56.17 125.4-45.23 224.8-138 271.5-263.33 20.4-54.81 20.4-114.75 45.5-167.71 28.6-60.54 74.5-115.32 132.4-149.91 127.5-76.15 235.8-195.26 291-336.24 66.2-169.07 38-371.23-58.8-524.84-71.8-114.01-188.7-188.85-318.8-219.27-75.4-17.64-161.7-24.4-238.5-14.15-90.7 12.11-174.7 43.36-267.9 44-83.1.57-172.1-16.77-241.1-65.54-86.5-61.19-148.6-150.81-244.5-199.27-118.3-59.8-240.4-58.93-360.1-4.32-122.7 55.95-219.8 148.7-364.1 139.33-140.4-9.12-253-111.79-388.7-139.71-210.3-43.26-473.3 52.43-561.9 259.59-54.1 126.27-90.7 293.22-228.3 354.47-106.3 47.36-231.2 33.44-333.5 91.44-100.5 56.93-162.7 173.04-158.1 287.92.5 12.93 1.6 26.67-4.5 38.05m1664 638.39c-48.1 88.11-168.6 121.56-262.3 114.27-84.1-6.54-176.7-54.56-228.5-121.45-26.9-34.64-43.6-84.16-33.5-130.01 10.7-48.27 63-80.09 61.2-131.82-2.1-61.9-86.1-78.2-131.2-96.19-64.9-25.93-116.1-68.87-129-141.77-10.4-58.54 11.4-125.67 57.3-164.17 66.7-55.86 160.4-36.71 239.3-28.68 107.7 10.98 222.8-6.83 323.3-53.13 92.1-42.46 195-105.69 244.1-197.96 53.7-100.9 6-230.87-107.6-263.44-112.2-32.15-193.5 94.42-303.7 89.91-134.2-5.5-101.5-217.51-234.5-234.15-30.8-3.86-62.2 3.61-90.7 16.04-94.1 41.07-149.9 127.01-193.9 215.68-45.6 91.96-86.3 198.13-178.6 253.51-118.9 71.37-268.7 43.46-398.4 28.68-120.5-13.73-245.5 52.35-282.7 172.16" class="B"/></g></g><g clip-path="url(#X)"><g clip-path="url(#Y)"><g clip-path="url(#Z)"><path d="M12193-371.766c-73.6 78.895 2.9 180.496 78.3 219.707 352.6 183.586 565.6-321.718 333.6-564.66-69.9-73.082-166.5-115.996-265.2-137.808-195.2-43.149-411.4-4.793-567.6 120.156-156.1 124.953-241.9 339.324-195.4 533.816 28.9 120.813 103.3 225.582 184.1 319.891 101.8 118.742 217.5 200.894 370.4 240.449 303.5 78.504 644.9-10.976 870.8-228.246 53.7-51.598 102-111.379 125.8-181.918 31.4-92.891 17.3-194.199 3-291.172l16.7 103.875c75.7 470.293 981 188.387 710.2-234.07-13.8-21.426-38.2-32.949-55-51.082-8.1-8.789-33.1-25.82-27.5-39.508 10.8-1.551 37.3 10.82 48.9 14.883 10.8 3.797 20.1 9.879 31.2 13.363 188.7 59.168 309-78.031 401.9-220.41 31.4-48.258 65.5-96.172 111.4-130.926 138.7-104.887 345.7-10.855 458.3 92.223 7.3 6.726 11.7 16.203 18.6 23.383 65.3 67.816 147.6 142.984 241.4 175.422 87.3 30.207 170-1.793 249.7-37.918 39.7-17.993 78.7-38.2 120.5-50.895 42.4-12.852 92.2-5.84 130.2-17.937-9.9-19.926-29.1-25.688-50.8-28.235-92.7-10.894-202.5 34.121-290.6-2.199-74.6-30.77-128.7-82.316-150.6-161.469-21.6-78.082-17.9-195.299-113.1-223.669-14.9-4.45-34.9-1.08-50.4-1.06-46.5.05-104.1 15.71-120.1-45.89-15.2-58.73 25.9-101.24-14.3-156.1-76.8-104.66-251.5-149.74-373.1-117.48-173 45.94-190.7 314.79 15.3 319.47 42.4.96 126.4-28.09 114.2-158.55" class="B C D E F G H I"/></g></g></g><g clip-path="url(#a)"><g clip-path="url(#b)"><path d="M12099.2 9337.58c-15.1 1.71-40.5 3.36-45.9 20.8-3.1 9.91.4 21.03 7 29.05 39.6 48.1 118.3 41.95 168.6 16.37 57.8-29.35 95-125.12-2.8-119.6-35.8 2.02-56-22.23-79.6-44.38-29.4-27.58-66.2-42.7-106.9-42.15-40.2.54-79.4 15.7-112.3 38.8-20.2 14.21-35.4 34.91-42.5 58.66-7.9 26.45 1.2 54.87-7.9 80.74-10.9 30.6-42.8 30.25-63.1 50.66-17.6 17.71-30.8 41.98-28.3 67.65 5.2 51.87 78.2 88.37 124.8 70.75 33.7-12.74 68.9-28.58 104.7-33.72 69.8-10.02 96.7 54.51 157.9 68.4 64.3 14.59 138.1 10.44 193.9-30.04 26.2-19.01 42.8-47.28 64.5-70.67 36.7-39.56 92-52.97 135.1-83.68 61-43.48 93.9-132.34 63.7-204.2-36.7-87.37-142.9-90.93-221.8-67.27-56.1 16.81-177.8 27.85-235.4 9.91-71.1-22.16-142.2-66.88-219.3-60.5-82 6.8-139.5 52.61-201.3 102.31-42.4 34.13-132.3 27.95-181.4 49.86-50.1 22.39-76.2 59.41-104.1 106.54-49.8 84.23 12.5 233.88 112.8 262.63 35.6 10.21 75.9 10.6 110.2 27.23 35.7 17.29 58.5 39.96 85.4 68.37 42.7 45.17 103.6 72.13 165.9 71.6 48.9-.42 94.8-16.3 141-30.08 73.1-21.78 151.5-33.11 224.9-6.35 44.6 16.26 79.8 44.89 128.4 51.34 119 15.81 193.8-115.54 292.5-162.31 117.8-55.84 287.2 2.79 349.4-137.17 12.6-28.27 17-61.23 9.6-91.5-14-57.3-78.5-70.79-117.8-105.24-50.3-44.2-36.2-91.2-25.3-149.45 7.1-38.42 9.3-87.05-10.9-121.84-9.4-16.07-23.6-28.86-39.4-38.76-50.7-31.98-98.7-20.07-154.2-15.51-55.5 4.54-114.9 2.02-170-11.94-49.5-12.53-92.9-40.97-131.8-73.15-45.7-37.78-77.2-79.45-139.2-91.97-78.7-15.89-150.7 13.34-216.4 54.51-58.6 36.68-115.8 78.08-184.9 91.79-77.1 15.3-156.3 10.32-234.1 3.35-75.3-6.74-147.2-16.67-215.7 24.11-66 39.31-117.5 108.95-129.1 185.53-13.8 90.85 5 202.24 133.9 274.09" class="B C D E F G H I"/></g></g><g clip-path="url(#c)"><g clip-path="url(#d)" class="C D E F G H I"><path d="M11492.5 2386.6c-226.2 0-83.2-224.92 91.8-204.13 144.1 17.13 260.8 141.74 215 271.63-16.3 46.27-47.7 87.13-82.1 124.64-56.8 61.78-132.4 122.34-221.3 142.68-58.3 13.33-104.3-17.09-159.4-23.84-68.5-8.41-102.6 9.95-167.1 25.34-202.7 48.36-395.6-19.71-504.9-179.71-98.3-143.85-75.7-326.69 45.2-455.77 101.5-108.34 215-102.09 355.7-128.43 109.4-20.49 62-38.53 101.7-125.38 29.5-64.4 92.5-117.56 158.1-152.94 222.5-119.82 548.5-98.62 704.3 102.49 108 139.49 87.9 282.41 5.6 423.76 23.7-40.7 193.6 93.58 216.4 115.25 177.6 168.87 16.2 426.92-143.6 553.62-201.3 159.6-486.6 242.01-752.2 190.62-70.1-13.58-139.4-53.52-212.4-53.96-69.2-.41-142.2 32.02-213.3 38.09-602.6 51.42-1076.65-556-860.2-1048.55 88.8-202.19 280.5-267.55 501.1-308.96 95.7-18 66-104.59 76.1-172.77 12.5-83.41 39.2-166.77 100.5-232.62 186.7-200.36 609-197.96 861.3-127.9 201.5 55.98 411.7 144.36 591-12.73m797.7 1944.21c-61.4-41.38-18.8-117.77 35-151.35 164.1-102.52 415.6 20.18 390.5 200.84-10.1 72.46-57.2 137.44-115.9 188.41-103.9 90.26-263.8 114.29-400.1 76.75-113.9-31.39-178.5-178.85-293.1-155.48-245.4 50.03-407.9-164.83-362.7-360.92 33.4-145.43 139-277.61 285-349.44 75.7-37.22 161.3-58.14 247.6-61.49 88.2-3.42 159.1 13.28 244.5-2.24 113.1-20.56 211.3-39.19 327.2-14.98 355.7 74.29 609.1 457.93 466.9 768.02-55.2 120.34-232.2 202.99-232.2 330.53-.2 238.81-180.3 439.64-410.8 551.65-167.5 81.41-381.6 94.59-565.7 42.65-128.3-36.18-222-107.93-302.6-201.54-75.5-87.55-132-219.76-254.9-263.17-114.4-40.43-229.1 2.42-346.4-.95-205.9-5.91-460.8-210.3-365.3-408.94m228.7-2139.79c172.4 63.31 322.4-59.53 383.7-194.32 81.8-179.785 205.6-313.886 445.8-247.39 339 93.836 536.6 478.07 928.5 433.12 115.2-13.21 223.8-78.35 259.2-179.995 32.7-94.004 77.5-170.512 200.3-178.918 245.4-16.813 517.3 251.033 740.7 47.812" class="B"/><path d="M12254.5 3961.08l-98.4.03c-24.3-.41-33.5 3.71-54 14.17-19.5 9.93-42 10.89-62.7 17.8-69.7 23.18-142.1 56.49-217.7 55.89-41.7-.34-79.3.03-119.6-7.21-21.2-3.79-36.5-5.85-57.2-12.76-22.6-7.55-44.2-14.63-67.2-20.86-45-12.11-80.5-33.97-121.3-52.86-19.1-8.87-41.3-24.11-57.5-37.72-18.4-15.44-27.1-39.63-46.5-54.07-11.9-8.88-26.9-12.58-41.7-14.35-65.3-7.82-134.2 19.92-199.9 24.28-131.5 8.76-269.3-14.95-381.2-87.94-82.7-53.93-124.2-125.83-142.4-221.5-10.8-56.98-12.6-115.7-5-173.23 15.5-119.25 53.4-292.23-34.5-397.37" class="B"/></g></g><g clip-path="url(#e)" class="C D E F G H I"><path d="M4504.28 3059.56c-85.6 142.1-325.02 149.38-424.22 17.57-84.62-112.43-39.47-297.37 110.84-317.46 30.74-4.11 51.66-.59 66.55-31.63 16.72-34.82 5.5-76.68 28.08-112.28 67.45-106.36 248.14-104.63 352.21-73.32 143.11 43.06 282.86 153.09 334.01 296.9 32.06 90.13 35.61 205.93-17.73 287.89-48.3 74.2-129.25 156.82-227.23 134.15 12.79 2.96-9.52 133.18-13.33 145.8-55.76 185.01-258.3 281.69-436.02 307.24-202.01 29.04-413.13-65.23-538.18-224.13-16.37-20.8-31.32-42.69-44.73-65.5-41.52-70.65-67.26-150.79-69.51-232.99-2.66-97.39 36.45-160.59 69.05-247.03-47.91 151.03-312.18 147.44-421.9 86.63-119.85-66.43-221.95-207.11-231.26-346.06-5.2-77.62 38.54-108.53 71.87-168.76-9.49 17.16-100.99-19.53-115.01-28.06-214.31-130.39-355.79-469.81-97.18-631.43 80.68-50.42 175.78-77.9 271.04-76.22 95.02 1.68 184.35 45.83 279.5 33.31 168.5-22.16 313.84-128.27 483.49-152.68 107.11-15.42 244.88-4.31 329.49 71.59 144.09 129.25 177.13 364.43 53.86 518.92-78.67 98.58-202.4 165.31-327.36 180.05-87.72 10.36-187.64-8.02-256.93-65.63-78.17-64.98-100.9-182.49-33.49-264.42 19.58-23.79 45.62-42.49 74.97-51.88 53.52-17.13 111.45-2.52 165.7 12.13m1021.7 1070.79c96.41 185.42 316.1 197.5 420.46 128.53 32.54-21.5 66.69-65.67 106.48-51.79 121.89 42.53 285.84-24.4 366.39-118.93 133.54-156.72 158.6-585.43-127.58-595.99-28.79-1.06-82.53 18.87-81.79-26.82 1.18-72.94 19.93-140.69-18.73-207.21-77.3-132.99-246.25-201.31-394.59-207.51-171.71-7.19-372.2 79.09-454.31 237.29m-448.58-481.81c93.04 77.99 264.41 25.75 337.09-47.97 108.8-110.34 224.5-209.11 388.57-211.83 131.91-2.18 233.05 84.44 332.48 159.49 96.58 72.91 292.33 149.21 356.01 6.25" class="B"/><path d="M5917.53 2619.5c22.39 39.52 68.91 72.22 90.88 85.27 125.47 74.53 300.7 19.55 387.97-89.62 41.98-52.52 62.58-119.91 41.89-185.61-29.36-93.25-135.77-144.5-146.44-246.39-1.54-14.76 3.2-31.11 15.47-39.45m-247.58 42.06c-45.01 54.71-160.33 60.25-210.72-37.96-67.44-131.45 8.14-268.7 133.07-328.55 111.23-53.28 238.27-42 347.12 11.41 110.66 54.31 181.79 168.72 276.51 244.35 46.23 36.91 99.96 68.92 160.65 71.03 131.39 4.57 208.64-143.29 340.83-132.85 20.86 1.65 41.17 7.33 61.32 12.98l74.64 20.92c-112.16 13.43-162.58 69.01-191.89 112.2-41.66 61.42-44.39 144.04-122.65 175.44-83.72 33.6-183.6 8.28-266.66-14.76-86.98-24.13-188.81-26.56-246.79 49.11m-945.58-628.03c-9.77-51.61 80.78-105.69 120.95-121.37 61.95-24.18 135.3-28.45 200.74-19.95 108.7 14.13 219.7 76.9 230.48 196.39M4975.19 2840.54c-10.96-106.47 74.84-234.35 195.96-270.53 112.34-33.55 275.21 3.45 323.81 124.18 47.98 119.17-40.29 233.67-149.3 275.48-49.38 18.94-159.23 35.76-177.18-35.28-12.71-50.35 38.64-83.17 80.65-92.72m3037.4 7903.93c-18.39 2.1-49.26 4.1-55.89 25.3-3.77 12.1.55 25.6 8.59 35.4 48.26 58.6 144.08 51.1 205.38 19.9 70.33-35.7 115.71-152.4-3.46-145.7-43.58 2.5-68.13-27-96.92-54-35.85-33.6-80.67-52-130.21-51.4-48.98.7-96.74 19.2-136.84 47.3-24.65 17.3-43.15 42.5-51.8 71.5-9.63 32.2 1.54 66.8-9.63 98.3-13.21 37.3-52.08 36.9-76.81 61.7-21.45 21.6-37.54 51.2-34.43 82.4 6.27 63.2 95.23 107.7 151.97 86.2 41.02-15.5 83.9-34.8 127.53-41.1 85.05-12.2 117.83 66.5 192.39 83.4 78.26 17.7 168.19 12.7 236.15-36.6 31.91-23.2 52.12-57.6 78.58-86.1 44.77-48.2 112.13-64.5 164.6-101.9 74.28-53 114.32-161.3 77.58-248.8-44.67-106.4-174.02-110.8-270.2-81.9-68.29 20.4-216.59 33.9-286.71 12-86.63-27-173.31-81.4-267.12-73.7-99.97 8.3-169.99 64.1-245.22 124.7-51.65 41.5-161.26 34-221.04 60.7-61.07 27.3-92.82 72.4-126.76 129.8-60.67 102.6 15.24 284.9 137.33 319.9 43.38 12.4 92.45 12.9 134.29 33.2 43.49 21 71.26 48.7 104.01 83.3 52.07 55 126.23 87.8 202.15 87.2 59.48-.5 115.46-19.9 171.77-36.7 89.01-26.5 184.49-40.3 273.92-7.7 54.39 19.8 97.17 54.7 156.37 62.6 145 19.2 236.09-140.8 356.34-197.8 143.57-68 349.93 3.4 425.69-167.1 15.31-34.4 20.7-74.6 11.68-111.4-17.08-69.8-95.69-86.3-143.49-128.2-61.32-53.9-44.12-111.1-30.88-182.1 8.73-46.8 11.35-106-13.3-148.4-11.38-19.6-28.74-35.2-47.9-47.2-61.87-39-120.29-24.5-187.93-18.9-67.55 5.5-139.88 2.4-207.03-14.6-60.3-15.2-113.15-49.9-160.6-89.1-55.7-46-93.98-96.8-169.52-112-95.85-19.4-183.62 16.2-263.67 66.4-71.33 44.7-140.98 95.1-225.16 111.8-94.02 18.7-190.43 12.6-285.2 4.1-91.76-8.2-179.33-20.3-262.76 29.4-80.43 47.9-143.15 132.7-157.29 226-16.78 110.6 6.13 246.3 163.07 333.9M2237.52 9144.89c-69.55-16.7-99.93-76.67-92.04-140.71 9.27-75.29 76.39-141.68 157.48-155.76 337.38-58.56 414.37 500.51 58.86 552.67-145.54 21.36-307.84-10.32-429.37-91.76-160.08-107.28-120.21-280.7-231.47-409.07-111.43-128.57-243.81-259.48-295.1-420.94-60.84-191.5 60.79-340.65 206.1-462.54-89.54-89.13-206.05-200.74-146.06-351.14 42.65-106.92 98.59-163.7 227.57-274.12 92.27-78.99 80.36-242.78 167.68-333.57 126.99-132.04 303.42-146.81 477.8-99.34 158.97 43.28 396.19 202.13 328.77 380.54-72.59 192.08-486.33 157.92-422.63-61.1m95.13 198.82c81.91 150.41 212.89 207.2 432.62 197.29 216.15-9.74 407.79-146.25 536.77-305.84 79.09-97.87 258.37-385.3 43.85-445.15m51.28 287.01c-70.86 93.38-248.55 75.69-314.94 31.01-110.76-74.55-117.7-177.42-62.82-279.14 25.62-47.48 59.66-92.59 76.66-143.67 25.55-76.78-34.93-168.34 47.96-265.51 133.61-156.63 237.47-21.47 327.02-83.94 95.3-66.5 116.73-212.89 272.56-181.75 155.32 31.03 138.41 187 142.12 301.24 6.06 186.89 186.82 305.4 376.17 323.24 91.86 8.66 186.96-4.25 268.84-44.88 115.99-57.57 192.47-171.47 315.35-218.42 214.75-82.06 313.91 162.46 433.09 271.07 116.08 105.79 283.06 176.72 449.37 157.48 280.6-32.47 352.31-315.4 470.48-506.54 200.05-323.6 710.51-327.88 1024.17-161.3M2123.41 9411.99c-67.33 231.54 241.93 610.41 591.93 531.6 77.22-17.38 80.45 92.31 104.91 141.51 107.85 216.8 365.71 347.3 621.4 360.5 428.49 22.1 980.47-503.23 494.69-807.8-146.25-91.69-351.03-112.6-514.58-47.65-166.04 65.94-210.57 279.36-48.49 374.01 78.63 45.94 244.59 51.94 288.24-42.94m381.95-1012.77c17.19-47.66 6.66-102.56-40.24-132.61-106.88-68.48-263.77-14.93-310.15 93.34-47.13 110 4.1 219.74 99.38 291.13 46.53 34.85 103.16 63.25 160.16 80.46 44.76 13.51 93.56 18.67 139.3 7.89 134.95-31.81 167.8-191.04 324.63-184.66 123.36 5.02 223.32 86.12 352.23 72.33 78.6-8.4 153.48-38.36 207.79-92.33 42.32-42.07 64.39-92.49 75.86-148 8.64-41.8 2.13-83.98 9.8-125.85 5.52-30.15 17.94-60 40.58-82.47 35.86-35.58 86.47-49.74 126.81-79.25 90.65-66.33 127.3-188.31 98.38-290.72-14.84-52.54-46.3-96.77-94.02-128.5-81.53-54.21-172.63-84.57-185.24-188.29-5.62-46.27 12.81-98.35-2.5-143.05-14.98-43.74-63.45-77.14-107.16-94.7-165.5-66.5-361.27-20.24-481.3 101.62-109.09 110.76-165.52 321.61-29.6 433.78 85.39 70.47 237.26 106.87 328.59 24.89 35.64-31.99 55.95-77.9 54.66-123.56" class="B"/><path d="M4453 8314.27c-204.33-52.31-322.51-234.71-343.49-412.05-29.49-249.36 111.71-507.7 366.1-611.87 335.77-137.48 600.37 95.87 905.88 184.01 177.12 51.09 381.01 52.99 554.63-12.59 199.07-75.19 295.88-237.9 350.1-421.49 39.34-133.16 42.78-284.8 114.87-408.42 65.13-111.68 192.98-192.4 319.97-234.46 153.94-51 327.44-57.6 498.91 3.96m-3083.56 3477.3c124.35-26.86 220.83-54.09 324.49-114.33 200.41-116.46 314.32-364.98 245.99-575.96m-744.26-683.41c-234.42-245.5-264.1-610.55-110.23-906.03 143.69-275.96 427.16-441.36 731.84-473.57M2321.59 8822.79c14.3-143.64 169.19-219.53 287.5-266.45 408.63-162.05 770-393.93 904.6-833.92m7425.51-3857.25c-17.4 52.01-104.3 181.84-116.1 233.87-18.1 79.45 82.6 150.81 125.8 210.01 52.7 72.06 90.7 156.21 83.3 244.79-15 180.79-190.9 311.71-384.3 318.71-129.1 4.68-244.2-60.63-359.4 26.86-94.6 71.85-136.4 184.95-247.3 242.23-88.51 45.76-195.43 59.62-293.59 37.68-91.67-20.5-158.03-91.88-252.1-105.31-96.67-13.81-183.19 49.74-274.87 69.87-139 30.53-319.49 34.01-439.36-46.01-72.21-48.21-127.48-122.08-153.4-200.16-26.85-80.94-8.44-170.61-42.51-250.16-51.88-121.1-240.55-90.4-300.42-215.88-20.63-43.24-26.97-91.03-30.76-138.21m1530.59-16.85c-101.66 59.92-278.15 15.87-245.27-117.33 45.28-183.39 357.22-185.91 494.29-99.1 158.6 100.47 222.5 391.32-6.2 458.21-115.68 33.82-247.29-.76-351.6 69.29-65.37 43.89-109.58 109.35-179.04 148.89-98.62 56.14-267.68 20.92-366.21-17.88-107.18-42.21-181.34-132.68-159.48-241.4 25.83-128.53-78.74-164.36-146.86-255.62-40.77-54.62-50.02-130.45-16.48-190.72 24.55-44.15 70.58-76.42 121.06-94.63 128.18-46.22 272.93 14.5 395.48-37.98 103.65-44.4 143.97-157.39 222.43-227.41 164.22-146.6 356.91-94.52 558.2-88.12 116.8 3.71 286.6-88.92 473.4-88.92" class="B"/><path d="M10209.8 3576.89c-117.8 22.76-242.29-54.79-303-140.33-94.63-133.32-122.77-294.18-288.81-376.42-184.73-91.49-390.27-7.89-513.22 131.41-61.46 69.67-103.49 2.1-172.97-19.32-130.15-40.14-263.78 1.15-359.38 88.52-157 143.45-121.33 386.1-316.04 504.25-89.86 54.52-208.13 72.23-311.87 48.76-130.21-29.45-197.78-119.83-236.87-231.21m652.13 82.47c-107.37 110.55-182.16 89.53-279.55 54.77-78.82-28.12-141.95-97.57-158.03-173.51-35.01-165.4 134.43-315.99 1.97-474.55-91.45-109.45-261.79-137.96-405.18-116.7-130.5 19.35-246.97 85.55-329.95 179.06-128.55 144.87-253.25 293.18-391.68 430.74-87.46 86.91-206.41 162.63-335.77 183.24-91.6 14.6-183.77-4.58-269.51-32.38-117.63-38.13-241.1-96.38-362.12-29.88-47.78 26.25-84.51 63.67-122.36 100.3m2402.13 1578c-97.84-30.6-251.99-27.39-270.07 93.77-11.52 77.2 62.22 122.39 137.69 132.13 196.24 25.33 514.11-93.88 439.47-318.05-43-129.17-158.07-236.66-342.95-151.8-81.24 37.29-173.4 73.78-265.6 57.97-175.8-30.15-446.41-25.2-510.27 172.93-6.67 20.7-5.2 44.11-3.75 65.33 3.56 52.35 32.69 76.02 46.18 124.92 13.51 48.98-14.5 71.28-53.5 97.02-45.72 30.19-64.07 67.92-67.57 116.35-5.16 71.36 33.61 144.51 95.31 187.16 138.67 95.83 296.36-18.19 442.52 38.16 105.29 40.59 188.79 105.5 302.78 132.03 192.5 44.81 352.53-59.02 444.05-211.36m-1007.5-727.42c-205.42 12.67-366.11-148.29-393.84-313.29-11.34-67.46 27.37-143.18 96.32-173.01 53.35-23.09 110.28-27.28 165.15-10.74 100.44 30.3 216.16 65.8 325.63 49.49 128.19-19.1 217.7-132.76 201.19-250.34-17.43-124.16-179.35-138.08-207.1-262.1m-77.45 509.96c47.97-2.48 83.72-50.13 78.36-93.54-12.86-103.88-143.06-112.7-230.79-134.61-166.9-41.68-303.8-201.1-232.51-361.91 30.84-69.57 101.62-118.88 128.58-190.2 31.43-83.13-40.45-101.04-111.94-118.66-81.35-20.05-152.25-88.61-156.73-167.29-5.62-98.49 99.84-99.86 154.48-163.12" class="B"/><path d="M7095.07 3730.04c-84.58-7.97-151.67 86-191.79 140.71-113.89 155.3-334.53 265.92-531.4 179.32-251.29-110.53-375.16-360.54-664.22-264.77m3109.3 1622.62c64.01 35.02 160.79 97.04 194.96 152.52 33.31 54.11 62.9 137.13 11.97 194.13-83.09 93-232.58 33.94-325.5 35.92-116.74 2.49-206.4 77.48-215.25 185.24-14.98 182.31 228.74 303.95 395.13 335.89 188.59 36.19 392.62 2.61 565.03-75.61 75.02-34.03 136.23-82.25 140.67-162.56 4.74-85.78-47.69-166.1-22.63-252.72 22.59-78.06 102.03-130.75 181.82-156.72 156.39-50.91 352.64-110.5 343.34-297.59-2.8-57.47-26.5-130.44-139.24-184.11" class="B"/><path d="M8878.21 5796.76s566.77 12.42 291.85-410.62m-5535.27-490.97c-18.51 11.08 46.34 21.38 53.93 20.45 93.86-11.5 123.76-132.45 55.17-190.94-51.16-43.63-127.75-54.87-189.29-27.77-113.32 49.91-144.82 198.59-92.6 303.62 79.68 160.25 273.85 150.46 418.17 95.34 76.48-29.2 150.13-71.71 210.69-127.11 65.24-59.66 108.04-139.74 142.83-219.88 39.12-90.11 72.16-189.52 139.42-263.48 68.14-74.94 166.34-99.58 264.2-85.87 85.5 11.98 162.28 61.05 248.74 68.65 37.95 3.34 78.12-3.29 108.7-26.02 20.08-14.92 37.42-33.27 52.63-56.09h-.58c-20.48 24.58-20.75 23.6-34.71 32.96-13.97 9.37-31.45 11.95-48.27 11.82-121.21-.99-189.91-129.11-269.02-201.61-66.23-60.7-143.63-99.62-234.8-101.2-99.92-1.72-194.83 35.85-270.72 99.71-63.62 53.54-113.91 123.62-201.29 138.22-81.35 13.59-167.23-8.71-232.16-59.4-108.05-84.36-168.98-219.28-287.89-291.09-78.76-47.55-171.12-73.02-262.56-79.31-71.88-4.95-143.57 3.54-212.4 24.7-66.21 20.34-122.22 67.82-190.22 81.68-55.48 11.3-113.9-3.42-169.91.03-57.31 3.53-113.51 18.46-164.24 45.52-74.12 39.54-136.33 99.39-182.75 169.09-95.08 142.76-126.45 330.3-66.72 492.95 40.82 111.19 98.79 226.14 211.18 278.21 122.66 56.82 357.19 97.75 465.4-12.1 50.31-51.08 93.9-98.17 166.92-115.15 64.61-15.02 129.65 5.4 193.58-17.78 111.8-40.53 180.92-150.41 180.9-268.42-.02-95.43-62.94-185.91-154.99-213.98-111.51-34.01-208.62 60.79-321.1 43.58-94.67-14.49-167.38-58.45-262.98-16.89-57.57 25.03-108.31 75.68-116.62 139.98-10.07 78.03 52.77 148.5 120.46 177.74 75.09 32.44 177.3 25.56 211.25-60.18m-308.71 411.67c59.96 74.56 144.7 144.49 241.92 159.65 68.24 10.64 137.73 2.01 204.74-12.39 68.67-14.75 143.62-30.8 216.39-29.34 88.96 1.79 171.84 53.87 261.74 35.62 80.62-16.37 127-40.47 165.26-112.93" class="B"/><path d="M2926.77 4228.04c73.17-2.7 138.02-47.68 209.84-61.91 173.45-34.39 310.48 102.52 422.94 213.3 117.42 115.67 282.33 184.59 444.5 124.7" class="B"/></g><g clip-path="url(#f)"><g clip-path="url(#g)" class="C D E F G H I"><path d="M6271.33 535.004c19.93-49.402-44.47-100.422-85.16-114.754-123.5-43.488-249.17 109.695-158.11 215.078 119.7 138.524 386.74 118.617 513.55 4.969 104.07-93.277 138.47-280.711 40.62-390.141-68.95-77.109-173.9-75.687-268.96-66.265-90.18 8.941-184.82 10.476-267.06-33.395-73.08-38.988-126.83-102.269-213.68-113.219-86.29-10.883-195.58 13.098-252.14 83.95-37.75 47.296-48.37 111.75-41.82 171.91 9.22 84.605 76.4 177.054 53.62 262.875-34.36 129.433-226.62 124.176-293.01 236.519-27.72 46.899-33.43 105.539-18.33 157.883 37.59 130.316 175.16 179.726 292.21 214.276 62.84 18.55 122.65 30.49 177.94 66.09 95.25 61.33 190.95 139.39 305.1 169.41 131.04 34.46 260.73-18.47 384.49-58.35 119.36-38.45 248.66-20.5 366.02-62.84 140.24-50.59 251.48-154.37 303.68-294.57 22.83-61.305 22.84-128.36 50.87-187.602 32.03-67.73 83.37-129.008 148.15-167.699 142.62-85.188 263.75-218.43 325.51-376.133 74.06-189.133 42.45-415.273-65.76-587.117-80.3-127.531-211.16-211.254-356.63-245.285-84.34-19.727-180.89-27.293-266.8-15.828-101.49 13.546-195.46 48.507-299.68 49.222-93.02.637-192.59-18.765-269.73-73.324-96.78-68.437-166.18-168.699-273.48-222.91-132.41-66.895-268.91-65.922-402.87-4.828-137.25 62.59-245.84 166.34-407.29 155.855-157.07-10.195-282.99-125.047-434.83-156.285-235.23-48.394-529.38 58.652-628.57 290.391-60.46 141.254-101.47 328.011-255.32 396.535-118.94 52.976-258.7 37.406-373.16 102.285-112.35 63.68-181.97 193.574-176.84 322.078.58 14.469 1.85 29.836-5.04 42.57m1861.43 714.135c-53.74 98.56-188.56 135.98-293.37 127.83-94.14-7.32-197.66-61.03-255.66-135.87-30.04-38.751-48.76-94.137-37.44-145.427 11.92-54 70.53-89.597 68.5-147.46-2.44-69.254-96.39-87.489-146.78-107.606-72.65-29.004-129.87-77.047-144.36-158.594-11.62-65.476 12.77-140.578 64.16-183.652 74.57-62.484 179.45-41.063 267.64-32.078 120.53 12.277 249.28-7.637 361.65-59.434 103.04-47.496 218.11-118.222 273.08-221.445 60.11-112.875 6.77-258.262-120.38-294.699-125.5-35.965-216.47 105.625-339.66 100.578-150.21-6.153-113.59-243.321-262.37-261.934-34.5-4.316-69.61 4.039-101.48 17.949-105.25 45.938-167.64 142.075-216.84 241.266-51.02 102.867-96.61 221.637-199.84 283.59-133.02 79.836-300.56 48.617-445.68 32.082-134.76-15.359-274.68 58.562-316.19 192.586" class="B"/><path d="M4887.97 223.598c49-16.809 65.48-89.571 55.71-135.254-44.74-209.106-364.03-123.399-481.64-50.934-118.22 72.836-201.35 178.102-342.71 210.551-179.53 41.211-296.22-114.977-464.17-141.359-83.74-13.161-144.97 41.25-163.83 61.929M6519.9 664.117c165.19-70.086 425.5-325.387 336.67-640.781-67.67-240.305-377.56-348.414-604.53-229.531" class="B"/></g></g><g clip-path="url(#h)"><g clip-path="url(#i)"><path d="M-712.145 8184.25c114.504 50.81 255.579 56.19 372.848 11.36 57.168-21.86 109.852-56.75 146.824-106.13 44.239-59.08 46.395-127.92 73.7-193.84 12.632-30.51 35.179-58.44 66.109-70.01 77.149-28.83 166.133 31.72 233.973 61.28 26.023 11.34 53.039 22.89 81.437 22.55 124.418-1.47 134.52-142.56 223.156-198.32 127.368-80.11 270.161 36.74 380.34 90.84 50.914 25 109.887 35.63 161.658 6.44l1.03-10.83c-148.137 9.25-196.492-179.17-303.075-252.58-96.695-66.59-209.878-66.96-318.96-33.41-91.532 28.15-183.926 42.29-258.575-28.59-60.148-57.11-92-138.93-133.441-209.15-122.949-208.31-371.918-307.44-598.617-199.77-160.356 76.15-264.543 268.68-188.086 436.49" class="B C D E F G H I"/></g></g><g clip-path="url(#j)"><g clip-path="url(#k)" class="C D E F G H I"><path d="M12960.1 6246.22c17.8-44.16-39.7-89.77-76.1-102.58-110.4-38.88-222.7 98.06-141.3 192.26 107 123.84 345.7 106.04 459 4.45 93.1-83.39 123.8-250.94 36.4-348.76-61.7-68.94-155.5-67.67-240.5-59.24-80.6 7.99-165.2 9.36-238.7-29.86-65.3-34.85-113.4-91.42-191-101.21-77.2-9.73-174.9 11.71-225.4 75.05-33.8 42.28-43.3 99.9-37.4 153.68 8.2 75.63 68.3 158.27 47.9 234.99-30.7 115.7-202.6 111.01-261.9 211.43-24.8 41.92-29.9 94.35-16.4 141.14 33.6 116.49 156.6 160.66 261.2 191.55 56.2 16.58 109.7 27.26 159.1 59.08 85.1 54.82 170.7 124.6 272.7 151.44 117.2 30.81 233.1-16.51 343.7-52.16 106.7-34.38 222.3-18.33 327.2-56.17 125.4-45.23 224.8-138 271.5-263.33 20.4-54.81 20.4-114.75 45.5-167.71 28.6-60.54 74.5-115.32 132.4-149.91 127.5-76.15 235.8-195.26 291-336.24 66.2-169.07 38-371.23-58.8-524.84-71.8-114.01-188.7-188.85-318.8-219.27-75.4-17.64-161.7-24.4-238.5-14.15-90.7 12.11-174.7 43.36-267.9 44-83.1.57-172.1-16.77-241.1-65.54-86.5-61.19-148.6-150.81-244.5-199.27-118.3-59.8-240.4-58.93-360.1-4.32-122.7 55.95-219.8 148.7-364.1 139.33-140.4-9.12-253-111.79-388.7-139.71-210.3-43.26-473.3 52.43-561.9 259.59-54.1 126.27-90.7 293.22-228.3 354.47-106.3 47.36-231.2 33.44-333.5 91.44-100.5 56.93-162.7 173.04-158.1 287.92.5 12.93 1.6 26.67-4.5 38.05m1664 638.39c-48.1 88.11-168.6 121.56-262.3 114.27-84.1-6.54-176.7-54.56-228.5-121.45-26.9-34.64-43.6-84.16-33.5-130.01 10.7-48.27 63-80.09 61.2-131.82-2.1-61.9-86.1-78.2-131.2-96.19-64.9-25.93-116.1-68.87-129-141.77-10.4-58.54 11.4-125.67 57.3-164.17 66.7-55.86 160.4-36.71 239.3-28.68 107.7 10.98 222.8-6.83 323.3-53.13 92.1-42.46 195-105.69 244.1-197.96 53.7-100.9 6-230.87-107.6-263.44-112.2-32.15-193.5 94.42-303.7 89.91-134.2-5.5-101.5-217.51-234.5-234.15-30.8-3.86-62.2 3.61-90.7 16.04-94.1 41.07-149.9 127.01-193.9 215.68-45.6 91.96-86.3 198.13-178.6 253.51-118.9 71.37-268.7 43.46-398.4 28.68-120.5-13.73-245.5 52.35-282.7 172.16" class="B"/><path d="M11723.5 5967.84c43.8-15.02 58.5-80.07 49.8-120.91-40-186.92-325.4-110.31-430.6-45.53-105.6 65.11-179.9 159.21-306.3 188.22-160.5 36.84-264.8-102.78-415-126.37-74.8-11.76-129.6 36.88-146.4 55.37" class="B"/></g></g><g clip-path="url(#l)" class="C D E F G H I"><path d="M8975.41 13055.1c-78.79-199.3-16.43-467.1 150.01-618.7 202.6-184.6 520.57-166.5 746.57-37.6 109.77 62.6 208.81 143.1 326.01 192.4 131.9 55.4 275.1 66.9 406.1 5.9 143.5-66.7 259.2-199.9 421.9-223.2 63.9-9.2 133.7 4.3 180.8 48.4v-.1c-1.4-85-113.1-179-183.4-210-163.6-72.2-299 22.5-453.1 67.4-146.8 42.7-309.9 21.7-445.9-45.8-175.37-86.9-320.89-224.5-500.99-303.6-566.53-248.7-1396.51 156.4-1458.01 802.6-16.73 175.9 40.61 410.3 200.36 471 101.66 38.6 264.82 20.9 315.63-90.3 53.83-117.9-59.17-247.5-176.44-257.3-65.76-5.6-142.1 49.2-127.44 129.3m10.27-86.4s-3.67-970.6 1011.02-893.4" class="B"/></g><g clip-path="url(#m)"><g clip-path="url(#n)" class="C D E F G H I"><path d="M193.5 11628.2c-73.645 78.9 2.941 180.5 78.258 219.7 352.629 183.6 565.676-321.7 333.597-564.6-69.812-73.1-166.421-116-265.113-137.8-195.258-43.2-411.476-4.8-567.605 120.1-156.129 125-241.895 339.4-195.41 533.8 28.875 120.9 103.238 225.6 184.078 319.9 101.781 118.8 217.484 200.9 370.39 240.5 303.485 78.5 644.891-11 870.855-228.3 53.66-51.6 101.99-111.3 125.78-181.9 31.33-92.9 17.3-194.2 2.93-291.2l16.73 103.9c75.74 470.3 981.03 188.4 710.17-234-13.73-21.5-38.14-33-54.91-51.1-8.13-8.8-33.17-25.8-27.58-39.5 10.81-1.6 37.34 10.8 48.92 14.8 10.81 3.8 20.07 9.9 31.19 13.4 188.68 59.2 309.02-78 401.89-220.4 31.48-48.3 65.53-96.2 111.48-130.9 138.7-104.9 345.66-10.9 458.24 92.2 7.35 6.7 11.68 16.2 18.6 23.4 65.32 67.8 147.6 143 241.39 175.4 87.34 30.2 170.03-1.8 249.7-37.9 39.68-18 78.71-38.2 120.55-50.9 42.36-12.9 92.18-5.9 130.13-17.9-9.86-20-29.03-25.7-50.73-28.3-92.77-10.9-202.57 34.1-290.62-2.2-74.59-30.8-128.74-82.3-150.62-161.4-21.6-78.1-17.86-195.3-113.07-223.7-14.92-4.5-34.97-1.1-50.4-1.1-46.53.1-104.09 15.7-120.08-45.9-15.23-58.7 25.88-101.2-14.34-156.1-76.75-104.6-251.49-149.7-373.05-117.4-173.09 45.9-190.77 314.7 15.21 319.4 42.48 1 126.4-28.1 114.26-158.5" class="B"/><path d="M955.039 10890.7c33.606-11.9 72.141 19.5 73.731 55.1 3.4 76.4-73.176 87.9-132.133 74-86.078-20.2-132.199-114.2-112.953-198.5 36.539-160.1 239.076-167.2 354.436-94.2 122 77.1 201.71 236.1 149.1 377.2-47.86 128.4-184.72 204-314.845 220.7-242.195 31.1-494.516-52.8-594.516-288.6-103.16-243.3 12.641-578.2 222.344-730.6 162.535-118.1 441.687-155.6 624.187-63.3 141.26 71.5 242.06 201.4 300.65 346-43.9-108.4 55.12-216.5 136.6-269.3 112.91-73.2 262.21-78.9 386.78-31 136.65 52.6 234.78 172.7 294.86 302.5M1340 10779.1c.19-58.5 35.1-113.5 83.03-147.2 47.92-33.6 107.31-47.7 165.8-50 157.55-6 286.69 74 397.13 178.6" class="B"/><path d="M-1300.39 10638.8c220.02 42.1 366.769-171.2 477.499-266.9 109.594-94.6 182.496-171.1 327.352-197.6 82.262-15 173.043-6.3 252.476 26.1 95.551 39.1 141.364 105.2 205.583 178.6-16.574-19 74.266-81.6 89.801-91.9 161.024-106.5 338.618-6.6 435.586 136.3" class="B"/></g></g><g clip-path="url(#o)"><g clip-path="url(#p)" class="C D E F G H I"><path d="M-507.508 2386.6c-226.23 0-83.152-224.92 91.758-204.13 144.16 17.13 260.836 141.74 215.086 271.63-16.293 46.27-47.699 87.13-82.16 124.64-56.766 61.78-132.383 122.34-221.317 142.68-58.297 13.33-104.254-17.09-159.312-23.84-68.524-8.41-102.649 9.95-167.137 25.34-202.68 48.36-395.59-19.71-504.94-179.71-98.32-143.85-75.66-326.69 45.25-455.77 101.5-108.34 215-102.09 355.667-128.43 109.441-20.49 61.988-38.53 101.75-125.38 29.492-64.4 92.418-117.56 158.105-152.94 222.504-119.82 548.492-98.62 704.242 102.49 108.032 139.49 87.914 282.41 5.582 423.76 23.707-40.7 193.625 93.58 216.414 115.25 177.606 168.87 16.266 426.92-143.55 553.62-201.324 159.6-486.68 242.01-752.215 190.62-70.149-13.58-139.399-53.52-212.371-53.96-69.289-.41-142.223 32.02-213.344 38.09-602.58 51.42-1076.65-556-860.23-1048.55 88.85-202.19 280.58-267.55 501.11-308.96 95.72-18 66-104.59 76.17-172.77 12.43-83.41 39.15-166.77 100.49-232.62 186.62-200.36 608.999-197.96 861.237-127.9 201.535 55.98 411.7 144.36 591.071-12.73m797.656 1944.21c-61.399-41.38-18.801-117.77 34.966-151.35 164.15-102.52 415.63 20.18 390.51 200.84-10.07 72.46-57.21 137.44-115.86 188.41-103.87 90.26-263.86 114.29-400.097 76.75-113.925-31.39-178.546-178.85-293.171-155.48-245.391 50.03-407.844-164.83-362.692-360.92 33.488-145.43 138.992-277.61 285.063-349.44 75.699-37.22 161.257-58.14 247.613-61.49 88.168-3.42 159.074 13.28 244.454-2.24 113.06-20.56 211.28-39.19 327.18-14.98 355.7 74.29 609.12 457.93 466.94 768.02-55.19 120.34-232.18 202.99-232.25 330.53-.12 238.81-180.3 439.64-410.75 551.65-167.47 81.41-381.578 94.59-565.707 42.65-128.258-36.18-221.953-107.93-302.64-201.54-75.458-87.55-131.965-219.76-254.856-263.17-114.449-40.43-229.09 2.42-346.402-.95-205.856-5.91-460.789-210.3-365.309-408.94m2523.904-61.34c234.29-139.3 266.21-462.77 44.64-621.54 65.21-94.38 45.2-195.79-52.55-266.66-187.89-136.23-944.635-79.18-900.83-396.24 24.828-179.71 329.31-213.38 478.56-160.62 122.38 43.27 262.48 139.83 401.08 123.9 124.15-14.27 225.07-124.06 217.94-234.84-7.84-121.94-123.72-202.76-251.93-202.76M-426.828 1139.8c172.39 63.31 322.445-59.53 383.758-194.32 81.777-179.785 205.605-313.886 445.816-247.39 338.942 93.836 536.512 478.07 928.424 433.12 115.19-13.21 223.85-78.35 259.25-179.995 32.73-94.004 77.5-170.512 200.24-178.918 245.45-16.813 517.37 251.033 740.77 47.812m-448.55 830.841c43.04-31.01 96.1-38.2 150.38-32.22 60.86 6.71 115.54 39.08 177.15 40.57 40.65.98 94.12 5.99 142.46-46.95 36.89-40.41 9.71-86.2 6.62-129.24-1.37-20.74 55.05-34.81 70.6-46.3 27.97-20.68 47.09-51.41 52.27-83.42 30.5-188.6-262.22-179.04-391.87-136.47-53.75 17.65-166.91 83-82.21 138.39 29.39 19.22 75.37 10.04 106.68-1.08m260.57-198.53c24.27-161.52 167.11-246.071 341.25-252.52 182.58-6.766 362.81 68.633 538.94 101.33 151.77 28.17 414.89 48.26 484.23-116.455-28.87 3.976-47.26 25.32-72.39 37.57-93.08 45.367-267.7-2.391-360.58-34.062-109.67-37.403-210.83-92.09-309.72-147.848-180.22-101.602-375.36-237.301-597.31-245.918-93.68-3.637-184.18 20.121-263.7 63.84-159.24 87.551-232.18 215.308-432.33 214.511" class="B"/><path d="M254.465 3961.08l-98.399.03c-24.3-.41-33.464 3.71-53.996 14.17-19.476 9.93-41.957 10.89-62.718 17.8-69.684 23.18-142.02 56.49-217.602 55.89-41.758-.34-79.363.03-119.695-7.21-21.153-3.79-36.457-5.85-57.168-12.76-22.633-7.55-44.145-14.63-67.235-20.86-44.945-12.11-80.441-33.97-121.226-52.86-16.598-7.69-30.082-19.62-44.614-30.14-7.46-5.4-15.089-11.3-22.5-16.84-15-11.2-14.347-20.31-24.109-33.54-23.836-32.32-74.012-24.97-112.758-25.55-23.965-.35-32.324 7.67-53.816 14.41-24.152 7.57-47.977 9.66-73.453 9.52-48.004-.27-103.395 6.16-150.866.41-22.79-2.76-44.54-11.74-66.93-16.34-22.97-4.72-46.99-10.15-69.08-17.82-88.95-30.88-179.11-95.26-222.54-172.22-20.46-36.27-28.98-66.25-28.59-106.7.21-21.18-7.86-37.53-9.38-57.95-1.4-18.63.32-37.92.33-56.63.04-78.24 35.86-149.21 35.86-228.09 0-38.28-.1-75.35-13.1-111.9-7.16-20.14-13.49-44.01-27.15-60.25-10.93-13-45.48-42.24-13.54-51.64m2608.65-835.19c-228.598-55.95-470.637-135.87-507.586-316.41-34.168-166.93 56.437-261.84 211.644-323.13 60.321-23.82 127.532-36.1 192.852-27.82" class="B"/></g></g><g clip-path="url(#q)"><g clip-path="url(#r)" class="C D E F G H I"><path d="M6271.33 12535c19.93-49.4-44.47-100.4-85.16-114.7-123.5-43.5-249.17 109.6-158.11 215 119.7 138.6 386.74 118.6 513.55 5 104.07-93.3 138.47-280.7 40.62-390.1-68.95-77.2-173.9-75.7-268.96-66.3-90.18 8.9-184.82 10.5-267.06-33.4-73.08-39-126.83-102.3-213.68-113.2-86.29-10.9-195.58 13.1-252.14 83.9-37.75 47.3-48.37 111.8-41.82 171.9 9.22 84.6 76.4 177.1 53.62 262.9-34.36 129.4-226.62 124.2-293.01 236.5-27.72 46.9-33.43 105.6-18.33 157.9 37.59 130.3 175.16 179.7 292.21 214.3 62.84 18.5 122.65 30.5 177.94 66.1 95.25 61.3 190.95 139.4 305.1 169.4 131.04 34.5 260.73-18.5 384.49-58.4 119.36-38.4 248.66-20.5 366.02-62.8 140.24-50.6 251.48-154.4 303.68-294.6 22.83-61.3 22.84-128.3 50.87-187.6 32.03-67.7 83.37-129 148.15-167.7 142.62-85.2 263.75-218.4 325.51-376.1 74.06-189.1 42.45-415.3-65.76-587.1-80.3-127.6-211.16-211.3-356.63-245.3-84.34-19.7-180.89-27.3-266.8-15.8-101.49 13.5-195.46 48.5-299.68 49.2-93.02.6-192.59-18.8-269.73-73.3-96.78-68.5-166.18-168.7-273.48-222.9-132.41-66.9-268.91-66-402.87-4.9-137.25 62.6-245.84 166.4-407.29 155.9-157.07-10.2-282.99-125.1-434.83-156.3-235.23-48.4-529.38 58.6-628.57 290.4-60.46 141.2-101.47 328-255.32 396.5-118.94 53-258.7 37.4-373.16 102.3-112.35 63.7-181.97 193.6-176.84 322.1.58 14.5 1.85 29.8-5.04 42.6m1861.43 714.1c-53.74 98.5-188.56 136-293.37 127.8-94.14-7.3-197.66-61-255.66-135.8-30.04-38.8-48.76-94.2-37.44-145.5 11.92-54 70.53-89.6 68.5-147.4-2.44-69.3-96.39-87.5-146.78-107.6-72.65-29-129.87-77.1-144.36-158.6-11.62-65.5 12.77-140.6 64.16-183.7 74.57-62.5 179.45-41.1 267.64-32.1 120.53 12.3 249.28-7.6 361.65-59.4 103.04-47.5 218.11-118.2 273.08-221.4 60.11-112.9 6.77-258.3-120.38-294.7-125.5-36-216.47 105.6-339.66 100.5-150.21-6.1-113.59-243.3-262.37-261.9-34.5-4.3-69.61 4-101.48 17.9-105.25 46-167.64 142.1-216.84 241.3-51.02 102.9-96.61 221.7-199.84 283.6-133.02 79.8-300.56 48.6-445.68 32.1-134.76-15.4-274.68 58.5-316.19 192.6" class="B"/><path d="M4887.97 12223.6c49-16.8 65.48-89.6 55.71-135.3-44.74-209.1-364.03-123.4-481.64-50.9-118.22 72.8-201.35 178.1-342.71 210.6-179.53 41.2-296.22-115-464.17-141.4-83.74-13.2-144.97 41.3-163.83 61.9m3028.57 495.6c165.19-70.1 425.5-325.4 336.67-640.8-67.67-240.3-377.56-348.4-604.53-229.5" class="B"/></g></g><g clip-path="url(#s)"><g clip-path="url(#t)" class="C D E F G H I"><path d="M960.129 6246.22c17.816-44.16-39.75-89.77-76.129-102.58-110.398-38.88-222.734 98.06-141.332 192.26 107 123.84 345.712 106.04 459.072 4.45 93.04-83.39 123.79-250.94 36.32-348.76-61.64-68.94-155.46-67.67-240.439-59.24-80.617 7.99-165.215 9.36-238.73-29.86-65.332-34.85-113.379-91.42-191.016-101.21-77.145-9.73-174.84 11.71-225.395 75.05-33.75 42.28-43.246 99.9-37.386 153.68 8.242 75.63 68.297 158.27 47.929 234.99-30.718 115.7-202.582 111.01-261.933 211.43-24.777 41.92-29.879 94.35-16.383 141.14 33.602 116.49 156.578 160.66 261.219 191.55 56.172 16.58 109.637 27.26 159.062 59.08 85.149 54.82 170.696 124.6 272.739 151.44 117.144 30.81 233.073-16.51 343.713-52.16 106.7-34.38 222.29-18.33 327.19-56.17 125.37-45.23 224.81-138 271.48-263.33 20.4-54.81 20.42-114.75 45.47-167.71 28.64-60.54 74.53-115.32 132.44-149.91 127.49-76.15 235.78-195.26 290.98-336.24 66.21-169.07 37.95-371.23-58.78-524.84-71.79-114.01-188.77-188.85-318.81-219.27-75.39-17.64-161.7-24.4-238.49-14.15-90.73 12.11-174.73 43.36-267.91 44-83.15.57-172.15-16.77-241.12-65.54-86.507-61.19-148.546-150.81-244.468-199.27-118.367-59.8-240.387-58.93-360.137-4.32-122.695 55.95-219.765 148.7-364.097 139.33-140.402-9.12-252.972-111.79-388.707-139.71-210.281-43.26-473.234 52.43-561.898 259.59-54.043 126.27-90.707 293.22-228.242 354.47-106.33 47.36-231.26 33.44-333.58 91.44-100.44 56.93-162.67 173.04-158.08 287.92.51 12.93 1.65 26.67-4.51 38.05M74.172 6680.21c-48.043 88.11-168.559 121.56-262.262 114.27-84.148-6.54-176.691-54.56-228.539-121.45-26.848-34.64-43.59-84.16-33.469-130.01 10.657-48.27 63.047-80.09 61.235-131.82-2.176-61.9-86.164-78.2-131.211-96.19-64.946-25.93-116.098-68.87-129.043-141.77-10.399-58.54 11.41-125.67 57.351-164.17 66.661-55.86 160.414-36.71 239.25-28.68 107.75 10.98 222.84-6.83 323.289-53.13 92.117-42.46 194.981-105.69 244.118-197.96 53.734-100.9 6.054-230.87-107.614-263.44-112.187-32.15-193.504 94.42-303.632 89.91-134.274-5.5-101.543-217.51-234.54-234.15-30.839-3.86-62.23 3.61-90.718 16.04-94.09 41.07-149.86 127.01-193.84 215.68-45.61 91.96-86.363 198.13-178.645 253.51-118.912 71.37-268.682 43.46-398.412 28.68-120.46-13.73-245.54 52.35-282.65 172.16m2757.49 353.95c147.68-62.65 380.37-290.87 300.97-572.82-60.5-214.81-337.51-311.46-540.413-205.19" class="B"/></g></g><g clip-path="url(#u)"><g clip-path="url(#v)" class="C D E F G H I"><path d="M9034.06 8241.4c-16.28-.26-29.13 13.99-36.35 28.59-36.54 73.81 18.31 162.71 92.05 184.56 235.75 69.84 480.12-300.33 260.21-456.33-52.75-37.42-112.68-65.67-176.34-77.08-70.3-12.59-169.57-5.51-229.01 39.73-12.31 9.37-21.31 24.86-28.15 38.71-26.64 53.95-79.38-12.55-137.64-12.87-106.69-.59-200 48.18-266.26 128.92-51.66 62.94-79.53 163.06-86.4 242.65-17.6 203.98 168.34 324.72 354.99 271.25 10.5-3.01 14.69-10.64 24.1-14.27.33 20.71-12.88 42.05-17.5 61.64-43.03 182.48 126.27 312.61 278.48 366.94 196.49 70.14 430.26 13.66 598.48-104.24 85.25-59.75 159.06-139.24 201.78-234.97 21.44-48.04 34.73-99.53 38.21-152.06 2.68-40.56-12.1-73.72-17.01-112.59-6.56-51.89 8.73-48.85 44.77-88.1 92.03-100.18 135.23-245.2 119.13-379.53-13.5-112.02-67.78-218.69-150.45-295.47m-645 1421.51c-18.12 289.55 319.3 401.76 550.87 407.36 467.98 11.33 883.58-502.16 739.28-955.45m-30.8 561.68h-10.8c20.8.23 39.2 5.62 59.8 6.4 156.1 5.94 325.1-43.43 426.7-168.73 59.9-73.91 81.8-171.25 75.6-264.83-6.8-101.15-54.3-169.77-92.2-258.42 14.5-9.55 25.1-3.71 42.4-5.42 79.5-7.9 146.5-67.49 185.9-133.93 79.2-133.33 108.6-378.36-137.9-424.9m-2539.13 216.11c-64.29 49.5-140.31 85.49-220.87 95.13-80.56 9.63-165.67-8.61-230.44-57.47-76.01-57.34-104.92-144.28-103.25-236.56.99-54.45 10.9-111.39 42.64-156.86-101.33 145.17-340.69 200.51-505.12 172.78-192.96-32.55-410.38-185.64-437-392.05-15.86-122.96 30.57-262.85 160.76-300.28-52.25 30.48-87.22 86.83-96.66 146.58-7.69 48.63 1.23 100.81 29.86 140.87 44.86 62.77 130.3 85.61 206.87 76.1 185.23-23.03 321.89-147.76 453.66-267.69 148.48-135.13 327.46-260.07 532.32-282.39 210.81-22.97 352.47 89.49 457.29 257.68m-195.35-248.35c107.84-79.93 192.38-120.74 302.25-132.1 324.45-33.53 692.75 39.75 931.08 276.58 78.26 77.77 136.54 175.95 212.99 256.73m-221.69-329.76c70.23-43.77 159.59-25.62 232.69.53 246.5 88.17 457.1 293.83 526.8 549.25 42.1 154.46 32.3 333.52-37.7 478.55-63.1 130.7-182.4 219.58-329.3 229.54M10380 7248.4c114.9-106.02 304.6-126.35 450.3-87.26 122.8 32.95 222.6 111.74 304 206.95 83.8 98.08 126.6 225.1 246.2 290.46 110.6 60.4 296.3 75.42 367.5-52.24 66.1-118.55-71-367.17-205-239.24" class="B"/><path d="M11287.9 8184.25c114.5 50.81 255.5 56.19 372.8 11.36 57.2-21.86 109.9-56.75 146.8-106.13 44.3-59.08 46.4-127.92 73.7-193.84 12.7-30.51 35.2-58.44 66.1-70.01 77.2-28.83 166.2 31.72 234 61.28 26 11.34 53 22.89 81.4 22.55 124.5-1.47 134.6-142.56 223.2-198.32 127.4-80.11 270.2 36.74 380.3 90.84 51 25 109.9 35.63 161.7 6.44l1-10.83c-148.1 9.25-196.5-179.17-303-252.58-96.7-66.59-209.9-66.96-319-33.41-91.5 28.15-183.9 42.29-258.6-28.59-60.1-57.11-92-138.93-133.4-209.15-123-208.31-371.9-307.44-598.6-199.77-160.4 76.15-264.6 268.68-188.1 436.49m-1808.32 586.58s-108.18-808.78-1024.76-494" class="B"/></g></g><g clip-path="url(#w)"><g clip-path="url(#x)"><g clip-path="url(#y)" class="C D E F G H I"><path d="M12193.5 11628.2c-73.6 78.9 2.9 180.5 78.3 219.7 352.6 183.6 565.6-321.7 333.6-564.6-69.9-73.1-166.5-116-265.2-137.8-195.2-43.2-411.4-4.8-567.6 120.1-156.1 125-241.9 339.4-195.4 533.8 28.9 120.9 103.3 225.6 184.1 319.9 101.8 118.8 217.5 200.9 370.4 240.5 303.5 78.5 644.9-11 870.8-228.3 53.7-51.6 102-111.3 125.8-181.9 31.4-92.9 17.3-194.2 3-291.2l16.7 103.9c75.7 470.3 981 188.4 710.2-234-13.8-21.5-38.2-33-55-51.1-8.1-8.8-33.1-25.8-27.5-39.5 10.8-1.6 37.3 10.8 48.9 14.8 10.8 3.8 20.1 9.9 31.2 13.4 188.7 59.2 309-78 401.9-220.4 31.5-48.3 65.5-96.2 111.5-130.9 138.6-104.9 345.6-10.9 458.2 92.2 7.3 6.7 11.7 16.2 18.6 23.4 65.3 67.8 147.6 143 241.4 175.4 87.3 30.2 170-1.8 249.7-37.9 39.7-18 78.7-38.2 120.5-50.9 42.4-12.9 92.2-5.9 130.2-17.9-9.9-20-29.1-25.7-50.8-28.3-92.7-10.9-202.5 34.1-290.6-2.2-74.6-30.8-128.7-82.3-150.6-161.4-21.6-78.1-17.9-195.3-113.1-223.7-14.9-4.5-34.9-1.1-50.4-1.1-46.5.1-104.1 15.7-120.1-45.9-15.2-58.7 25.9-101.2-14.3-156.1-76.8-104.6-251.5-149.7-373.1-117.4-173 45.9-190.7 314.7 15.3 319.4 42.4 1 126.4-28.1 114.2-158.5m-2970 808.1c-130.6-.2-270.1-30.9-374-113.9-120.9-96.6-213.8-274.7-190.3-431.8 11.7-77.7 53.7-150.5 115.2-199.6 132.8-105.7 462.8-101.8 484.8 114.5 17.7 174.1-226.5 269.6-311.1 102.5m-300.3 94.1c-120.9 86.3-296.2 82.1-415.3-5.5-113.1-83.3-150.3-241.1-279.7-306-33.8-16.9-72.3-21.1-109.9-24-82.9-6.5-123.7 29.4-197 54.6-26.7 9.1-50.14 22.6-79.64 23.5-30.19.9-56.52-1.1-85.3-9.5-51.74-15-104.45-21-138.23-69.7 17.48-.5 30.05 13.1 45.86 17.3 112.13 29.8 165.78-57 205.9-146.1 50.71-112.7 112.71-200.6 249.01-208.3 179.1-10.1 293 130.4 444.4 194.8 257 109.3 465.1-159.5 707.3-194.9 133.9-19.6 279.1 11.3 379.6 102" class="B"/><path d="M10699.6 10638.8c220 42.1 366.8-171.2 477.5-266.9 109.6-94.6 182.5-171.1 327.4-197.6 82.2-15 173-6.3 252.4 26.1 95.6 39.1 141.4 105.2 205.6 178.6-16.6-19 74.3-81.6 89.8-91.9 161-106.5 338.6-6.6 435.6 136.3" class="B"/></g></g></g><g clip-path="url(#z)"><g clip-path="url(#AA)"><g clip-path="url(#AB)"><path d="M193.5-371.766c-73.645 78.895 2.941 180.496 78.258 219.707 352.629 183.586 565.676-321.718 333.597-564.66-69.812-73.082-166.421-115.996-265.113-137.808-195.258-43.149-411.476-4.793-567.605 120.156s-241.895 339.324-195.41 533.816c28.875 120.813 103.238 225.582 184.078 319.891 101.781 118.742 217.484 200.894 370.39 240.449 303.485 78.504 644.891-10.976 870.855-228.246 53.66-51.598 101.99-111.379 125.78-181.918 31.33-92.891 17.3-194.199 2.93-291.172l16.73 103.875c75.74 470.293 981.03 188.387 710.17-234.07-13.73-21.426-38.14-32.949-54.91-51.082-8.13-8.789-33.17-25.82-27.58-39.508 10.81-1.551 37.34 10.82 48.92 14.883 10.81 3.797 20.07 9.879 31.19 13.363 188.68 59.168 309.02-78.031 401.89-220.41 31.48-48.258 65.53-96.172 111.48-130.926 138.7-104.887 345.66-10.855 458.24 92.223 7.35 6.726 11.68 16.203 18.6 23.383 65.32 67.816 147.6 142.984 241.39 175.422 87.34 30.207 170.03-1.793 249.7-37.918 39.68-17.993 78.71-38.2 120.55-50.895 42.36-12.852 92.18-5.84 130.13-17.937-9.86-19.926-29.03-25.688-50.73-28.235-92.77-10.894-202.57 34.121-290.62-2.199-74.59-30.77-128.74-82.316-150.62-161.469-21.6-78.082-17.86-195.299-113.07-223.669-14.92-4.45-34.97-1.08-50.4-1.06-46.53.05-104.09 15.71-120.08-45.89-15.23-58.73 25.88-101.24-14.34-156.1-76.75-104.66-251.49-149.74-373.05-117.48-173.09 45.94-190.77 314.79 15.21 319.47 42.48.96 126.4-28.09 114.26-158.55" class="B C D E F G H I"/></g></g></g><g clip-path="url(#AC)"><g clip-path="url(#AD)"><g clip-path="url(#AE)"><g clip-path="url(#AF)"><path d="M12193.5-371.766c-73.6 78.895 2.9 180.496 78.3 219.707 352.6 183.586 565.6-321.718 333.6-564.66-69.9-73.082-166.5-115.996-265.2-137.808-195.2-43.149-411.4-4.793-567.6 120.156-156.1 124.953-241.9 339.324-195.4 533.816 28.9 120.813 103.3 225.582 184.1 319.891 101.8 118.742 217.5 200.894 370.4 240.449 303.5 78.504 644.9-10.976 870.8-228.246 53.7-51.598 102-111.379 125.8-181.918 31.4-92.891 17.3-194.199 3-291.172l16.7 103.875c75.7 470.293 981 188.387 710.2-234.07-13.8-21.426-38.2-32.949-55-51.082-8.1-8.789-33.1-25.82-27.5-39.508 10.8-1.551 37.3 10.82 48.9 14.883 10.8 3.797 20.1 9.879 31.2 13.363 188.7 59.168 309-78.031 401.9-220.41 31.5-48.258 65.5-96.172 111.5-130.926 138.6-104.887 345.6-10.855 458.2 92.223 7.3 6.726 11.7 16.203 18.6 23.383 65.3 67.816 147.6 142.984 241.4 175.422 87.3 30.207 170-1.793 249.7-37.918 39.7-17.993 78.7-38.2 120.5-50.895 42.4-12.852 92.2-5.84 130.2-17.937-9.9-19.926-29.1-25.688-50.8-28.235-92.7-10.894-202.5 34.121-290.6-2.199-74.6-30.77-128.7-82.316-150.6-161.469-21.6-78.082-17.9-195.299-113.1-223.669-14.9-4.45-34.9-1.08-50.4-1.06-46.5.05-104.1 15.71-120.1-45.89-15.2-58.73 25.9-101.24-14.3-156.1-76.8-104.66-251.5-149.74-373.1-117.48-173 45.94-190.7 314.79 15.3 319.47 42.4.96 126.4-28.09 114.2-158.55" class="B C D E F G H I"/></g></g></g></g><g clip-path="url(#AG)"><g clip-path="url(#AH)" class="C D E F G H I"><path d="M9365.71 1208.97c186.7-21.42 149.3 242.86-7.17 269.5-155.55 26.47-296.79-58.63-360.68-198.56-54.41-119.18-38.88-263.37 83.44-332.316 75.89-42.778 144.89-26.133 223.18-17.684 47.23 5.102 72.49-33.191 109.41-54.387 93.57-53.714 205.99-40.488 293.56 19.993 194 133.974 222.24 510.794-46.58 574.254m209.08-229.32c190.05 412.51-297.11 723.91-627.49 547.6-42.56-22.72-79.64 3.78-121.37 13.79-50.89 12.19-106.18 13.3-158.09 8.83-300.94-25.91-543.78-319.93-576.22-584.12m588.63-171.49c-78.79-199.306-16.43-467.04 150.01-618.697 202.6-184.601 520.57-166.422 746.57-37.543 109.77 62.598 208.81 143.11 326.01 192.356 131.9 55.39 275.1 66.914 406.1 5.961 143.5-66.758 259.2-199.938 421.9-223.266 63.9-9.16 133.7 4.375 180.8 48.414v-.113c-1.4-84.957-113.1-178.922-183.4-209.961-163.6-72.203-299 22.469-453.1 67.363-146.8 42.735-309.9 21.711-445.9-45.761-175.37-86.95-320.89-224.512-500.99-303.594C9056.88-318.527 8226.9 86.641 8165.4 732.824c-16.73 175.903 40.61 410.296 200.36 470.996 101.66 38.63 264.82 20.92 315.63-90.36 53.83-117.886-59.17-247.468-176.44-257.308-65.76-5.519-142.1 49.203-127.44 129.379" class="B"/><path d="M9239.6 906.738c-75.72-188.461 90.12-340.75 251.29-404.191 233.16-91.777 465.38 7.676 689.61 79.746m-1792.72 316.77S8384.11-71.512 9398.8 5.695" class="B"/></g></g><g clip-path="url(#AI)" class="G H"><g class="C D E F I"><path d="M6223.99 9287.64c167.47 147.38 321.55-113.88 153.49-201.11-77.67-40.32-173.51 7.94-227.22 43.75-70.05 46.7-173.21-9.65-249.45 30.42-94.32 49.56-120.87 194.97-69.06 282.74 57.09 96.72 169.89 56.73 261.09 84.48 59.19 18.01 90.54 66.86 144.2 92.95 175.83 85.51 328.6-35.83 425.28-128.93 45.3-43.62 116.87-35.98 173.08-53.34 136.59-42.19 185.07-255.45 82.28-352.16-46.49-43.74-106.23-64.18-158.1-99.68-79.66-54.51-86.51-162.91-158.89-222.82-83.52-69.12-190-47.45-284.96-21.78-152.03 41.1-273.97.03-418.47-38.88-262.64-70.74-570.73 190.57-393.47 417.57-151.54 89.11-215.77 266.36-151.04 432.45 50.11 128.57 185.19 246.59 342.98 250.28 84.23 1.96 56.59 13.06 66.36 85.53 38.36 284.29 566.85 375.99 670.35 96.74 48.77 16.85 89.49 62.55 144.33 78.15 60.29 17.2 124.67 20.4 186.21 8.1 104-20.7 236.26-92.33 270.74-199.97 9.24-28.82 10.63-59.47 11.96-89.71 4.73-108.38-11.38-201.12 98.48-260.81 97.65-53.05 205.7-115.62 245.03-226.36 55.8-157.15-62.38-255.01-200.45-290.93m-112.83 809.9c51.49-.49 109.03-3.96 151.93-35.88 43.86-32.63 50.95-90.24 90.26-125.46 53.83-48.23 142.7-24.33 207.2-22.17 115.88 3.87 193.56-63.98 210.18-177.63 17.01-116.43-17.09-242.44 55.09-345.81 19.95-28.57 48.47-52.27 82.2-61.07 49.71-12.96 106.83 8.24 143.1 42.9" class="B"/><path d="M6483.28 8718.48c60.87-60.87 183.87-89.9 261.4-75.19 168.45 31.94 289.1 222.12 472.7 175.16 54.4-13.92 103.67-43.85 159.29-55.12 73.37-14.85 155.57-5.44 211.89 47.69 34.98 32.99 51.1 91.21 99.31 108.75 55.82 20.31 90.9-24.7 129.07-55.12 31.09-24.78 68.53-41.77 107.69-48.67 154.46-27.22 301.32 98.29 347.7 237.75 36.51 109.75-2.14 254.84 80.77 347.56 19.16 21.44 43 21.68 68.85 29.9-27.41 2.56-49.32 3.24-74.85-6.39-53.7-20.25-77.28-83.97-101.3-131.28-24.85-48.94-60.98-92.27-118.44-100.07-54.41-7.39-96.54 26.96-143.73 47.5-92.14 40.11-147.7-40.85-214.84-85.61" class="B"/></g><g stroke-width="40"><path d="M5744.08 5794.36c-122.71-42.58-137.3 141.31-35.77 182.85 100.92 41.3 209.01 5.18 273.19-79.58 54.66-72.19 65.92-171.79-6.2-236.72-44.74-40.29-93.8-39.46-147.87-45.56-32.63-3.67-43.9-33.31-65.61-53.17-55.02-50.33-132.84-58.34-201.02-30.75-151.04 61.14-226.87 311.05-55.11 394.36m-106.47-186.18c-190.34 249.61 91.32 533.04 340.73 463.9 32.14-8.9 53.15 14.56 79.79 27.59 32.49 15.9 69.61 24.98 105.3 29.79 206.89 27.86 414.99-133.86 476.68-307.17m-371.19-204.37c83.17-122.56 81.45-312.54-7.96-439.92-108.84-155.04-326.05-190.69-497.91-137.81-83.48 25.68-162.41 65.06-248.9 80.62-97.27 17.49-195.6 3.69-274.8-57.17-86.73-66.65-144.71-173.91-250.94-214.17-41.7-15.8-90.8-17.18-129.24 5.42l.01-.08c13.76-57.09 103.23-103.65 155.35-113.98 121.24-24.05 198.29 60.2 295.5 113.71 92.53 50.94 205.71 61.33 307.66 36.32 131.36-32.22 250.24-103.08 383.64-129.29 419.61-82.41 918.38 315.93 862.49 761.05-15.21 121.17-89.21 270.63-206.11 287.5-74.39 10.74-181.77-25.79-199.28-108.5-18.54-87.63 77.2-158.01 157.78-146.97 45.19 6.18 88.44 54.59 66.47 106.47" class="B C D E F"/><path d="M5874.67 5609.5c79.48-115.71-9.43-243.42-108.58-310.49-143.44-97.04-315.06-64.95-477.16-50.12m1161.46 483.78s148.72-654.1-547.32-754.92" class="B C D E F"/></g></g><g clip-path="url(#AJ)"><g clip-path="url(#AK)"><path d="M99.648 9337.58c-15.094 1.71-40.434 3.36-45.883 20.8-3.098 9.91.449 21.03 7.055 29.05 39.614 48.1 118.278 41.95 168.594 16.37 57.738-29.35 94.988-125.12-2.84-119.6-35.769 2.02-55.926-22.23-79.562-44.38-29.43-27.58-66.223-42.7-106.891-42.15-40.207.54-79.414 15.7-112.328 38.8-20.238 14.21-35.426 34.91-42.527 58.66-7.907 26.45 1.265 54.87-7.907 80.74-10.843 30.6-42.754 30.25-63.05 50.66-17.614 17.71-30.817 41.98-28.266 67.65 5.152 51.87 78.18 88.37 124.758 70.75 33.668-12.74 68.867-28.58 104.688-33.72 69.816-10.02 96.723 54.51 157.934 68.4 64.238 14.59 138.062 10.44 193.855-30.04 26.196-19.01 42.789-47.28 64.512-70.67 36.746-39.56 92.047-52.97 135.113-83.68 60.985-43.48 93.852-132.34 63.692-204.2-36.676-87.37-142.86-90.93-221.809-67.27-56.062 16.81-177.805 27.85-235.363 9.91-71.113-22.16-142.266-66.88-219.281-60.5-82.067 6.8-139.543 52.61-201.297 102.31-42.407 34.13-132.383 27.95-181.461 49.86-50.125 22.39-76.192 59.41-104.055 106.54-49.805 84.23 12.512 233.88 112.734 262.63 35.61 10.21 75.895 10.6 110.243 27.23 35.699 17.29 58.496 39.96 85.379 68.37 42.746 45.17 103.621 72.13 165.949 71.6 48.828-.42 94.785-16.3 141.004-30.08 73.066-21.78 151.449-33.11 224.867-6.35 44.644 16.26 79.766 44.89 128.363 51.34 119.031 15.81 193.801-115.54 292.516-162.31 117.859-55.84 287.257 2.79 349.457-137.17 12.56-28.27 16.99-61.23 9.58-91.5-14.02-57.3-78.55-70.79-117.783-105.24-50.34-44.2-36.219-91.2-25.356-149.45 7.164-38.42 9.321-87.05-10.914-121.84-9.344-16.07-23.597-28.86-39.324-38.76-50.789-31.98-98.75-20.07-154.27-15.51-55.457 4.54-114.828 2.02-169.953-11.94-49.496-12.53-92.886-40.97-131.836-73.15-45.722-37.78-77.148-79.45-139.16-91.97-78.687-15.89-150.734 13.34-216.445 54.51-58.555 36.68-115.73 78.08-184.84 91.79-77.176 15.3-156.32 10.32-234.125 3.35-75.32-6.74-147.211-16.67-215.699 24.11-66.02 39.31-117.512 108.95-129.117 185.53-13.774 90.85 5.035 202.24 133.867 274.09" class="B C D E F G H I"/></g></g><g clip-path="url(#AL)"><g clip-path="url(#AM)"><path d="M12099.6 9337.58c-15 1.71-40.4 3.36-45.8 20.8-3.1 9.91.4 21.03 7 29.05 39.6 48.1 118.3 41.95 168.6 16.37 57.8-29.35 95-125.12-2.8-119.6-35.8 2.02-56-22.23-79.6-44.38-29.4-27.58-66.2-42.7-106.9-42.15-40.2.54-79.4 15.7-112.3 38.8-20.2 14.21-35.4 34.91-42.5 58.66-7.9 26.45 1.2 54.87-7.9 80.74-10.9 30.6-42.8 30.25-63.1 50.66-17.6 17.71-30.8 41.98-28.3 67.65 5.2 51.87 78.2 88.37 124.8 70.75 33.7-12.74 68.9-28.58 104.7-33.72 69.8-10.02 96.7 54.51 157.9 68.4 64.3 14.59 138.1 10.44 193.9-30.04 26.2-19.01 42.8-47.28 64.5-70.67 36.7-39.56 92-52.97 135.1-83.68 61-43.48 93.9-132.34 63.7-204.2-36.7-87.37-142.9-90.93-221.8-67.27-56.1 16.81-177.8 27.85-235.4 9.91-71.1-22.16-142.2-66.88-219.3-60.5-82 6.8-139.5 52.61-201.3 102.31-42.4 34.13-132.3 27.95-181.4 49.86-50.1 22.39-76.2 59.41-104.1 106.54-49.8 84.23 12.5 233.88 112.8 262.63 35.6 10.21 75.9 10.6 110.2 27.23 35.7 17.29 58.5 39.96 85.4 68.37 42.7 45.17 103.6 72.13 165.9 71.6 48.9-.42 94.8-16.3 141-30.08 73.1-21.78 151.5-33.11 224.9-6.35 44.6 16.26 79.8 44.89 128.4 51.34 119 15.81 193.8-115.54 292.5-162.31 117.8-55.84 287.2 2.79 349.4-137.17 12.6-28.27 17-61.23 9.6-91.5-14-57.3-78.5-70.79-117.8-105.24-50.3-44.2-36.2-91.2-25.3-149.45 7.1-38.42 9.3-87.05-10.9-121.84-9.4-16.07-23.6-28.86-39.4-38.76-50.7-31.98-98.7-20.07-154.2-15.51-55.5 4.54-114.9 2.02-170-11.94-49.5-12.53-92.9-40.97-131.8-73.15-45.7-37.78-77.2-79.45-139.2-91.97-78.7-15.89-150.7 13.34-216.4 54.51-58.6 36.68-115.8 78.08-184.9 91.79-77.1 15.3-156.3 10.32-234.1 3.35-75.3-6.74-147.2-16.67-215.7 24.11-66 39.31-117.5 108.95-129.1 185.53-13.8 90.85 5 202.24 133.9 274.09" class="B C D E F G H I"/></g></g><g clip-path="url(#AN)"><g clip-path="url(#AO)" class="C D E F G H I"><path d="M-507.008 2386.6c-226.23 0-83.152-224.92 91.758-204.13 144.164 17.13 260.836 141.74 215.086 271.63-16.293 46.27-47.699 87.13-82.16 124.64-56.766 61.78-132.383 122.34-221.317 142.68-58.293 13.33-104.254-17.09-159.312-23.84-68.524-8.41-102.649 9.95-167.137 25.34-202.68 48.36-395.6-19.71-504.94-179.71-98.32-143.85-75.66-326.69 45.25-455.77 101.5-108.34 215-102.09 355.667-128.43 109.441-20.49 61.988-38.53 101.75-125.38 29.492-64.4 92.414-117.56 158.105-152.94 222.504-119.82 548.492-98.62 704.242 102.49 108.032 139.49 87.914 282.41 5.582 423.76 23.707-40.7 193.625 93.58 216.418 115.25 177.602 168.87 16.262 426.92-143.55 553.62-201.328 159.6-486.684 242.01-752.219 190.62-70.149-13.58-139.399-53.52-212.371-53.96-69.289-.41-142.223 32.02-213.344 38.09-602.57 51.42-1076.65-556-860.23-1048.55 88.85-202.19 280.58-267.55 501.11-308.96 95.72-18 66-104.59 76.17-172.77 12.43-83.41 39.15-166.77 100.49-232.62 186.62-200.36 608.999-197.96 861.237-127.9 201.535 55.98 411.7 144.36 591.071-12.73m797.66 1944.21c-61.403-41.38-18.805-117.77 34.962-151.35 164.15-102.52 415.63 20.18 390.51 200.84-10.07 72.46-57.21 137.44-115.86 188.41-103.87 90.26-263.86 114.29-400.097 76.75-113.925-31.39-178.546-178.85-293.171-155.48-245.387 50.03-407.844-164.83-362.692-360.92 33.485-145.43 138.992-277.61 285.063-349.44 75.695-37.22 161.257-58.14 247.613-61.49 88.168-3.42 159.074 13.28 244.454-2.24 113.06-20.56 211.28-39.19 327.18-14.98 355.7 74.29 609.12 457.93 466.94 768.02-55.18 120.34-232.18 202.99-232.25 330.53-.12 238.81-180.3 439.64-410.74 551.65-167.48 81.41-381.588 94.59-565.717 42.65-128.258-36.18-221.953-107.93-302.64-201.54-75.458-87.55-131.965-219.76-254.86-263.17-114.445-40.43-229.086 2.42-346.398-.95-205.856-5.91-460.789-210.3-365.309-408.94m228.676-2139.79c172.39 63.31 322.445-59.53 383.758-194.32 81.773-179.785 205.601-313.886 445.816-247.39 338.942 93.836 536.512 478.07 928.424 433.12 115.19-13.21 223.85-78.35 259.24-179.995 32.74-94.004 77.51-170.512 200.26-178.918 245.44-16.813 517.36 251.033 740.76 47.812" class="B"/><path d="M254.965 3961.08l-98.399.03c-24.3-.41-33.464 3.71-53.996 14.17-19.476 9.93-41.957 10.89-62.718 17.8-69.684 23.18-142.02 56.49-217.606 55.89-41.754-.34-79.363.03-119.691-7.21-21.153-3.79-36.457-5.85-57.168-12.76-22.633-7.55-44.145-14.63-67.235-20.86-44.945-12.11-80.441-33.97-121.226-52.86-19.149-8.87-41.321-24.11-57.547-37.72-18.414-15.44-27.102-39.63-46.473-54.07-11.914-8.88-26.902-12.58-41.656-14.35-65.383-7.82-134.281 19.92-199.93 24.28-131.53 8.76-269.36-14.95-381.23-87.94-82.65-53.93-124.14-125.83-142.36-221.5-10.85-56.98-12.59-115.7-5.07-173.23 15.58-119.25 53.48-292.23-34.46-397.37" class="B"/></g></g><g clip-path="url(#AP)"><g clip-path="url(#AQ)" class="C D E F G H I"><path d="M960.629 6246.22c17.816-44.16-39.75-89.77-76.129-102.58-110.398-38.88-222.734 98.06-141.336 192.26 107.004 123.84 345.716 106.04 459.076 4.45 93.04-83.39 123.79-250.94 36.32-348.76-61.64-68.94-155.46-67.67-240.439-59.24-80.617 7.99-165.215 9.36-238.73-29.86-65.332-34.85-113.379-91.42-191.016-101.21-77.145-9.73-174.84 11.71-225.395 75.05-33.75 42.28-43.246 99.9-37.386 153.68 8.242 75.63 68.297 158.27 47.929 234.99-30.718 115.7-202.582 111.01-261.937 211.43-24.773 41.92-29.875 94.35-16.379 141.14 33.602 116.49 156.578 160.66 261.219 191.55 56.172 16.58 109.637 27.26 159.062 59.08 85.149 54.82 170.696 124.6 272.735 151.44 117.148 30.81 233.077-16.51 343.717-52.16 106.7-34.38 222.29-18.33 327.2-56.17 125.37-45.23 224.8-138 271.47-263.33 20.4-54.81 20.42-114.75 45.47-167.71 28.64-60.54 74.53-115.32 132.44-149.91 127.5-76.15 235.78-195.26 290.98-336.24 66.21-169.07 37.95-371.23-58.78-524.84-71.79-114.01-188.77-188.85-318.81-219.27-75.39-17.64-161.7-24.4-238.49-14.15-90.73 12.11-174.74 43.36-267.91 44-83.15.57-172.15-16.77-241.12-65.54-86.507-61.19-148.546-150.81-244.468-199.27-118.367-59.8-240.387-58.93-360.137-4.32-122.695 55.95-219.765 148.7-364.097 139.33-140.406-9.12-252.972-111.79-388.707-139.71-210.281-43.26-473.23 52.43-561.894 259.59-54.047 126.27-90.711 293.22-228.236 354.47-106.34 47.36-231.27 33.44-333.59 91.44-100.44 56.93-162.67 173.04-158.08 287.92.51 12.93 1.65 26.67-4.51 38.05M74.668 6680.21c-48.039 88.11-168.555 121.56-262.258 114.27-84.148-6.54-176.691-54.56-228.539-121.45-26.848-34.64-43.59-84.16-33.469-130.01 10.657-48.27 63.047-80.09 61.235-131.82-2.176-61.9-86.164-78.2-131.211-96.19-64.946-25.93-116.098-68.87-129.043-141.77-10.395-58.54 11.41-125.67 57.351-164.17 66.657-55.86 160.414-36.71 239.25-28.68 107.75 10.98 222.84-6.83 323.289-53.13 92.117-42.46 194.981-105.69 244.118-197.96 53.734-100.9 6.054-230.87-107.614-263.44-112.187-32.15-193.504 94.42-303.632 89.91-134.27-5.5-101.543-217.51-234.54-234.15-30.839-3.86-62.23 3.61-90.718 16.04-94.09 41.07-149.86 127.01-193.84 215.68-45.61 91.96-86.363 198.13-178.645 253.51-118.912 71.37-268.682 43.46-398.412 28.68-120.46-13.73-245.54 52.35-282.65 172.16" class="B"/></g></g><g clip-path="url(#AR)"><g clip-path="url(#AS)"><path d="M-711.645 8184.25c114.504 50.81 255.579 56.19 372.848 11.36 57.168-21.86 109.852-56.75 146.824-106.13 44.239-59.08 46.395-127.92 73.7-193.84 12.632-30.51 35.175-58.44 66.109-70.01 77.149-28.83 166.133 31.72 233.973 61.28 26.023 11.34 53.039 22.89 81.437 22.55 124.418-1.47 134.52-142.56 223.156-198.32 127.368-80.11 270.161 36.74 380.344 90.84 50.91 25 109.883 35.63 161.654 6.44l1.03-10.83c-148.137 9.25-196.492-179.17-303.075-252.58-96.695-66.59-209.878-66.96-318.96-33.41-91.532 28.15-183.926 42.29-258.575-28.59-60.148-57.11-92-138.93-133.441-209.15-122.949-208.31-371.918-307.44-598.617-199.77-160.356 76.15-264.543 268.68-188.086 436.49" class="B C D E F G H I"/></g></g><g clip-path="url(#AT)"><g clip-path="url(#AU)"><g clip-path="url(#AV)" class="C D E F G H I"><path d="M194 11628.2c-73.645 78.9 2.941 180.5 78.258 219.7 352.629 183.6 565.676-321.7 333.597-564.6-69.812-73.1-166.421-116-265.113-137.8-195.258-43.2-411.476-4.8-567.605 120.1-156.129 125-241.895 339.4-195.41 533.8 28.875 120.9 103.238 225.6 184.078 319.9 101.781 118.8 217.48 200.9 370.39 240.5 303.485 78.5 644.891-11 870.855-228.3 53.66-51.6 101.99-111.3 125.78-181.9 31.33-92.9 17.3-194.2 2.93-291.2l16.73 103.9c75.75 470.3 981.03 188.4 710.17-234-13.73-21.5-38.14-33-54.91-51.1-8.13-8.8-33.17-25.8-27.58-39.5 10.81-1.6 37.34 10.8 48.92 14.8 10.82 3.8 20.07 9.9 31.19 13.4 188.68 59.2 309.02-78 401.89-220.4 31.48-48.3 65.53-96.2 111.48-130.9 138.7-104.9 345.65-10.9 458.24 92.2 7.35 6.7 11.68 16.2 18.6 23.4 65.32 67.8 147.6 143 241.39 175.4 87.34 30.2 170.03-1.8 249.7-37.9 39.68-18 78.71-38.2 120.56-50.9 42.35-12.9 92.17-5.9 130.12-17.9-9.86-20-29.03-25.7-50.73-28.3-92.77-10.9-202.57 34.1-290.62-2.2-74.59-30.8-128.74-82.3-150.62-161.4-21.59-78.1-17.86-195.3-113.08-223.7-14.91-4.5-34.96-1.1-50.39-1.1-46.53.1-104.09 15.7-120.08-45.9-15.23-58.7 25.88-101.2-14.34-156.1-76.75-104.6-251.49-149.7-373.05-117.4-173.09 45.9-190.77 314.7 15.21 319.4 42.48 1 126.4-28.1 114.26-158.5m-3854.71-84.9c220.02 42.1 366.769-171.2 477.499-266.9 109.59-94.6 182.496-171.1 327.348-197.6 82.266-15 173.047-6.3 252.48 26.1 95.547 39.1 141.364 105.2 205.583 178.6-16.574-19 74.266-81.6 89.801-91.9 161.024-106.5 338.618-6.6 435.586 136.3" class="B"/></g></g></g><g clip-path="url(#AW)"><g clip-path="url(#AX)"><g clip-path="url(#AY)"><g clip-path="url(#AZ)"><path d="M194-371.766c-73.645 78.895 2.941 180.496 78.258 219.707 352.629 183.586 565.676-321.718 333.597-564.66-69.812-73.082-166.421-115.996-265.113-137.808-195.258-43.149-411.476-4.793-567.605 120.156s-241.895 339.324-195.41 533.816c28.875 120.813 103.238 225.582 184.078 319.891 101.781 118.742 217.48 200.894 370.39 240.449 303.485 78.504 644.891-10.976 870.855-228.246 53.66-51.598 101.99-111.379 125.78-181.918 31.33-92.891 17.3-194.199 2.93-291.172l16.73 103.875c75.75 470.293 981.03 188.387 710.17-234.07-13.73-21.426-38.14-32.949-54.91-51.082-8.13-8.789-33.17-25.82-27.58-39.508 10.81-1.551 37.34 10.82 48.92 14.883 10.82 3.797 20.07 9.879 31.19 13.363 188.68 59.168 309.02-78.031 401.89-220.41 31.48-48.258 65.53-96.172 111.48-130.926 138.7-104.887 345.65-10.855 458.24 92.223 7.35 6.726 11.68 16.203 18.6 23.383 65.32 67.816 147.6 142.984 241.39 175.422 87.34 30.207 170.03-1.793 249.7-37.918 39.68-17.993 78.71-38.2 120.56-50.895 42.35-12.852 92.17-5.84 130.12-17.937-9.86-19.926-29.03-25.688-50.73-28.235-92.77-10.894-202.57 34.121-290.62-2.199-74.59-30.77-128.74-82.316-150.62-161.469-21.59-78.082-17.86-195.299-113.08-223.669-14.91-4.45-34.96-1.08-50.39-1.06-46.53.05-104.09 15.71-120.08-45.89-15.23-58.73 25.88-101.24-14.34-156.1-76.75-104.66-251.49-149.74-373.05-117.48-173.09 45.94-190.77 314.79 15.21 319.47 42.48.96 126.4-28.09 114.26-158.55" class="B C D E F G H I"/></g></g></g></g><g clip-path="url(#Aa)"><g clip-path="url(#Ab)"><path d="M100.148 9337.58c-15.093 1.71-40.437 3.36-45.882 20.8-3.094 9.91.449 21.03 7.055 29.05 39.614 48.1 118.278 41.95 168.594 16.37 57.738-29.35 94.984-125.12-2.84-119.6-35.773 2.02-55.926-22.23-79.562-44.38-29.434-27.58-66.223-42.7-106.887-42.15-40.211.54-79.418 15.7-112.328 38.8-20.242 14.21-35.43 34.91-42.531 58.66-7.907 26.45 1.265 54.87-7.907 80.74-10.843 30.6-42.754 30.25-63.05 50.66-17.614 17.71-30.817 41.98-28.266 67.65 5.152 51.87 78.18 88.37 124.762 70.75 33.664-12.74 68.867-28.58 104.68-33.72 69.82-10.02 96.731 54.51 157.938 68.4 64.238 14.59 138.062 10.44 193.855-30.04 26.196-19.01 42.789-47.28 64.512-70.67 36.746-39.56 92.047-52.97 135.113-83.68 60.985-43.48 93.852-132.34 63.692-204.2-36.672-87.37-142.86-90.93-221.809-67.27-56.062 16.81-177.805 27.85-235.363 9.91-71.113-22.16-142.266-66.88-219.281-60.5-82.067 6.8-139.543 52.61-201.297 102.31-42.407 34.13-132.383 27.95-181.461 49.86-50.125 22.39-76.192 59.41-104.055 106.54-49.805 84.23 12.508 233.88 112.734 262.63 35.61 10.21 75.895 10.6 110.243 27.23 35.699 17.29 58.496 39.96 85.379 68.37 42.746 45.17 103.621 72.13 165.949 71.6 48.828-.42 94.781-16.3 141.004-30.08 73.066-21.78 151.449-33.11 224.867-6.35 44.644 16.26 79.769 44.89 128.363 51.34 119.031 15.81 193.801-115.54 292.516-162.31 117.859-55.84 287.257 2.79 349.457-137.17 12.56-28.27 16.99-61.23 9.58-91.5-14.02-57.3-78.55-70.79-117.783-105.24-50.34-44.2-36.219-91.2-25.356-149.45 7.164-38.42 9.321-87.05-10.914-121.84-9.344-16.07-23.594-28.86-39.324-38.76-50.789-31.98-98.75-20.07-154.27-15.51-55.457 4.54-114.828 2.02-169.953-11.94-49.496-12.53-92.886-40.97-131.832-73.15-45.726-37.78-77.152-79.45-139.168-91.97-78.683-15.89-150.73 13.34-216.441 54.51-58.555 36.68-115.73 78.08-184.84 91.79-77.176 15.3-156.32 10.32-234.125 3.35-75.32-6.74-147.211-16.67-215.699 24.11-66.02 39.31-117.512 108.95-129.117 185.53-13.774 90.85 5.035 202.24 133.867 274.09" class="B C D E F G H I"/></g></g><g clip-path="url(#Ac)"><g clip-path="url(#Ad)"><g clip-path="url(#Ae)"><path d="M12193 11627.7c-73.6 78.9 2.9 180.5 78.3 219.7 352.6 183.6 565.6-321.7 333.6-564.6-69.9-73.1-166.5-116-265.2-137.8-195.2-43.2-411.4-4.8-567.6 120.1-156.1 125-241.9 339.4-195.4 533.8 28.9 120.9 103.3 225.6 184.1 319.9 101.8 118.8 217.5 200.9 370.4 240.5 303.5 78.5 644.9-11 870.8-228.3 53.7-51.6 102-111.3 125.8-181.9 31.4-92.9 17.3-194.2 3-291.2l16.7 103.9c75.7 470.3 981 188.4 710.2-234-13.8-21.5-38.2-33-55-51.1-8.1-8.8-33.1-25.8-27.5-39.5 10.8-1.6 37.3 10.8 48.9 14.8 10.8 3.8 20.1 9.9 31.2 13.4 188.7 59.2 309-78 401.9-220.4 31.4-48.3 65.5-96.2 111.4-130.9 138.7-104.9 345.7-10.9 458.3 92.2 7.3 6.7 11.7 16.2 18.6 23.4 65.3 67.8 147.6 143 241.4 175.4 87.3 30.2 170-1.8 249.7-37.9 39.7-18 78.7-38.2 120.5-50.9 42.4-12.9 92.2-5.9 130.2-17.9-9.9-20-29.1-25.7-50.8-28.3-92.7-10.9-202.5 34.1-290.6-2.2-74.6-30.8-128.7-82.3-150.6-161.4-21.6-78.1-17.9-195.3-113.1-223.7-14.9-4.5-34.9-1.1-50.4-1.1-46.5.1-104.1 15.7-120.1-45.9-15.2-58.7 25.9-101.2-14.3-156.1-76.8-104.6-251.5-149.7-373.1-117.4-173 45.9-190.7 314.7 15.3 319.4 42.4 1 126.4-28.1 114.2-158.5" class="B C D E F G H I"/></g></g></g><g clip-path="url(#Af)"><g clip-path="url(#Ag)" class="C D E F G H I"><path d="M6271.33 12534.5c19.93-49.4-44.47-100.4-85.16-114.7-123.5-43.5-249.17 109.6-158.11 215 119.7 138.6 386.74 118.6 513.55 5 104.07-93.3 138.47-280.7 40.62-390.1-68.95-77.2-173.9-75.7-268.96-66.3-90.18 8.9-184.82 10.5-267.06-33.4-73.08-39-126.83-102.3-213.68-113.2-86.29-10.9-195.58 13.1-252.14 83.9-37.75 47.3-48.37 111.8-41.82 171.9 9.22 84.6 76.4 177.1 53.62 262.9-34.36 129.4-226.62 124.2-293.01 236.5-27.72 46.9-33.43 105.6-18.33 157.9 37.59 130.3 175.16 179.7 292.21 214.3 62.84 18.5 122.65 30.5 177.94 66.1 95.25 61.3 190.95 139.4 305.1 169.4 131.04 34.5 260.73-18.5 384.49-58.4 119.36-38.4 248.66-20.5 366.02-62.8 140.24-50.6 251.48-154.4 303.68-294.6 22.83-61.3 22.84-128.3 50.87-187.6 32.03-67.7 83.37-129 148.15-167.7 142.62-85.2 263.75-218.4 325.51-376.1 74.06-189.1 42.45-415.3-65.76-587.1-80.3-127.6-211.16-211.3-356.63-245.3-84.34-19.7-180.89-27.3-266.8-15.8-101.49 13.5-195.46 48.5-299.68 49.2-93.02.6-192.59-18.8-269.73-73.3-96.78-68.5-166.18-168.7-273.48-222.9-132.41-66.9-268.91-66-402.87-4.9-137.25 62.6-245.84 166.4-407.29 155.9-157.07-10.2-282.99-125.1-434.83-156.3-235.23-48.4-529.38 58.6-628.57 290.4-60.46 141.2-101.47 328-255.32 396.5-118.94 53-258.7 37.4-373.16 102.3-112.35 63.7-181.97 193.6-176.84 322.1.58 14.5 1.85 29.8-5.04 42.6m1861.43 714.1c-53.74 98.5-188.56 136-293.37 127.8-94.14-7.3-197.66-61-255.66-135.8-30.04-38.8-48.76-94.2-37.44-145.5 11.92-54 70.53-89.6 68.5-147.4-2.44-69.3-96.39-87.5-146.78-107.6-72.65-29-129.87-77.1-144.36-158.6-11.62-65.5 12.77-140.6 64.16-183.7 74.57-62.5 179.45-41.1 267.64-32.1 120.53 12.3 249.28-7.6 361.65-59.4 103.04-47.5 218.11-118.2 273.08-221.4 60.11-112.9 6.77-258.3-120.38-294.7-125.5-36-216.47 105.6-339.66 100.5-150.21-6.1-113.59-243.3-262.37-261.9-34.5-4.3-69.61 4-101.48 17.9-105.25 46-167.64 142.1-216.84 241.3-51.02 102.9-96.61 221.6-199.84 283.6-133.02 79.8-300.56 48.6-445.68 32.1-134.76-15.4-274.68 58.5-316.19 192.6" class="B"/><path d="M4887.97 12223.1c49-16.8 65.48-89.6 55.71-135.3-44.74-209.1-364.03-123.4-481.64-50.9-118.22 72.8-201.35 178.1-342.71 210.6-179.53 41.2-296.22-115-464.17-141.4-83.74-13.2-144.97 41.3-163.83 61.9m3028.57 495.6c165.19-70.1 425.5-325.4 336.67-640.8-67.67-240.3-377.56-348.4-604.53-229.5" class="B"/></g></g><g clip-path="url(#Ah)"><g clip-path="url(#Ai)"><g clip-path="url(#Aj)"><path d="M193.5 11627.7c-73.645 78.9 2.941 180.5 78.258 219.7 352.629 183.6 565.676-321.7 333.597-564.6-69.812-73.1-166.421-116-265.113-137.8-195.258-43.2-411.476-4.8-567.605 120.1-156.129 125-241.895 339.4-195.41 533.8 28.875 120.9 103.238 225.6 184.078 319.9 101.781 118.8 217.484 200.9 370.39 240.5 303.485 78.5 644.891-11 870.855-228.3 53.66-51.6 101.99-111.3 125.78-181.9 31.33-92.9 17.3-194.2 2.93-291.2l16.73 103.9c75.74 470.3 981.03 188.4 710.17-234-13.73-21.5-38.14-33-54.91-51.1-8.13-8.8-33.17-25.8-27.58-39.5 10.81-1.6 37.34 10.8 48.92 14.8 10.81 3.8 20.07 9.9 31.19 13.4 188.68 59.2 309.02-78 401.89-220.4 31.48-48.3 65.53-96.2 111.48-130.9 138.7-104.9 345.66-10.9 458.24 92.2 7.35 6.7 11.68 16.2 18.6 23.4 65.32 67.8 147.6 143 241.39 175.4 87.34 30.2 170.03-1.8 249.7-37.9 39.68-18 78.71-38.2 120.55-50.9 42.36-12.9 92.18-5.9 130.13-17.9-9.86-20-29.03-25.7-50.73-28.3-92.77-10.9-202.57 34.1-290.62-2.2-74.59-30.8-128.74-82.3-150.62-161.4-21.6-78.1-17.86-195.3-113.07-223.7-14.92-4.5-34.97-1.1-50.4-1.1-46.53.1-104.09 15.7-120.08-45.9-15.23-58.7 25.88-101.2-14.34-156.1-76.75-104.6-251.49-149.7-373.05-117.4-173.09 45.9-190.77 314.7 15.21 319.4 42.48 1 126.4-28.1 114.26-158.5" class="B C D E F G H I"/></g></g></g><g clip-path="url(#Ak)"><g clip-path="url(#Al)"><g clip-path="url(#Am)"><g clip-path="url(#An)"><path d="M12193.5 11627.7c-73.6 78.9 2.9 180.5 78.3 219.7 352.6 183.6 565.6-321.7 333.6-564.6-69.9-73.1-166.5-116-265.2-137.8-195.2-43.2-411.4-4.8-567.6 120.1-156.1 125-241.9 339.4-195.4 533.8 28.9 120.9 103.3 225.6 184.1 319.9 101.8 118.8 217.5 200.9 370.4 240.5 303.5 78.5 644.9-11 870.8-228.3 53.7-51.6 102-111.3 125.8-181.9 31.4-92.9 17.3-194.2 3-291.2l16.7 103.9c75.7 470.3 981 188.4 710.2-234-13.8-21.5-38.2-33-55-51.1-8.1-8.8-33.1-25.8-27.5-39.5 10.8-1.6 37.3 10.8 48.9 14.8 10.8 3.8 20.1 9.9 31.2 13.4 188.7 59.2 309-78 401.9-220.4 31.5-48.3 65.5-96.2 111.5-130.9 138.6-104.9 345.6-10.9 458.2 92.2 7.3 6.7 11.7 16.2 18.6 23.4 65.3 67.8 147.6 143 241.4 175.4 87.3 30.2 170-1.8 249.7-37.9 39.7-18 78.7-38.2 120.5-50.9 42.4-12.9 92.2-5.9 130.2-17.9-9.9-20-29.1-25.7-50.8-28.3-92.7-10.9-202.5 34.1-290.6-2.2-74.6-30.8-128.7-82.3-150.6-161.4-21.6-78.1-17.9-195.3-113.1-223.7-14.9-4.5-34.9-1.1-50.4-1.1-46.5.1-104.1 15.7-120.1-45.9-15.2-58.7 25.9-101.2-14.3-156.1-76.8-104.6-251.5-149.7-373.1-117.4-173 45.9-190.7 314.7 15.3 319.4 42.4 1 126.4-28.1 114.2-158.5" class="B C D E F G H I"/></g></g></g></g><g clip-path="url(#Ao)"><g clip-path="url(#Ap)" class="C D E F G H I"><path d="M8975.41 13054.6c-78.79-199.3-16.43-467.1 150.01-618.7 202.6-184.6 520.57-166.5 746.57-37.6 109.77 62.6 208.81 143.1 326.01 192.4 131.9 55.4 275.1 66.9 406.1 5.9 143.5-66.7 259.2-199.9 421.9-223.2 63.9-9.2 133.7 4.3 180.8 48.4v-.1c-1.4-85-113.1-178.9-183.4-210-163.6-72.2-299 22.5-453.1 67.4-146.8 42.7-309.9 21.7-445.9-45.8-175.37-86.9-320.89-224.5-500.99-303.6-566.53-248.7-1396.51 156.4-1458.01 802.6-16.73 175.9 40.61 410.3 200.36 471 101.66 38.6 264.82 20.9 315.63-90.3 53.83-117.9-59.17-247.5-176.44-257.3-65.76-5.6-142.1 49.2-127.44 129.3m10.27-86.4s-3.67-970.6 1011.02-893.4" class="B"/></g></g><g clip-path="url(#Aq)"><g clip-path="url(#Ar)"><g clip-path="url(#As)"><g clip-path="url(#At)"><path d="M194 11627.7c-73.645 78.9 2.941 180.5 78.258 219.7 352.629 183.6 565.676-321.7 333.597-564.6-69.812-73.1-166.421-116-265.113-137.8-195.258-43.2-411.476-4.8-567.605 120.1-156.129 125-241.895 339.4-195.41 533.8 28.875 120.9 103.238 225.6 184.078 319.9 101.781 118.8 217.48 200.9 370.39 240.5 303.485 78.5 644.891-11 870.855-228.3 53.66-51.6 101.99-111.3 125.78-181.9 31.33-92.9 17.3-194.2 2.93-291.2l16.73 103.9c75.75 470.3 981.03 188.4 710.17-234-13.73-21.5-38.14-33-54.91-51.1-8.13-8.8-33.17-25.8-27.58-39.5 10.81-1.6 37.34 10.8 48.92 14.8 10.82 3.8 20.07 9.9 31.19 13.4 188.68 59.2 309.02-78 401.89-220.4 31.48-48.3 65.53-96.2 111.48-130.9 138.7-104.9 345.65-10.9 458.24 92.2 7.35 6.7 11.68 16.2 18.6 23.4 65.32 67.8 147.6 143 241.39 175.4 87.34 30.2 170.03-1.8 249.7-37.9 39.68-18 78.71-38.2 120.56-50.9 42.35-12.9 92.17-5.9 130.12-17.9-9.86-20-29.03-25.7-50.73-28.3-92.77-10.9-202.57 34.1-290.62-2.2-74.59-30.8-128.74-82.3-150.62-161.4-21.59-78.1-17.86-195.3-113.08-223.7-14.91-4.5-34.96-1.1-50.39-1.1-46.53.1-104.09 15.7-120.08-45.9-15.23-58.7 25.88-101.2-14.34-156.1-76.75-104.6-251.49-149.7-373.05-117.4-173.09 45.9-190.77 314.7 15.21 319.4 42.48 1 126.4-28.1 114.26-158.5" class="B C D E F G H I"/></g></g></g></g></g></pattern></defs><path d="M12486.8 1825.188H5910.748v4384.036H12486.8V1825.188" fill="url(#A)" transform="matrix(.133333 0 0 -.133333 -969.65078 804.19585)"/></svg>