<svg xmlns="http://www.w3.org/2000/svg" xmlns:xlink="http://www.w3.org/1999/xlink" width="350" height="350" xmlns:v="https://vecta.io/nano"><g fill="#fff"><path d="M69.734 15.889c-1.786-.8-4.505-2.026-4.772-3.039s1.52-3.412 2.693-4.985c1.839-2.453 3.412-4.559 2.773-6.718-.213-.746-.826-1.786-2.399-2.373-5.252-1.973-11.543-2.186-17.755-.586-2.239.586-4.425 1.386-6.425 2.399.533-2.346.8-4.799.8-7.278 0-6.398-1.786-12.476-5.012-17.035-.986-1.386-2.106-1.706-2.906-1.706-2.266-.053-3.892 1.999-5.812 4.372-1.226 1.546-3.092 3.866-4.132 3.866s-2.906-2.319-4.132-3.866c-1.919-2.373-3.546-4.425-5.812-4.372-.8.027-1.946.347-2.906 1.706-3.252 4.585-5.012 10.637-5.012 17.035 0 2.479.267 4.932.8 7.278A33.15 33.15 0 0 0 3.3-1.813c-6.212-1.6-12.503-1.413-17.755.586-1.573.586-2.186 1.626-2.399 2.373-.64 2.159.933 4.292 2.773 6.718 1.173 1.573 2.959 3.972 2.693 4.985s-2.986 2.239-4.772 3.039c-2.799 1.253-5.199 2.319-5.705 4.532-.187.773-.16 1.946.933 3.252 3.626 4.292 9.037 7.544 15.222 9.144 1.493.373 2.986.666 4.452.853-1.066 1.173-2.053 2.453-2.986 3.812-3.572 5.332-5.438 11.357-5.305 16.955.053 1.68.826 2.586 1.466 3.039 1.839 1.306 4.345.507 7.278-.4 1.866-.586 4.719-1.493 5.598-.906s1.12 3.546 1.306 5.518c.267 3.039.48 5.678 2.399 6.878.427.267 1.013.507 1.786.507a4.35 4.35 0 0 0 1.6-.32c5.252-1.999 10.077-6.052 13.649-11.383.453-.693.88-1.386 1.28-2.079.4.72.826 1.413 1.28 2.079 3.572 5.332 8.398 9.357 13.649 11.383.586.24 1.12.32 1.6.32.773 0 1.36-.24 1.786-.507 1.919-1.2 2.133-3.812 2.399-6.878.16-1.973.427-4.932 1.306-5.518s3.706.32 5.598.906c2.906.906 5.438 1.706 7.278.4.64-.453 1.413-1.36 1.466-3.039.133-5.598-1.733-11.623-5.305-16.955-.906-1.36-1.919-2.639-2.986-3.839 1.493-.187 2.986-.453 4.452-.853 6.212-1.626 11.623-4.852 15.222-9.144 1.093-1.28 1.12-2.479.933-3.252-.56-2.159-2.986-3.252-5.758-4.505zM17.029-21.301c.666.507 1.733 1.866 2.426 2.719 2.026 2.506 4.292 5.358 7.251 5.358s5.252-2.853 7.251-5.358c.693-.853 1.786-2.213 2.426-2.719 2.719 3.892 4.185 9.064 4.185 14.609 0 3.919-.773 7.731-2.213 11.037-.586 1.333-1.28 2.586-2.079 3.706-1.146 1.626-2.479 2.959-3.919 3.919a10.39 10.39 0 0 1-3.679 1.6V8.824c2.959-.88 5.145-3.626 5.145-6.851 0-3.946-3.199-7.145-7.145-7.145s-7.145 3.199-7.145 7.145c0 3.252 2.186 5.998 5.145 6.851v4.719c-1.093-.24-2.159-.666-3.199-1.306-.746-1.706-1.786-3.359-3.092-4.932-1.04-1.226-2.239-2.373-3.572-3.439C13.483.666 12.79-2.959 12.79-6.718c.053-5.492 1.546-10.69 4.239-14.582zm14.049 42.948c.16.64.373 1.253.64 1.839v.027c.293.666.613 1.306 1.013 1.919a12.26 12.26 0 0 0-3.412 1.653l-.027.027c-.107.08-.24.16-.347.24a13.93 13.93 0 0 0-2.186 1.973 13.93 13.93 0 0 0-2.186-1.973c-.107-.08-.24-.16-.347-.24l-.027-.027c-1.066-.72-2.213-1.253-3.412-1.653.4-.613.72-1.253 1.013-1.946.267-.613.48-1.226.64-1.866a13.26 13.26 0 0 0 .373-4.479c1.306.4 2.613.613 3.946.613s2.666-.213 3.946-.613a13.36 13.36 0 0 0 .373 4.505zM26.733 5.092c-1.759 0-3.172-1.413-3.172-3.146S24.973-1.2 26.706-1.2s3.146 1.413 3.146 3.146c.027 1.733-1.386 3.146-3.119 3.146zM-17.868 21.22c.64-.507 2.239-1.226 3.252-1.68 2.932-1.306 6.265-2.799 7.011-5.678s-1.44-5.785-3.359-8.371c-.666-.88-1.706-2.266-2.026-3.039C-8.537.8-3.152.666 2.207 2.053c3.652.96 7.038 2.559 9.811 4.665 1.28.986 2.426 2.053 3.386 3.172 1.2 1.413 2.079 2.879 2.666 4.425.773 2.026.96 4.052.533 5.972l-6.585-1.813c-.053-3.092-2.106-5.918-5.252-6.798-.613-.16-1.253-.267-1.893-.267a7.16 7.16 0 0 0-6.878 5.252c-1.04 3.812 1.2 7.731 4.985 8.797.613.16 1.253.267 1.893.267a7.2 7.2 0 0 0 6.078-3.386l5.945 1.653c-.187.267-.427.533-.64.8-2.239 0-4.559.453-6.931 1.333-2.293.88-4.505 2.159-6.611 3.786-2.479.027-5.012-.293-7.518-.933-5.332-1.413-9.97-4.159-13.063-7.758zm25.779-1.813c0 .027 0 .027 0 0 0 .027 0 .027 0 0a3.17 3.17 0 0 1-3.039 2.319 3.12 3.12 0 0 1-.853-.107c-1.68-.453-2.666-2.213-2.186-3.866a3.17 3.17 0 0 1 3.039-2.319 3.12 3.12 0 0 1 .853.107c1.68.48 2.666 2.213 2.186 3.866zm2.613 45.56c-.267-.773-.427-2.506-.507-3.599-.267-3.199-.586-6.851-3.066-8.478-2.479-1.653-5.945-.56-9.011.427-1.04.32-2.719.853-3.546.906-.08-4.745 1.546-9.864 4.639-14.476 1.626-2.426 3.546-4.532 5.678-6.292 1.919-1.573 3.972-2.773 6.078-3.572 2.159-.826 4.239-1.173 6.185-1.066 1.226.08 2.373.347 3.412.8l-4.879 6.345a7.2 7.2 0 0 0-2.586-.507 7.12 7.12 0 0 0-5.678 2.799c-2.399 3.119-1.813 7.624 1.306 10.024 1.253.96 2.773 1.493 4.345 1.493a7.12 7.12 0 0 0 5.678-2.799 6.97 6.97 0 0 0 1.413-5.278 7.32 7.32 0 0 0-1.306-3.306l4.985-6.478c.267.293.533.613.773.933-1.04 2.213-1.626 4.825-1.706 7.598-.08 3.306.56 6.851 1.839 10.29-.666 1.52-1.493 3.012-2.453 4.452-3.066 4.559-7.198 8.051-11.597 9.784zm4.292-24.9a3.1 3.1 0 0 1 1.2 2.106 3.05 3.05 0 0 1-.64 2.319c-.613.773-1.52 1.226-2.506 1.226-.693 0-1.36-.213-1.919-.666-1.386-1.066-1.626-3.039-.586-4.425.613-.773 1.52-1.226 2.506-1.226.746.027 1.386.24 1.946.666zM59.07 54.171c-.826-.053-2.479-.586-3.546-.906-3.066-.96-6.531-2.053-9.011-.4s-2.773 5.278-3.066 8.478c-.107 1.093-.24 2.826-.507 3.599-4.425-1.733-8.531-5.199-11.597-9.811-1.12-1.653-2.026-3.412-2.773-5.172-1.306-3.172-1.946-6.425-1.866-9.437.08-2.586.666-4.932 1.759-6.798a10.12 10.12 0 0 1 1.333-1.839l4.985 6.478a7.2 7.2 0 0 0 .107 8.584 7.16 7.16 0 0 0 5.678 2.799c1.6 0 3.092-.507 4.345-1.493 3.119-2.399 3.706-6.905 1.306-10.024a7.16 7.16 0 0 0-5.678-2.799c-.906 0-1.786.16-2.586.507l-4.879-6.345c.826-.347 1.68-.586 2.613-.72 1.626 1.386 3.572 2.533 5.812 3.386 2.399.906 4.985 1.44 7.758 1.6 1.946 1.653 3.706 3.626 5.199 5.865 3.066 4.585 4.692 9.731 4.612 14.449zM38.649 40.068c.56-.427 1.226-.666 1.919-.666.986 0 1.893.453 2.506 1.226a3.15 3.15 0 0 1-.586 4.425c-.56.427-1.226.666-1.919.666-.986 0-1.893-.453-2.506-1.226-.507-.666-.746-1.493-.64-2.319a3.37 3.37 0 0 1 1.226-2.106zm19.594-11.117a28.64 28.64 0 0 1-8.158.933c-2.586-.08-4.985-.56-7.171-1.386-2.053-.773-3.786-1.839-5.145-3.146l-.16-.16c-.373-.4-.746-.8-1.04-1.226l5.945-1.653a7.2 7.2 0 0 0 6.078 3.386c.64 0 1.28-.08 1.893-.267 3.812-1.04 6.025-4.985 4.985-8.797a7.16 7.16 0 0 0-6.878-5.252c-.64 0-1.28.08-1.893.267-3.119.853-5.199 3.706-5.252 6.798l-6.585 1.813c-.373-1.759-.267-3.572.347-5.412 1.626-1.173 3.092-2.719 4.399-4.532.853-1.2 1.6-2.506 2.239-3.892 2.693-1.973 5.945-3.492 9.437-4.399 5.358-1.386 10.744-1.253 15.196.4-.32.773-1.36 2.159-2.026 3.039-1.919 2.586-4.105 5.492-3.359 8.371s4.079 4.372 7.011 5.678c1.013.453 2.586 1.173 3.252 1.68-3.119 3.626-7.758 6.372-13.116 7.758zM47.74 15.542c.267-.08.56-.107.853-.107a3.17 3.17 0 0 1 3.039 2.319c.453 1.68-.533 3.412-2.186 3.866-.267.08-.56.107-.853.107h0a3.17 3.17 0 0 1-3.039-2.319c-.48-1.653.507-3.386 2.186-3.866z"/><use xlink:href="#B" transform="matrix(.091367 .081567 -.081567 .091367 240.52215 112.81964)"/><path d="M152.29 281.302l7.087-8.49c.263-.307.321-.731.175-1.111a1.09 1.09 0 0 0-.891-.687l-11.938-1.359-1.71-10.55c-.058-.365-.307-.687-.658-.833a1.12 1.12 0 0 0-1.052.102l-9.556 6.605-9.688-6.459c-.307-.205-.716-.248-1.052-.088a1.1 1.1 0 0 0-.643.848l-1.505 10.565-11.894 1.549a1.09 1.09 0 0 0-.877.701c-.146.38-.073.804.19 1.111l7.262 8.373-7.087 8.49c-.263.307-.321.731-.175 1.111a1.09 1.09 0 0 0 .891.687l11.938 1.359 1.724 10.55c.058.365.307.687.658.833a1.05 1.05 0 0 0 .424.088c.219 0 .438-.073.628-.19l9.556-6.605 9.688 6.459c.307.205.716.248 1.052.088a1.1 1.1 0 0 0 .643-.848l1.505-10.565 11.894-1.549a1.09 1.09 0 0 0 .877-.701c.146-.38.073-.804-.19-1.111zm-6.444 9.659a1.1 1.1 0 0 0-.95.935l-1.388 9.673-8.855-5.903c-.38-.248-.862-.248-1.227.015l-8.738 6.049-1.578-9.659a1.07 1.07 0 0 0-.964-.906l-10.74-1.227 6.386-7.642c.351-.409.336-1.008-.015-1.417l-6.517-7.555 10.696-1.388a1.1 1.1 0 0 0 .95-.935l1.388-9.673 8.855 5.903c.38.248.862.248 1.227-.015l8.738-6.049 1.578 9.659a1.07 1.07 0 0 0 .964.906l10.74 1.227-6.386 7.642c-.351.409-.336 1.008.015 1.417l6.532 7.54zm-2.689-12.523c-1.271 0-2.353.789-2.806 1.914h-2.922a4.75 4.75 0 0 0-.263-.628l2.06-2.06a3.08 3.08 0 0 0 1.198.248 2.99 2.99 0 0 0 2.133-.877 3 3 0 0 0 .877-2.133c0-.803-.307-1.564-.877-2.133a3 3 0 0 0-2.133-.877c-.803 0-1.564.307-2.133.877a3 3 0 0 0-.628 3.332l-2.06 2.06a4.75 4.75 0 0 0-.628-.263v-2.922c1.111-.438 1.914-1.52 1.914-2.806 0-1.666-1.344-3.01-3.01-3.01s-3.01 1.344-3.01 3.01c0 1.271.789 2.353 1.914 2.806v2.922a4.75 4.75 0 0 0-.628.263l-2.06-2.06a3 3 0 0 0-.628-3.332c-.57-.57-1.33-.877-2.133-.877s-1.564.307-2.133.877a3 3 0 0 0-.877 2.133c0 .803.307 1.564.877 2.133a3 3 0 0 0 2.133.877 2.98 2.98 0 0 0 1.198-.248l2.06 2.06a4.75 4.75 0 0 0-.263.628h-2.922c-.438-1.111-1.52-1.914-2.806-1.914-1.666 0-3.01 1.344-3.01 3.01s1.344 3.01 3.01 3.01c1.271 0 2.353-.789 2.806-1.914h2.922a4.75 4.75 0 0 0 .263.628l-2.06 2.06a3.08 3.08 0 0 0-1.198-.248 2.99 2.99 0 0 0-2.133.877 3 3 0 0 0-.877 2.133c0 .803.307 1.564.877 2.133a3 3 0 0 0 2.133.877c.803 0 1.564-.307 2.133-.877a3 3 0 0 0 .628-3.332l2.06-2.06a4.75 4.75 0 0 0 .628.263v2.922c-1.111.438-1.914 1.52-1.914 2.806 0 1.666 1.344 3.01 3.01 3.01s3.01-1.344 3.01-3.01c0-1.271-.789-2.353-1.914-2.806v-2.922a4.75 4.75 0 0 0 .628-.263l2.06 2.06a3 3 0 0 0 .628 3.332c.57.57 1.33.877 2.133.877s1.564-.307 2.133-.877a3 3 0 0 0 .877-2.133c0-.803-.307-1.564-.877-2.133a3 3 0 0 0-2.133-.877 2.98 2.98 0 0 0-1.198.248l-2.06-2.06a4.75 4.75 0 0 0 .263-.628h2.922c.438 1.111 1.52 1.914 2.806 1.914 1.666 0 3.01-1.344 3.01-3.01s-1.344-3.01-3.01-3.01zm-10.755 3.01c0-.833.672-1.505 1.505-1.505s1.505.672 1.505 1.505-.672 1.505-1.505 1.505-1.505-.672-1.505-1.505zm7.467-7.116c.161-.161.365-.234.584-.234a.87.87 0 0 1 .584.234c.161.161.234.365.234.584a.87.87 0 0 1-.234.584c-.161.161-.365.234-.584.234a.87.87 0 0 1-.584-.234c-.307-.336-.307-.862 0-1.169zm-5.962-2.952c.453 0 .818.365.818.818s-.365.818-.818.818-.818-.365-.818-.818.365-.818.818-.818zm-7.116 4.106c-.161-.161-.234-.365-.234-.57a.87.87 0 0 1 .234-.584c.161-.161.365-.234.584-.234a.87.87 0 0 1 .584.234.81.81 0 0 1 0 1.154c-.161.161-.365.234-.57.234-.248 0-.453-.088-.599-.234zm-2.133 6.78c-.453 0-.818-.365-.818-.818s.365-.818.818-.818.818.365.818.818-.38.818-.818.818zm3.288 6.298c-.161.161-.365.234-.584.234a.87.87 0 0 1-.584-.234c-.161-.161-.234-.365-.234-.584a.87.87 0 0 1 .234-.584c.161-.161.365-.234.584-.234a.81.81 0 0 1 .57.234c.321.336.321.862.015 1.169zm5.962 2.952c-.453 0-.818-.365-.818-.818s.365-.818.818-.818.818.365.818.818-.365.818-.818.818zm7.116-4.106c.161.161.234.365.234.584a.87.87 0 0 1-.234.584c-.161.161-.365.234-.584.234a.87.87 0 0 1-.584-.234.81.81 0 0 1 0-1.154c.161-.161.365-.234.57-.234a.76.76 0 0 1 .599.219zm2.133-5.144c-.453 0-.818-.365-.818-.818s.365-.818.818-.818.818.365.818.818-.365.818-.818.818zm67.694-41.768c1.114 1.114 2.329 2.097 3.602 2.893-1.273.81-2.502 1.794-3.602 2.893-2.546 2.546-4.339 5.569-5.034 8.519-.217.926.043 1.519.318 1.866.579.738 1.548.839 2.416.839l1.056-.029 1.056-.029c.998 0 1.316.174 1.417.26.333.333.275 1.62.231 2.473-.058 1.302-.116 2.531.622 3.312.246.26.694.564 1.389.564.202 0 .434-.029.665-.087 2.271-.535 4.585-1.721 6.697-3.399.304 2.676 1.099 5.164 2.329 7.145.564.911 1.258 1.099 1.75 1.099 1.085 0 1.924-.926 2.82-1.909.579-.636 1.432-1.577 1.909-1.577s1.345.955 1.909 1.577c.882.984 1.736 1.909 2.82 1.909.492 0 1.186-.188 1.75-1.099 1.215-1.982 2.025-4.455 2.329-7.145 2.112 1.678 4.426 2.864 6.697 3.399a2.7 2.7 0 0 0 .665.087c.694 0 1.143-.304 1.389-.564.738-.767.68-2.011.622-3.312-.043-.853-.101-2.141.231-2.473.101-.101.419-.26 1.417-.26l1.056.029 1.056.029c.868 0 1.837-.101 2.416-.839.26-.333.535-.926.318-1.866-.694-2.951-2.488-5.974-5.034-8.519-1.114-1.114-2.329-2.097-3.602-2.893 1.273-.81 2.502-1.794 3.602-2.893 2.546-2.546 4.339-5.569 5.034-8.519.217-.926-.043-1.519-.318-1.866-.579-.738-1.548-.839-2.416-.839l-1.056.029-1.056.029c-.998 0-1.316-.174-1.417-.26-.333-.333-.275-1.62-.231-2.473.058-1.302.116-2.531-.622-3.312-.246-.26-.694-.564-1.389-.564-.202 0-.434.029-.665.087-2.271.535-4.585 1.721-6.697 3.399-.304-2.676-1.099-5.164-2.329-7.145-.564-.911-1.258-1.099-1.75-1.099-1.085 0-1.924.926-2.82 1.909-.579.636-1.432 1.577-1.909 1.577s-1.345-.955-1.909-1.577c-.882-.984-1.736-1.909-2.82-1.909-.492 0-1.186.188-1.75 1.099-1.215 1.982-2.025 4.455-2.329 7.145-2.112-1.678-4.426-2.864-6.697-3.399a2.7 2.7 0 0 0-.665-.087c-.694 0-1.143.304-1.389.564-.738.767-.68 2.011-.622 3.312.043.853.101 2.141-.231 2.473-.101.101-.419.26-1.417.26a26.19 26.19 0 0 1-1.056-.029l-1.056-.029c-.868 0-1.837.101-2.416.839-.26.333-.535.926-.318 1.866.709 2.951 2.488 5.974 5.034 8.519zm-2.3-9.055l.955.029 1.157.043c.955 0 2.155-.101 2.951-.897 1.012-1.012.94-2.661.868-4.108-.029-.477-.058-1.201 0-1.577 2.517.593 5.135 2.141 7.377 4.354a1.1 1.1 0 0 0 1.172.231c.405-.174.665-.564.665-.998.014-3.153.781-6.089 2.126-8.302.304.217.796.767 1.114 1.114.984 1.07 2.083 2.3 3.515 2.3s2.546-1.215 3.515-2.3c.318-.347.81-.897 1.114-1.114 1.36 2.199 2.112 5.149 2.126 8.302 0 .434.26.824.665.998s.868.072 1.172-.231c2.242-2.213 4.86-3.761 7.377-4.354.058.376.029 1.099 0 1.577-.072 1.446-.145 3.095.868 4.108.796.796 1.996.897 2.951.897l1.157-.043.955-.029c.304 0 .506.014.622.043-.607 2.56-2.184 5.207-4.455 7.463-1.446 1.446-3.081 2.632-4.759 3.457-.376.188-.607.564-.607.969a1.07 1.07 0 0 0 .607.969c1.678.824 3.327 2.025 4.759 3.457 2.256 2.256 3.847 4.918 4.455 7.463-.116.014-.318.043-.622.043-.289 0-.607-.014-.955-.029l-1.157-.043c-.955 0-2.155.101-2.951.897-1.012 1.012-.94 2.661-.868 4.108.029.477.058 1.201 0 1.577-2.517-.593-5.135-2.141-7.377-4.354a1.1 1.1 0 0 0-1.172-.231c-.405.174-.665.564-.665.998-.014 3.153-.781 6.089-2.126 8.302-.304-.217-.796-.767-1.114-1.114-.984-1.07-2.083-2.3-3.515-2.3s-2.546 1.215-3.515 2.3c-.318.347-.81.897-1.114 1.114-1.36-2.199-2.112-5.149-2.126-8.302 0-.434-.26-.824-.665-.998s-.868-.072-1.172.231c-2.242 2.213-4.86 3.761-7.377 4.354-.058-.376-.029-1.099 0-1.577.072-1.446.145-3.095-.868-4.108-.796-.796-1.996-.897-2.951-.897l-1.157.043-.955.029c-.304 0-.506-.014-.622-.043.607-2.56 2.184-5.207 4.455-7.463 1.446-1.446 3.081-2.632 4.759-3.457.376-.188.607-.564.607-.969a1.07 1.07 0 0 0-.607-.969c-1.678-.824-3.327-2.025-4.759-3.457-2.256-2.256-3.847-4.918-4.455-7.463.13-.014.318-.043.622-.043zm10.935 5.931l9.069 6.032-8.924 6.234a1.09 1.09 0 0 0-.275 1.504 1.09 1.09 0 0 0 .897.463 1 1 0 0 0 .622-.202l8.534-5.945v5.887c0 .593.492 1.085 1.085 1.085s1.085-.492 1.085-1.085v-5.93l8.707 5.8a1.03 1.03 0 0 0 .593.188c.347 0 .694-.174.911-.477a1.08 1.08 0 0 0-.304-1.504l-9.069-6.032 8.924-6.234a1.09 1.09 0 0 0 .275-1.504 1.09 1.09 0 0 0-1.504-.275l-8.534 5.945v-5.887c0-.593-.492-1.085-1.085-1.085s-1.085.492-1.085 1.085v5.93l-8.707-5.8a1.08 1.08 0 0 0-1.504.304c-.347.506-.202 1.172.289 1.504zm-32.417-54.286c.094-1.006-.376-1.797-1.314-2.186-.617-.268-1.355-.335-2.146-.416-.912-.08-1.945-.188-2.361-.617-.429-.429-.523-1.462-.617-2.361-.067-.751-.134-1.449-.376-2.052-.483-1.234-1.449-1.408-1.985-1.408-.08 0-.161 0-.255.013-2.133.201-4.212 1.073-5.982 2.481-.255-2.253-1.113-4.332-2.481-5.982-.55-.671-1.18-.805-1.596-.805-.979 0-1.797.684-2.683 1.408-.697.577-1.502 1.247-2.106 1.247s-1.395-.657-2.106-1.247c-.872-.724-1.703-1.408-2.683-1.408-.429 0-1.046.134-1.596.805-1.368 1.65-2.213 3.729-2.481 5.982-1.771-1.408-3.85-2.28-5.982-2.481-.08-.013-.174-.013-.255-.013-.537 0-1.502.188-1.985 1.408-.228.604-.295 1.301-.376 2.052-.08.912-.188 1.945-.617 2.361-.429.429-1.462.523-2.361.617-.778.08-1.529.148-2.146.416-.939.402-1.408 1.18-1.314 2.186.241 2.575 1.462 5.07 3.434 7.042a12.37 12.37 0 0 0 2.924 2.173c-1.06.563-2.052 1.288-2.924 2.173-1.972 1.972-3.192 4.48-3.434 7.042-.094 1.006.376 1.797 1.314 2.186.617.268 1.355.335 2.146.416.912.08 1.945.188 2.361.617.429.429.523 1.462.617 2.361.067.751.134 1.449.376 2.052.483 1.234 1.449 1.408 1.985 1.408.08 0 .161 0 .255-.013 2.133-.201 4.212-1.073 5.982-2.481.255 2.253 1.113 4.332 2.481 5.982.55.671 1.18.805 1.596.805.979 0 1.797-.684 2.683-1.408.697-.577 1.502-1.247 2.106-1.247s1.395.657 2.106 1.247c.872.724 1.703 1.408 2.683 1.408.429 0 1.046-.134 1.596-.805 1.368-1.65 2.213-3.729 2.481-5.982 1.771 1.408 3.85 2.28 5.982 2.481.08.013.174.013.255.013.537 0 1.502-.188 1.985-1.408.228-.604.295-1.301.376-2.052.08-.912.188-1.945.617-2.361.429-.429 1.462-.523 2.361-.617.778-.08 1.529-.148 2.146-.416.939-.402 1.408-1.18 1.314-2.186-.241-2.575-1.462-5.07-3.434-7.042a12.37 12.37 0 0 0-2.924-2.173c1.06-.563 2.052-1.288 2.924-2.173 1.972-1.972 3.192-4.48 3.434-7.042zm-9.376 8.236c-.443.107-.751.51-.751.979a1.02 1.02 0 0 0 .751.979c1.663.429 3.233 1.328 4.52 2.616 1.636 1.636 2.656 3.702 2.857 5.808v.107c-.215.174-1.1.255-1.636.309-1.247.121-2.656.255-3.595 1.194s-1.073 2.347-1.194 3.595c-.054.537-.134 1.422-.309 1.636h-.107c-2.106-.201-4.172-1.207-5.808-2.857l-.55-.604a.99.99 0 0 0-1.154-.268c-.402.161-.657.577-.617 1.006l.04.818c0 2.32-.738 4.493-2.092 6.13-.04.04-.054.067-.067.08-.268-.027-.966-.604-1.382-.939-.966-.791-2.066-1.703-3.38-1.703-1.328 0-2.428.899-3.38 1.703-.416.349-1.1.912-1.382.939a.51.51 0 0 1-.067-.08c-1.355-1.623-2.092-3.809-2.092-6.13l.04-.818c.027-.429-.215-.845-.617-1.006s-.872-.054-1.154.268l-.55.604c-1.636 1.636-3.702 2.656-5.808 2.857h-.107c-.174-.215-.255-1.1-.309-1.636-.121-1.247-.255-2.656-1.194-3.595s-2.347-1.073-3.595-1.194c-.537-.054-1.422-.134-1.636-.309v-.107c.201-2.106 1.207-4.172 2.857-5.808 1.288-1.288 2.844-2.186 4.52-2.616.443-.107.751-.51.751-.979a1.02 1.02 0 0 0-.751-.979c-1.663-.429-3.233-1.328-4.52-2.616-1.69-1.636-2.709-3.702-2.897-5.808v-.107c.215-.174 1.1-.255 1.636-.309 1.247-.121 2.656-.255 3.595-1.194s1.073-2.347 1.194-3.595c.054-.537.134-1.422.309-1.636h.107c2.106.201 4.172 1.207 5.808 2.857l.55.604a.99.99 0 0 0 1.154.268c.402-.161.657-.577.617-1.006l-.04-.818c0-2.32.738-4.493 2.092-6.13.04-.04.054-.067.067-.08.268.027.966.604 1.382.939.966.791 2.066 1.703 3.38 1.703 1.328 0 2.428-.899 3.38-1.703.416-.349 1.1-.912 1.382-.939a.51.51 0 0 1 .067.08c1.355 1.623 2.092 3.809 2.092 6.13l-.04.818c-.027.429.215.845.617 1.006s.872.054 1.154-.268l.55-.604c1.636-1.636 3.702-2.656 5.808-2.857h.107c.174.215.255 1.1.309 1.636.121 1.247.255 2.656 1.194 3.595s2.347 1.073 3.595 1.194c.537.054 1.422.134 1.636.309v.107c-.201 2.106-1.207 4.172-2.857 5.808-1.247 1.288-2.817 2.2-4.48 2.616zm-7.699-1.878l-3.018 1.167a4.19 4.19 0 0 0-2.777-2.334v-2.803c0-.55-.456-1.006-1.006-1.006s-1.006.456-1.006 1.006v2.803c-1.234.309-2.253 1.18-2.777 2.334l-3.018-1.167a1.006 1.006 0 1 0-.724 1.878l3.394 1.314c.08.993.51 1.891 1.167 2.562l-2.669 3.286c-.349.429-.282 1.06.148 1.422a1.04 1.04 0 0 0 .63.228.97.97 0 0 0 .778-.376l2.844-3.501c.389.121.791.188 1.221.188s.832-.067 1.221-.188l2.844 3.501a1.01 1.01 0 0 0 .778.376 1.01 1.01 0 0 0 .63-.228c.429-.349.496-.979.148-1.422l-2.656-3.286a4.14 4.14 0 0 0 1.167-2.562l3.394-1.314a1 1 0 0 0 .577-1.301c-.188-.523-.778-.778-1.288-.577zm-8.933 2.857c0-.067 0-.148.013-.215.107-1.073 1.019-1.905 2.106-1.905 1.1 0 1.999.845 2.106 1.905.013.067.013.148.013.215a2.14 2.14 0 0 1-2.133 2.133c-1.18 0-2.106-.966-2.106-2.133z"/><path d="M419.734 15.889c-1.786-.8-4.505-2.026-4.772-3.039s1.52-3.412 2.693-4.985c1.839-2.453 3.412-4.559 2.773-6.718-.213-.746-.826-1.786-2.399-2.373-5.252-1.973-11.543-2.186-17.755-.586-2.239.586-4.425 1.386-6.425 2.399.533-2.346.8-4.799.8-7.278 0-6.398-1.786-12.476-5.012-17.035-.986-1.386-2.106-1.706-2.906-1.706-2.266-.053-3.892 1.999-5.812 4.372-1.226 1.546-3.092 3.866-4.132 3.866s-2.906-2.319-4.132-3.866c-1.919-2.373-3.546-4.425-5.812-4.372-.8.027-1.946.347-2.906 1.706-3.252 4.585-5.012 10.637-5.012 17.035 0 2.479.267 4.932.8 7.278a33.15 33.15 0 0 0-6.425-2.399c-6.212-1.6-12.503-1.413-17.755.586-1.573.586-2.186 1.626-2.399 2.373-.64 2.159.933 4.292 2.773 6.718 1.173 1.573 2.959 3.972 2.693 4.985s-2.986 2.239-4.772 3.039c-2.799 1.253-5.199 2.319-5.705 4.532-.187.773-.16 1.946.933 3.252 3.626 4.292 9.037 7.544 15.222 9.144 1.493.373 2.986.666 4.452.853-1.066 1.173-2.053 2.453-2.986 3.812-3.572 5.332-5.438 11.357-5.305 16.955.053 1.68.826 2.586 1.466 3.039 1.839 1.306 4.345.507 7.278-.4 1.866-.586 4.719-1.493 5.598-.906s1.12 3.546 1.306 5.518c.267 3.039.48 5.678 2.399 6.878a3.3 3.3 0 0 0 1.786.507 4.35 4.35 0 0 0 1.6-.32c5.252-1.999 10.077-6.052 13.649-11.383a44.03 44.03 0 0 0 1.28-2.079c.4.72.826 1.413 1.28 2.079 3.572 5.332 8.398 9.357 13.649 11.383.586.24 1.12.32 1.6.32a3.3 3.3 0 0 0 1.786-.507c1.919-1.2 2.133-3.812 2.399-6.878.16-1.973.427-4.932 1.306-5.518s3.706.32 5.598.906c2.906.906 5.438 1.706 7.278.4.64-.453 1.413-1.36 1.466-3.039.133-5.598-1.733-11.623-5.305-16.955-.906-1.36-1.919-2.639-2.986-3.839 1.493-.187 2.986-.453 4.452-.853 6.212-1.626 11.623-4.852 15.222-9.144 1.093-1.28 1.12-2.479.933-3.252-.56-2.159-2.986-3.252-5.758-4.505zM367.029-21.3c.666.507 1.733 1.866 2.426 2.719 2.026 2.506 4.292 5.358 7.251 5.358s5.252-2.853 7.251-5.358c.693-.853 1.786-2.213 2.426-2.719 2.719 3.892 4.185 9.064 4.185 14.609 0 3.919-.773 7.731-2.213 11.037-.586 1.333-1.28 2.586-2.079 3.706-1.146 1.626-2.479 2.959-3.919 3.919a10.39 10.39 0 0 1-3.679 1.6V8.824c2.959-.88 5.145-3.626 5.145-6.851 0-3.946-3.199-7.145-7.145-7.145s-7.145 3.199-7.145 7.145c0 3.252 2.186 5.998 5.145 6.851v4.719c-1.093-.24-2.159-.666-3.199-1.306-.746-1.706-1.786-3.359-3.092-4.932-1.04-1.226-2.239-2.373-3.572-3.439-1.333-3.199-2.026-6.825-2.026-10.584.053-5.492 1.546-10.69 4.239-14.582zm14.049 42.948a10.66 10.66 0 0 0 .64 1.839v.027c.293.666.613 1.306 1.013 1.919a12.26 12.26 0 0 0-3.412 1.653l-.027.027c-.107.08-.24.16-.347.24a13.93 13.93 0 0 0-2.186 1.973 13.93 13.93 0 0 0-2.186-1.973c-.107-.08-.24-.16-.347-.24l-.027-.027c-1.066-.72-2.213-1.253-3.412-1.653.4-.613.72-1.253 1.013-1.946.267-.613.48-1.226.64-1.866a13.26 13.26 0 0 0 .373-4.479c1.306.4 2.613.613 3.946.613s2.666-.213 3.946-.613a13.36 13.36 0 0 0 .373 4.505zm-4.345-16.555c-1.759 0-3.172-1.413-3.172-3.146s1.413-3.146 3.146-3.146 3.146 1.413 3.146 3.146c.027 1.733-1.386 3.146-3.119 3.146zM332.132 21.22c.64-.507 2.239-1.226 3.252-1.68 2.932-1.306 6.265-2.799 7.011-5.678s-1.44-5.785-3.359-8.371c-.666-.88-1.706-2.266-2.026-3.039 4.452-1.653 9.837-1.786 15.196-.4 3.652.96 7.038 2.559 9.811 4.665 1.28.986 2.426 2.053 3.386 3.172 1.2 1.413 2.079 2.879 2.666 4.425.773 2.026.96 4.052.533 5.972l-6.585-1.813c-.053-3.092-2.106-5.918-5.252-6.798-.613-.16-1.253-.267-1.893-.267a7.16 7.16 0 0 0-6.878 5.252 7.18 7.18 0 0 0 4.985 8.797c.613.16 1.253.267 1.893.267a7.2 7.2 0 0 0 6.078-3.386l5.945 1.653c-.187.267-.427.533-.64.8-2.239 0-4.559.453-6.931 1.333-2.293.88-4.505 2.159-6.611 3.786-2.479.027-5.012-.293-7.518-.933-5.332-1.413-9.97-4.159-13.063-7.758zm25.779-1.813c0 .027 0 .027 0 0 0 .027 0 .027 0 0a3.17 3.17 0 0 1-3.039 2.319 3.12 3.12 0 0 1-.853-.107c-1.68-.453-2.666-2.213-2.186-3.866a3.17 3.17 0 0 1 3.039-2.319 3.12 3.12 0 0 1 .853.107c1.68.48 2.666 2.213 2.186 3.866zm2.613 45.56c-.267-.773-.427-2.506-.507-3.599-.267-3.199-.586-6.851-3.066-8.478-2.479-1.653-5.945-.56-9.011.427-1.04.32-2.719.853-3.546.906-.08-4.745 1.546-9.864 4.639-14.476 1.626-2.426 3.546-4.532 5.678-6.292 1.919-1.573 3.972-2.773 6.078-3.572 2.159-.826 4.239-1.173 6.185-1.066 1.226.08 2.373.347 3.412.8l-4.879 6.345a7.2 7.2 0 0 0-2.586-.507 7.12 7.12 0 0 0-5.678 2.799c-2.399 3.119-1.813 7.624 1.306 10.024 1.253.96 2.773 1.493 4.345 1.493a7.12 7.12 0 0 0 5.678-2.799 6.97 6.97 0 0 0 1.413-5.278 7.32 7.32 0 0 0-1.306-3.306l4.985-6.478a12.88 12.88 0 0 1 .773.933c-1.04 2.213-1.626 4.825-1.706 7.598-.08 3.306.56 6.851 1.839 10.29-.666 1.52-1.493 3.012-2.453 4.452-3.066 4.559-7.198 8.051-11.597 9.784zm4.292-24.9a3.1 3.1 0 0 1 1.2 2.106 3.05 3.05 0 0 1-.64 2.319c-.613.773-1.52 1.226-2.506 1.226-.693 0-1.36-.213-1.919-.666-1.386-1.066-1.626-3.039-.586-4.425.613-.773 1.52-1.226 2.506-1.226.746.027 1.386.24 1.946.666zM409.07 54.17c-.826-.053-2.479-.586-3.546-.906-3.066-.96-6.531-2.053-9.011-.4s-2.773 5.278-3.066 8.478c-.107 1.093-.24 2.826-.507 3.599-4.425-1.733-8.531-5.199-11.597-9.811-1.12-1.653-2.026-3.412-2.773-5.172-1.306-3.172-1.946-6.425-1.866-9.437.08-2.586.666-4.932 1.759-6.798a10.12 10.12 0 0 1 1.333-1.839l4.985 6.478a7.2 7.2 0 0 0 .107 8.584 7.16 7.16 0 0 0 5.678 2.799c1.6 0 3.092-.507 4.345-1.493 3.119-2.399 3.706-6.905 1.306-10.024a7.16 7.16 0 0 0-5.678-2.799c-.906 0-1.786.16-2.586.507l-4.879-6.345c.826-.347 1.68-.586 2.613-.72 1.626 1.386 3.572 2.533 5.812 3.386 2.399.906 4.985 1.44 7.758 1.6a28.27 28.27 0 0 1 5.199 5.865c3.066 4.585 4.692 9.731 4.612 14.449zm-20.421-14.103a3.16 3.16 0 0 1 1.919-.666c.986 0 1.893.453 2.506 1.226a3.15 3.15 0 0 1-.586 4.425 3.16 3.16 0 0 1-1.919.666c-.986 0-1.893-.453-2.506-1.226-.507-.666-.746-1.493-.64-2.319a3.37 3.37 0 0 1 1.226-2.106zm19.594-11.117a28.64 28.64 0 0 1-8.158.933c-2.586-.08-4.985-.56-7.171-1.386-2.053-.773-3.786-1.839-5.145-3.146l-.16-.16c-.373-.4-.746-.8-1.04-1.226l5.945-1.653a7.2 7.2 0 0 0 6.078 3.386c.64 0 1.28-.08 1.893-.267 3.812-1.04 6.025-4.985 4.985-8.797a7.16 7.16 0 0 0-6.878-5.252c-.64 0-1.28.08-1.893.267-3.119.853-5.199 3.706-5.252 6.798l-6.585 1.813c-.373-1.759-.267-3.572.347-5.412 1.626-1.173 3.092-2.719 4.399-4.532.853-1.2 1.6-2.506 2.239-3.892 2.693-1.973 5.945-3.492 9.437-4.399 5.358-1.386 10.744-1.253 15.196.4-.32.773-1.36 2.159-2.026 3.039-1.919 2.586-4.105 5.492-3.359 8.371s4.079 4.372 7.011 5.678c1.013.453 2.586 1.173 3.252 1.68-3.119 3.626-7.758 6.372-13.116 7.758zM397.74 15.542c.267-.08.56-.107.853-.107a3.17 3.17 0 0 1 3.039 2.319c.453 1.68-.533 3.412-2.186 3.866-.267.08-.56.107-.853.107h0a3.17 3.17 0 0 1-3.039-2.319c-.48-1.653.507-3.386 2.186-3.866zm21.994 350.347c-1.786-.8-4.505-2.026-4.772-3.039s1.52-3.412 2.693-4.985c1.839-2.453 3.412-4.559 2.773-6.718-.213-.746-.826-1.786-2.399-2.373-5.252-1.973-11.543-2.186-17.755-.586-2.239.586-4.425 1.386-6.425 2.399.533-2.346.8-4.799.8-7.278 0-6.398-1.786-12.476-5.012-17.035-.986-1.386-2.106-1.706-2.906-1.706-2.266-.053-3.892 1.999-5.812 4.372-1.226 1.546-3.092 3.866-4.132 3.866s-2.906-2.319-4.132-3.866c-1.919-2.373-3.546-4.425-5.812-4.372-.8.027-1.946.347-2.906 1.706-3.252 4.585-5.012 10.637-5.012 17.035 0 2.479.267 4.932.8 7.278a33.15 33.15 0 0 0-6.425-2.399c-6.212-1.6-12.503-1.413-17.755.586-1.573.586-2.186 1.626-2.399 2.373-.64 2.159.933 4.292 2.773 6.718 1.173 1.573 2.959 3.972 2.693 4.985s-2.986 2.239-4.772 3.039c-2.799 1.253-5.199 2.319-5.705 4.532-.187.773-.16 1.946.933 3.252 3.626 4.292 9.037 7.544 15.222 9.144 1.493.373 2.986.666 4.452.853-1.066 1.173-2.053 2.453-2.986 3.812-3.572 5.332-5.438 11.357-5.305 16.955.053 1.68.826 2.586 1.466 3.039 1.839 1.306 4.345.507 7.278-.4 1.866-.586 4.719-1.493 5.598-.906s1.12 3.546 1.306 5.518c.267 3.039.48 5.678 2.399 6.878a3.3 3.3 0 0 0 1.786.507 4.35 4.35 0 0 0 1.6-.32c5.252-1.999 10.077-6.052 13.649-11.383a44.03 44.03 0 0 0 1.28-2.079c.4.72.826 1.413 1.28 2.079 3.572 5.332 8.398 9.357 13.649 11.383.586.24 1.12.32 1.6.32a3.3 3.3 0 0 0 1.786-.507c1.919-1.2 2.133-3.812 2.399-6.878.16-1.973.427-4.932 1.306-5.518s3.706.32 5.598.906c2.906.906 5.438 1.706 7.278.4.64-.453 1.413-1.36 1.466-3.039.133-5.598-1.733-11.623-5.305-16.955-.906-1.36-1.919-2.639-2.986-3.839 1.493-.187 2.986-.453 4.452-.853 6.212-1.626 11.623-4.852 15.222-9.144 1.093-1.28 1.12-2.479.933-3.252-.56-2.159-2.986-3.252-5.758-4.505zM367.029 328.7c.666.507 1.733 1.866 2.426 2.719 2.026 2.506 4.292 5.358 7.251 5.358s5.252-2.853 7.251-5.358c.693-.853 1.786-2.213 2.426-2.719 2.719 3.892 4.185 9.064 4.185 14.609 0 3.919-.773 7.731-2.213 11.037-.586 1.333-1.28 2.586-2.079 3.706-1.146 1.626-2.479 2.959-3.919 3.919a10.39 10.39 0 0 1-3.679 1.6v-4.745c2.959-.88 5.145-3.626 5.145-6.851 0-3.946-3.199-7.145-7.145-7.145s-7.145 3.199-7.145 7.145c0 3.252 2.186 5.998 5.145 6.851v4.719c-1.093-.24-2.159-.666-3.199-1.306-.746-1.706-1.786-3.359-3.092-4.932-1.04-1.226-2.239-2.373-3.572-3.439-1.333-3.199-2.026-6.825-2.026-10.584.053-5.492 1.546-10.69 4.239-14.582zm14.049 42.948a10.66 10.66 0 0 0 .64 1.839v.027c.293.666.613 1.306 1.013 1.919a12.26 12.26 0 0 0-3.412 1.653l-.027.027c-.107.08-.24.16-.347.24a13.93 13.93 0 0 0-2.186 1.973 13.93 13.93 0 0 0-2.186-1.973c-.107-.08-.24-.16-.347-.24l-.027-.027c-1.066-.72-2.213-1.253-3.412-1.653.4-.613.72-1.253 1.013-1.946.267-.613.48-1.226.64-1.866a13.26 13.26 0 0 0 .373-4.479c1.306.4 2.613.613 3.946.613s2.666-.213 3.946-.613a13.36 13.36 0 0 0 .373 4.505zm-4.345-16.555c-1.759 0-3.172-1.413-3.172-3.146s1.413-3.146 3.146-3.146 3.146 1.413 3.146 3.146c.027 1.733-1.386 3.146-3.119 3.146zm-44.601 16.129c.64-.507 2.239-1.226 3.252-1.68 2.932-1.306 6.265-2.799 7.011-5.678s-1.44-5.785-3.359-8.371c-.666-.88-1.706-2.266-2.026-3.039 4.452-1.653 9.837-1.786 15.196-.4 3.652.96 7.038 2.559 9.811 4.665 1.28.986 2.426 2.053 3.386 3.172 1.2 1.413 2.079 2.879 2.666 4.425.773 2.026.96 4.052.533 5.972l-6.585-1.813c-.053-3.092-2.106-5.918-5.252-6.798-.613-.16-1.253-.267-1.893-.267a7.16 7.16 0 0 0-6.878 5.252 7.18 7.18 0 0 0 4.985 8.797c.613.16 1.253.267 1.893.267a7.2 7.2 0 0 0 6.078-3.386l5.945 1.653c-.187.267-.427.533-.64.8-2.239 0-4.559.453-6.931 1.333-2.293.88-4.505 2.159-6.611 3.786-2.479.027-5.012-.293-7.518-.933-5.332-1.413-9.97-4.159-13.063-7.758zm25.779-1.813c0 .027 0 .027 0 0 0 .027 0 .027 0 0a3.17 3.17 0 0 1-3.039 2.319 3.12 3.12 0 0 1-.853-.107c-1.68-.453-2.666-2.213-2.186-3.866a3.17 3.17 0 0 1 3.039-2.319 3.12 3.12 0 0 1 .853.107c1.68.48 2.666 2.213 2.186 3.866zm2.613 45.56c-.267-.773-.427-2.506-.507-3.599-.267-3.199-.586-6.851-3.066-8.478-2.479-1.653-5.945-.56-9.011.427-1.04.32-2.719.853-3.546.906-.08-4.745 1.546-9.864 4.639-14.476 1.626-2.426 3.546-4.532 5.678-6.292 1.919-1.573 3.972-2.773 6.078-3.572 2.159-.826 4.239-1.173 6.185-1.066 1.226.08 2.373.347 3.412.8l-4.879 6.345a7.2 7.2 0 0 0-2.586-.507 7.12 7.12 0 0 0-5.678 2.799c-2.399 3.119-1.813 7.624 1.306 10.024 1.253.96 2.773 1.493 4.345 1.493a7.12 7.12 0 0 0 5.678-2.799 6.97 6.97 0 0 0 1.413-5.278 7.32 7.32 0 0 0-1.306-3.306l4.985-6.478a12.88 12.88 0 0 1 .773.933c-1.04 2.213-1.626 4.825-1.706 7.598-.08 3.306.56 6.851 1.839 10.29-.666 1.52-1.493 3.012-2.453 4.452-3.066 4.559-7.198 8.051-11.597 9.784zm4.292-24.9a3.1 3.1 0 0 1 1.2 2.106 3.05 3.05 0 0 1-.64 2.319c-.613.773-1.52 1.226-2.506 1.226-.693 0-1.36-.213-1.919-.666-1.386-1.066-1.626-3.039-.586-4.425.613-.773 1.52-1.226 2.506-1.226.746.027 1.386.24 1.946.666zm44.254 14.103c-.826-.053-2.479-.586-3.546-.906-3.066-.96-6.531-2.053-9.011-.4s-2.773 5.278-3.066 8.478c-.107 1.093-.24 2.826-.507 3.599-4.425-1.733-8.531-5.199-11.597-9.811-1.12-1.653-2.026-3.412-2.773-5.172-1.306-3.172-1.946-6.425-1.866-9.437.08-2.586.666-4.932 1.759-6.798a10.12 10.12 0 0 1 1.333-1.839l4.985 6.478a7.2 7.2 0 0 0 .107 8.584 7.16 7.16 0 0 0 5.678 2.799c1.6 0 3.092-.507 4.345-1.493 3.119-2.399 3.706-6.905 1.306-10.024a7.16 7.16 0 0 0-5.678-2.799c-.906 0-1.786.16-2.586.507l-4.879-6.345c.826-.347 1.68-.586 2.613-.72 1.626 1.386 3.572 2.533 5.812 3.386 2.399.906 4.985 1.44 7.758 1.6a28.27 28.27 0 0 1 5.199 5.865c3.066 4.585 4.692 9.731 4.612 14.449zm-20.421-14.103a3.16 3.16 0 0 1 1.919-.666c.986 0 1.893.453 2.506 1.226a3.15 3.15 0 0 1-.586 4.425 3.16 3.16 0 0 1-1.919.666c-.986 0-1.893-.453-2.506-1.226-.507-.666-.746-1.493-.64-2.319a3.37 3.37 0 0 1 1.226-2.106zm19.594-11.117a28.64 28.64 0 0 1-8.158.933c-2.586-.08-4.985-.56-7.171-1.386-2.053-.773-3.786-1.839-5.145-3.146l-.16-.16c-.373-.4-.746-.8-1.04-1.226l5.945-1.653a7.2 7.2 0 0 0 6.078 3.386c.64 0 1.28-.08 1.893-.267 3.812-1.04 6.025-4.985 4.985-8.797a7.16 7.16 0 0 0-6.878-5.252c-.64 0-1.28.08-1.893.267-3.119.853-5.199 3.706-5.252 6.798l-6.585 1.813c-.373-1.759-.267-3.572.347-5.412 1.626-1.173 3.092-2.719 4.399-4.532.853-1.2 1.6-2.506 2.239-3.892 2.693-1.973 5.945-3.492 9.437-4.399 5.358-1.386 10.744-1.253 15.196.4-.32.773-1.36 2.159-2.026 3.039-1.919 2.586-4.105 5.492-3.359 8.371s4.079 4.372 7.011 5.678c1.013.453 2.586 1.173 3.252 1.68-3.119 3.626-7.758 6.372-13.116 7.758zm-10.504-13.409c.267-.08.56-.107.853-.107a3.17 3.17 0 0 1 3.039 2.319c.453 1.68-.533 3.412-2.186 3.866-.267.08-.56.107-.853.107h0a3.17 3.17 0 0 1-3.039-2.319c-.48-1.653.507-3.386 2.186-3.866zm-328.005.346c-1.786-.8-4.505-2.026-4.772-3.039s1.52-3.412 2.693-4.985c1.839-2.453 3.412-4.559 2.773-6.718-.213-.746-.826-1.786-2.399-2.373-5.252-1.973-11.543-2.186-17.755-.586-2.239.586-4.425 1.386-6.425 2.399.533-2.346.8-4.799.8-7.278 0-6.398-1.786-12.476-5.012-17.035-.986-1.386-2.106-1.706-2.906-1.706-2.266-.053-3.892 1.999-5.812 4.372-1.226 1.546-3.092 3.866-4.132 3.866s-2.906-2.319-4.132-3.866c-1.919-2.373-3.546-4.425-5.812-4.372-.8.027-1.946.347-2.906 1.706-3.252 4.585-5.012 10.637-5.012 17.035 0 2.479.267 4.932.8 7.278a33.15 33.15 0 0 0-6.425-2.399c-6.212-1.6-12.503-1.413-17.755.586-1.573.586-2.186 1.626-2.399 2.373-.64 2.159.933 4.292 2.773 6.718 1.173 1.573 2.959 3.972 2.693 4.985s-2.986 2.239-4.772 3.039c-2.799 1.253-5.199 2.319-5.705 4.532-.187.773-.16 1.946.933 3.252 3.626 4.292 9.037 7.544 15.222 9.144 1.493.373 2.986.666 4.452.853-1.066 1.173-2.053 2.453-2.986 3.812-3.572 5.332-5.438 11.357-5.305 16.955.053 1.68.826 2.586 1.466 3.039 1.839 1.306 4.345.507 7.278-.4 1.866-.586 4.719-1.493 5.598-.906s1.12 3.546 1.306 5.518c.267 3.039.48 5.678 2.399 6.878a3.3 3.3 0 0 0 1.786.507 4.35 4.35 0 0 0 1.6-.32c5.252-1.999 10.077-6.052 13.649-11.383a44.03 44.03 0 0 0 1.28-2.079c.4.72.826 1.413 1.28 2.079 3.572 5.332 8.398 9.357 13.649 11.383.586.24 1.12.32 1.6.32a3.3 3.3 0 0 0 1.786-.507c1.919-1.2 2.133-3.812 2.399-6.878.16-1.973.427-4.932 1.306-5.518s3.706.32 5.598.906c2.906.906 5.438 1.706 7.278.4.64-.453 1.413-1.36 1.466-3.039.133-5.598-1.733-11.623-5.305-16.955-.906-1.36-1.919-2.639-2.986-3.839 1.493-.187 2.986-.453 4.452-.853 6.212-1.626 11.623-4.852 15.222-9.144 1.093-1.28 1.12-2.479.933-3.252-.56-2.159-2.986-3.252-5.758-4.505zM17.029 328.7c.666.507 1.733 1.866 2.426 2.719 2.026 2.506 4.292 5.358 7.251 5.358s5.252-2.853 7.251-5.358c.693-.853 1.786-2.213 2.426-2.719 2.719 3.892 4.185 9.064 4.185 14.609 0 3.919-.773 7.731-2.213 11.037-.586 1.333-1.28 2.586-2.079 3.706-1.146 1.626-2.479 2.959-3.919 3.919a10.39 10.39 0 0 1-3.679 1.6v-4.745c2.959-.88 5.145-3.626 5.145-6.851 0-3.946-3.199-7.145-7.145-7.145s-7.145 3.199-7.145 7.145c0 3.252 2.186 5.998 5.145 6.851v4.719c-1.093-.24-2.159-.666-3.199-1.306-.746-1.706-1.786-3.359-3.092-4.932-1.04-1.226-2.239-2.373-3.572-3.439-1.333-3.199-2.026-6.825-2.026-10.584.053-5.492 1.546-10.69 4.239-14.582zm14.049 42.948a10.66 10.66 0 0 0 .64 1.839v.027c.293.666.613 1.306 1.013 1.919a12.26 12.26 0 0 0-3.412 1.653l-.027.027c-.107.08-.24.16-.347.24a13.93 13.93 0 0 0-2.186 1.973 13.93 13.93 0 0 0-2.186-1.973c-.107-.08-.24-.16-.347-.24l-.027-.027c-1.066-.72-2.213-1.253-3.412-1.653.4-.613.72-1.253 1.013-1.946.267-.613.48-1.226.64-1.866a13.26 13.26 0 0 0 .373-4.479c1.306.4 2.613.613 3.946.613s2.666-.213 3.946-.613a13.36 13.36 0 0 0 .373 4.505zm-4.345-16.555c-1.759 0-3.172-1.413-3.172-3.146s1.413-3.146 3.146-3.146 3.146 1.413 3.146 3.146c.027 1.733-1.386 3.146-3.119 3.146zm-44.601 16.129c.64-.507 2.239-1.226 3.252-1.68 2.932-1.306 6.265-2.799 7.011-5.678s-1.44-5.785-3.359-8.371c-.666-.88-1.706-2.266-2.026-3.039 4.452-1.653 9.837-1.786 15.196-.4 3.652.96 7.038 2.559 9.811 4.665 1.28.986 2.426 2.053 3.386 3.172 1.2 1.413 2.079 2.879 2.666 4.425.773 2.026.96 4.052.533 5.972l-6.585-1.813c-.053-3.092-2.106-5.918-5.252-6.798-.613-.16-1.253-.267-1.893-.267a7.16 7.16 0 0 0-6.878 5.252 7.18 7.18 0 0 0 4.985 8.797c.613.16 1.253.267 1.893.267a7.2 7.2 0 0 0 6.078-3.386l5.945 1.653c-.187.267-.427.533-.64.8-2.239 0-4.559.453-6.931 1.333-2.293.88-4.505 2.159-6.611 3.786-2.479.027-5.012-.293-7.518-.933-5.332-1.413-9.97-4.159-13.063-7.758zm25.779-1.813c0 .027 0 .027 0 0 0 .027 0 .027 0 0a3.17 3.17 0 0 1-3.039 2.319 3.12 3.12 0 0 1-.853-.107c-1.68-.453-2.666-2.213-2.186-3.866a3.17 3.17 0 0 1 3.039-2.319 3.12 3.12 0 0 1 .853.107c1.68.48 2.666 2.213 2.186 3.866zm2.613 45.56c-.267-.773-.427-2.506-.507-3.599-.267-3.199-.586-6.851-3.066-8.478-2.479-1.653-5.945-.56-9.011.427-1.04.32-2.719.853-3.546.906-.08-4.745 1.546-9.864 4.639-14.476 1.626-2.426 3.546-4.532 5.678-6.292 1.919-1.573 3.972-2.773 6.078-3.572 2.159-.826 4.239-1.173 6.185-1.066 1.226.08 2.373.347 3.412.8l-4.879 6.345a7.2 7.2 0 0 0-2.586-.507 7.12 7.12 0 0 0-5.678 2.799c-2.399 3.119-1.813 7.624 1.306 10.024 1.253.96 2.773 1.493 4.345 1.493a7.12 7.12 0 0 0 5.678-2.799 6.97 6.97 0 0 0 1.413-5.278 7.32 7.32 0 0 0-1.306-3.306l4.985-6.478a12.88 12.88 0 0 1 .773.933c-1.04 2.213-1.626 4.825-1.706 7.598-.08 3.306.56 6.851 1.839 10.29-.666 1.52-1.493 3.012-2.453 4.452-3.066 4.559-7.198 8.051-11.597 9.784zm4.292-24.9a3.1 3.1 0 0 1 1.2 2.106 3.05 3.05 0 0 1-.64 2.319c-.613.773-1.52 1.226-2.506 1.226-.693 0-1.36-.213-1.919-.666-1.386-1.066-1.626-3.039-.586-4.425.613-.773 1.52-1.226 2.506-1.226.746.027 1.386.24 1.946.666zm44.254 14.103c-.826-.053-2.479-.586-3.546-.906-3.066-.96-6.531-2.053-9.011-.4s-2.773 5.278-3.066 8.478c-.107 1.093-.24 2.826-.507 3.599-4.425-1.733-8.531-5.199-11.597-9.811-1.12-1.653-2.026-3.412-2.773-5.172-1.306-3.172-1.946-6.425-1.866-9.437.08-2.586.666-4.932 1.759-6.798a10.12 10.12 0 0 1 1.333-1.839l4.985 6.478a7.2 7.2 0 0 0 .107 8.584 7.16 7.16 0 0 0 5.678 2.799c1.6 0 3.092-.507 4.345-1.493 3.119-2.399 3.706-6.905 1.306-10.024a7.16 7.16 0 0 0-5.678-2.799c-.906 0-1.786.16-2.586.507l-4.879-6.345c.826-.347 1.68-.586 2.613-.72 1.626 1.386 3.572 2.533 5.812 3.386 2.399.906 4.985 1.44 7.758 1.6a28.27 28.27 0 0 1 5.199 5.865c3.066 4.585 4.692 9.731 4.612 14.449zm-20.421-14.103a3.16 3.16 0 0 1 1.919-.666c.986 0 1.893.453 2.506 1.226a3.15 3.15 0 0 1-.586 4.425 3.16 3.16 0 0 1-1.919.666c-.986 0-1.893-.453-2.506-1.226-.507-.666-.746-1.493-.64-2.319a3.37 3.37 0 0 1 1.226-2.106zm19.594-11.117a28.64 28.64 0 0 1-8.158.933c-2.586-.08-4.985-.56-7.171-1.386-2.053-.773-3.786-1.839-5.145-3.146l-.16-.16c-.373-.4-.746-.8-1.04-1.226l5.945-1.653a7.2 7.2 0 0 0 6.078 3.386c.64 0 1.28-.08 1.893-.267 3.812-1.04 6.025-4.985 4.985-8.797a7.16 7.16 0 0 0-6.878-5.252c-.64 0-1.28.08-1.893.267-3.119.853-5.199 3.706-5.252 6.798l-6.585 1.813c-.373-1.759-.267-3.572.347-5.412 1.626-1.173 3.092-2.719 4.399-4.532.853-1.2 1.6-2.506 2.239-3.892 2.693-1.973 5.945-3.492 9.437-4.399 5.358-1.386 10.744-1.253 15.196.4-.32.773-1.36 2.159-2.026 3.039-1.919 2.586-4.105 5.492-3.359 8.371s4.079 4.372 7.011 5.678c1.013.453 2.586 1.173 3.252 1.68-3.119 3.626-7.758 6.372-13.116 7.758zm-10.503-13.41c.267-.08.56-.107.853-.107a3.17 3.17 0 0 1 3.039 2.319c.453 1.68-.533 3.412-2.186 3.866-.267.08-.56.107-.853.107h0a3.17 3.17 0 0 1-3.039-2.319c-.48-1.653.507-3.386 2.186-3.866z"/><g transform="matrix(.201766 -.069081 .069081 .201766 252.5673 168.1537)"><use xlink:href="#C"/><use xlink:href="#D"/></g><g transform="matrix(.071174 .085631 -.085631 .071174 117.19076 26.842188)"><use xlink:href="#E"/><use xlink:href="#F"/></g><g transform="matrix(.074784 -.048925 .048925 .074784 307.77313 291.23752)"><use xlink:href="#E"/><use xlink:href="#F"/></g><path d="M294.023 293.179l5.241-6.279c.195-.227.238-.54.13-.821s-.367-.475-.659-.508l-8.829-1.005-1.264-7.803a.81.81 0 0 0-.486-.616.83.83 0 0 0-.778.076l-7.068 4.885-7.165-4.777a.8.8 0 0 0-.778-.065c-.259.119-.432.346-.475.627l-1.113 7.813-8.797 1.146c-.292.043-.551.238-.648.519a.81.81 0 0 0 .14.821l5.371 6.192-5.241 6.279c-.195.227-.238.54-.13.821s.367.475.659.508l8.829 1.005 1.275 7.803a.81.81 0 0 0 .486.616c.097.043.205.065.313.065a.9.9 0 0 0 .465-.14l7.068-4.885 7.165 4.777a.8.8 0 0 0 .778.065c.259-.119.432-.346.475-.627l1.113-7.813 8.797-1.146c.292-.043.551-.238.648-.519a.81.81 0 0 0-.14-.821zm-4.766 7.143c-.357.043-.648.324-.702.692l-1.027 7.154-6.549-4.366c-.281-.184-.638-.184-.908.011l-6.462 4.474-1.167-7.143a.79.79 0 0 0-.713-.67l-7.943-.908 4.723-5.652c.259-.303.249-.746-.011-1.048l-4.82-5.587 7.911-1.027c.357-.043.648-.324.702-.692l1.027-7.154 6.549 4.366c.281.184.638.184.908-.011l6.462-4.474 1.167 7.143a.79.79 0 0 0 .713.67l7.943.908-4.723 5.652c-.259.303-.249.746.011 1.048l4.831 5.576zm-1.988-9.261c-.94 0-1.74.584-2.075 1.416h-2.161c-.054-.162-.119-.313-.195-.465l1.524-1.524c.281.119.584.184.886.184a2.22 2.22 0 0 0 1.578-.648 2.21 2.21 0 0 0 .648-1.578c0-.595-.227-1.156-.648-1.578a2.21 2.21 0 0 0-1.578-.648c-.595 0-1.156.227-1.578.648a2.22 2.22 0 0 0-.465 2.464l-1.524 1.524a3.59 3.59 0 0 0-.465-.195V288.5a2.23 2.23 0 0 0 1.416-2.075c0-1.232-.994-2.226-2.226-2.226s-2.226.994-2.226 2.226c0 .94.584 1.74 1.416 2.075v2.161c-.162.054-.313.119-.465.195l-1.524-1.524a2.22 2.22 0 0 0-.465-2.464c-.421-.421-.983-.648-1.578-.648s-1.156.227-1.578.648a2.21 2.21 0 0 0-.648 1.578c0 .595.227 1.156.648 1.578a2.21 2.21 0 0 0 1.578.648 2.2 2.2 0 0 0 .886-.184l1.524 1.524a3.59 3.59 0 0 0-.195.465h-2.161a2.23 2.23 0 0 0-2.075-1.416c-1.232 0-2.226.994-2.226 2.226s.994 2.226 2.226 2.226c.94 0 1.74-.584 2.075-1.416h2.161c.054.162.119.313.195.465l-1.524 1.524c-.281-.119-.584-.184-.886-.184a2.22 2.22 0 0 0-1.578.648 2.21 2.21 0 0 0-.648 1.578c0 .595.227 1.156.648 1.578a2.21 2.21 0 0 0 1.578.648c.595 0 1.156-.227 1.578-.648a2.22 2.22 0 0 0 .465-2.464l1.524-1.524a3.59 3.59 0 0 0 .465.195v2.161a2.23 2.23 0 0 0-1.416 2.075c0 1.232.994 2.226 2.226 2.226s2.226-.994 2.226-2.226c0-.94-.584-1.74-1.416-2.075v-2.161c.162-.054.313-.119.465-.195l1.524 1.524a2.22 2.22 0 0 0 .465 2.464c.421.421.983.648 1.578.648s1.156-.227 1.578-.648a2.21 2.21 0 0 0 .648-1.578c0-.595-.227-1.156-.648-1.578a2.21 2.21 0 0 0-1.578-.648 2.2 2.2 0 0 0-.886.184l-1.524-1.524a3.59 3.59 0 0 0 .195-.465h2.161a2.23 2.23 0 0 0 2.075 1.416c1.232 0 2.226-.994 2.226-2.226s-.994-2.226-2.226-2.226zm-7.954 2.226a1.113 1.113 0 1 1 2.226 0 1.113 1.113 0 1 1-2.226 0zm5.522-5.263c.119-.119.27-.173.432-.173s.313.065.432.173c.119.119.173.27.173.432s-.065.313-.173.432c-.119.119-.27.173-.432.173s-.313-.065-.432-.173c-.227-.249-.227-.638 0-.865zm-4.409-2.183c.335 0 .605.27.605.605s-.27.605-.605.605-.605-.27-.605-.605.27-.605.605-.605zm-5.263 3.037a.59.59 0 0 1-.173-.421c0-.162.065-.313.173-.432.119-.119.27-.173.432-.173s.313.065.432.173a.6.6 0 0 1 0 .854.59.59 0 0 1-.421.173.61.61 0 0 1-.443-.173zm-1.578 5.014c-.335 0-.605-.27-.605-.605s.27-.605.605-.605.605.27.605.605a.61.61 0 0 1-.605.605zm2.432 4.658c-.119.119-.27.173-.432.173s-.313-.065-.432-.173c-.119-.119-.173-.27-.173-.432s.065-.313.173-.432c.119-.119.27-.173.432-.173s.313.065.421.173c.238.249.238.638.011.865zm4.409 2.183c-.335 0-.605-.27-.605-.605s.27-.605.605-.605.605.27.605.605-.27.605-.605.605zm5.263-3.037c.119.119.173.27.173.432s-.065.313-.173.432c-.119.119-.27.173-.432.173s-.313-.065-.432-.173a.6.6 0 0 1 0-.854.59.59 0 0 1 .421-.173c.184-.011.335.054.443.162zm1.578-3.804c-.335 0-.605-.27-.605-.605s.27-.605.605-.605.605.27.605.605-.27.605-.605.605z"/><use xlink:href="#B" transform="matrix(.091367 .081567 -.081567 .091367 75.209258 178.8484)"/><g transform="matrix(.138634 .102649 -.102649 .138634 295.19708 27.556279)"><use xlink:href="#C"/><use xlink:href="#D"/></g><g stroke="#fff" fill-rule="evenodd"><g transform="matrix(.062759 .019884 -.019884 .062759 212.29963 295.08425)"><use xlink:href="#G"/><use xlink:href="#H"/><use xlink:href="#I"/><use xlink:href="#J"/><use xlink:href="#K"/><use xlink:href="#L"/><use xlink:href="#M"/><use xlink:href="#N"/><use xlink:href="#O"/><use xlink:href="#P"/><use xlink:href="#Q"/><use xlink:href="#R"/><use xlink:href="#S"/><use xlink:href="#T"/><use xlink:href="#U"/></g><g transform="matrix(.078619 -.069298 .069298 .078619 162.37681 95.748775)"><use xlink:href="#G"/><use xlink:href="#H"/><use xlink:href="#I"/><use xlink:href="#J"/><use xlink:href="#K"/><use xlink:href="#L"/><use xlink:href="#M"/><use xlink:href="#N"/><use xlink:href="#O"/><use xlink:href="#P"/><use xlink:href="#Q"/><use xlink:href="#R"/><use xlink:href="#S"/><use xlink:href="#T"/><use xlink:href="#U"/></g></g><g transform="matrix(.201766 -.069081 .069081 .201766 -97.4327 168.1537)"><use xlink:href="#C"/><use xlink:href="#D"/></g><g transform="matrix(.074784 -.048925 .048925 .074784 -42.22687 291.23752)"><use xlink:href="#E"/><use xlink:href="#F"/></g><path d="M190.925-2.081c.094-1.006-.376-1.797-1.314-2.186-.617-.268-1.355-.335-2.146-.416-.912-.08-1.945-.188-2.361-.617-.429-.429-.523-1.462-.617-2.361-.067-.751-.134-1.449-.376-2.052-.483-1.234-1.449-1.408-1.985-1.408-.08 0-.161 0-.255.013-2.133.201-4.212 1.073-5.982 2.481-.255-2.253-1.113-4.332-2.481-5.982-.55-.671-1.18-.805-1.596-.805-.979 0-1.797.684-2.683 1.408-.697.577-1.502 1.247-2.106 1.247s-1.395-.657-2.106-1.247c-.872-.724-1.703-1.408-2.683-1.408-.429 0-1.046.134-1.596.805-1.368 1.65-2.213 3.729-2.481 5.982-1.771-1.408-3.85-2.28-5.982-2.481-.08-.013-.174-.013-.255-.013-.537 0-1.502.188-1.985 1.408-.228.604-.295 1.301-.376 2.052-.08.912-.188 1.945-.617 2.361-.429.429-1.462.523-2.361.617-.778.08-1.529.148-2.146.416-.939.402-1.408 1.18-1.314 2.186.241 2.575 1.462 5.07 3.434 7.042a12.37 12.37 0 0 0 2.924 2.173c-1.06.563-2.052 1.288-2.924 2.173-1.972 1.972-3.192 4.48-3.434 7.042-.094 1.006.376 1.797 1.314 2.186.617.268 1.355.335 2.146.416.912.08 1.945.188 2.361.617.429.429.523 1.462.617 2.361.067.751.134 1.449.376 2.052.483 1.234 1.449 1.408 1.985 1.408.08 0 .161 0 .255-.013 2.133-.201 4.212-1.073 5.982-2.481.255 2.253 1.113 4.332 2.481 5.982.55.671 1.18.805 1.596.805.979 0 1.797-.684 2.683-1.408.697-.577 1.502-1.247 2.106-1.247s1.395.657 2.106 1.247c.872.724 1.703 1.408 2.683 1.408.429 0 1.046-.134 1.596-.805 1.368-1.65 2.213-3.729 2.481-5.982 1.771 1.408 3.85 2.28 5.982 2.481a1.67 1.67 0 0 0 .255.013c.537 0 1.502-.188 1.985-1.408.228-.604.295-1.301.376-2.052.08-.912.188-1.945.617-2.361.429-.429 1.462-.523 2.361-.617.778-.08 1.529-.148 2.146-.416.939-.402 1.408-1.18 1.314-2.186-.241-2.575-1.462-5.07-3.434-7.042a12.37 12.37 0 0 0-2.924-2.173c1.06-.563 2.052-1.288 2.924-2.173 1.972-1.972 3.192-4.48 3.434-7.042zm-9.376 8.236c-.443.107-.751.51-.751.979a1.02 1.02 0 0 0 .751.979c1.663.429 3.233 1.328 4.52 2.616 1.636 1.636 2.656 3.702 2.857 5.808v.107c-.215.174-1.1.255-1.636.309-1.247.121-2.656.255-3.595 1.194s-1.073 2.347-1.194 3.595c-.054.537-.134 1.422-.309 1.636h-.107c-2.106-.201-4.172-1.207-5.808-2.857l-.55-.604a.99.99 0 0 0-1.154-.268c-.402.161-.657.577-.617 1.006l.04.818c0 2.32-.738 4.493-2.092 6.13-.04.04-.054.067-.067.08-.268-.027-.966-.604-1.382-.939-.966-.791-2.066-1.703-3.38-1.703-1.328 0-2.428.899-3.38 1.703-.416.349-1.1.912-1.382.939-.013-.013-.04-.04-.067-.08-1.355-1.623-2.092-3.809-2.092-6.13l.04-.818c.027-.429-.215-.845-.617-1.006s-.872-.054-1.154.268l-.55.604c-1.636 1.636-3.702 2.656-5.808 2.857h-.107c-.174-.215-.255-1.1-.309-1.636-.121-1.247-.255-2.656-1.194-3.595s-2.347-1.073-3.595-1.194c-.537-.054-1.422-.134-1.636-.309v-.107c.201-2.106 1.207-4.172 2.857-5.808 1.288-1.288 2.844-2.186 4.52-2.616.443-.107.751-.51.751-.979a1.02 1.02 0 0 0-.751-.979c-1.663-.429-3.233-1.328-4.52-2.616-1.69-1.636-2.709-3.702-2.897-5.808v-.107c.215-.174 1.1-.255 1.636-.309 1.247-.121 2.656-.255 3.595-1.194s1.073-2.347 1.194-3.595c.054-.537.134-1.422.309-1.636h.107c2.106.201 4.172 1.207 5.808 2.857l.55.604a.99.99 0 0 0 1.154.268c.402-.161.657-.577.617-1.006l-.04-.818c0-2.32.738-4.493 2.092-6.13.04-.04.054-.067.067-.08.268.027.966.604 1.382.939.966.791 2.066 1.703 3.38 1.703 1.328 0 2.428-.899 3.38-1.703.416-.349 1.1-.912 1.382-.939a.51.51 0 0 1 .067.08c1.355 1.623 2.092 3.809 2.092 6.13l-.04.818c-.027.429.215.845.617 1.006s.872.054 1.154-.268l.55-.604c1.636-1.636 3.702-2.656 5.808-2.857h.107c.174.215.255 1.1.309 1.636.121 1.247.255 2.656 1.194 3.595s2.347 1.073 3.595 1.194c.537.054 1.422.134 1.636.309v.107c-.201 2.106-1.207 4.172-2.857 5.808-1.247 1.288-2.817 2.2-4.48 2.616zm-7.699-1.878l-3.018 1.167a4.19 4.19 0 0 0-2.777-2.334V.306c0-.55-.456-1.006-1.006-1.006s-1.006.456-1.006 1.006V3.11c-1.234.309-2.253 1.18-2.777 2.334l-3.018-1.167a1 1 0 0 0-1.301.577 1 1 0 0 0 .577 1.301l3.394 1.314c.08.993.51 1.891 1.167 2.562l-2.669 3.286c-.349.429-.282 1.06.148 1.422a1.04 1.04 0 0 0 .63.228.97.97 0 0 0 .778-.376l2.844-3.501c.389.121.791.188 1.221.188s.832-.067 1.221-.188l2.844 3.501a1.01 1.01 0 0 0 .778.376 1.01 1.01 0 0 0 .63-.228c.429-.349.496-.979.148-1.422L170 10.031a4.14 4.14 0 0 0 1.167-2.562l3.394-1.314a1 1 0 0 0 .577-1.301c-.188-.523-.778-.778-1.288-.577zm-8.933 2.857c0-.067 0-.148.013-.215.107-1.073 1.019-1.905 2.106-1.905 1.1 0 1.999.845 2.106 1.905.013.067.013.148.013.215a2.14 2.14 0 0 1-2.133 2.133c-1.18 0-2.106-.966-2.106-2.133z"/><g transform="matrix(-.008112 .065332 -.065332 -.008112 69.833608 101.27995)" fill-rule="evenodd" stroke="#fff"><use xlink:href="#G"/><use xlink:href="#H"/><use xlink:href="#I"/><use xlink:href="#J"/><use xlink:href="#K"/><use xlink:href="#L"/><use xlink:href="#M"/><use xlink:href="#N"/><use xlink:href="#O"/><use xlink:href="#P"/><use xlink:href="#Q"/><use xlink:href="#R"/><use xlink:href="#S"/><use xlink:href="#T"/><use xlink:href="#U"/></g><path d="M137.135 130.772l4.507-5.399c.167-.195.204-.465.112-.706a.69.69 0 0 0-.567-.437l-7.592-.864-1.087-6.709a.7.7 0 0 0-.418-.53.71.71 0 0 0-.669.065l-6.077 4.2-6.161-4.107a.69.69 0 0 0-.669-.056.7.7 0 0 0-.409.539l-.957 6.719-7.564.985c-.251.037-.474.204-.558.446-.093.242-.046.511.121.706l4.618 5.325-4.507 5.399c-.167.195-.204.465-.112.706a.69.69 0 0 0 .567.437l7.592.864 1.097 6.709a.7.7 0 0 0 .418.53.67.67 0 0 0 .269.056.77.77 0 0 0 .4-.121l6.077-4.2 6.161 4.107a.69.69 0 0 0 .669.056.7.7 0 0 0 .409-.539l.957-6.719 7.564-.985c.251-.037.474-.204.558-.446.093-.242.046-.511-.121-.706zm-4.098 6.142a.7.7 0 0 0-.604.595l-.883 6.152-5.631-3.754c-.242-.158-.548-.158-.781.009l-5.557 3.847-1.004-6.142a.68.68 0 0 0-.613-.576l-6.83-.781 4.061-4.86a.69.69 0 0 0-.009-.901l-4.144-4.804 6.802-.883a.7.7 0 0 0 .604-.595l.883-6.152 5.631 3.754c.242.158.548.158.781-.009l5.557-3.847 1.004 6.142a.68.68 0 0 0 .613.576l6.83.781-4.061 4.86a.69.69 0 0 0 .009.901l4.154 4.795zm-1.71-7.963c-.808 0-1.496.502-1.784 1.217h-1.859a3.02 3.02 0 0 0-.167-.4l1.31-1.31a1.97 1.97 0 0 0 .762.158c.511 0 .994-.195 1.357-.558s.558-.846.558-1.357-.195-.994-.558-1.357-.846-.558-1.357-.558-.994.195-1.357.558a1.91 1.91 0 0 0-.4 2.119l-1.31 1.31a3.02 3.02 0 0 0-.4-.167v-1.859a1.92 1.92 0 0 0 1.217-1.784 1.914 1.914 0 1 0-3.829 0c0 .808.502 1.496 1.217 1.784v1.859a3.02 3.02 0 0 0-.4.167l-1.31-1.31a1.91 1.91 0 0 0-.4-2.119c-.362-.362-.846-.558-1.357-.558s-.994.195-1.357.558-.558.846-.558 1.357.195.994.558 1.357.846.558 1.357.558a1.9 1.9 0 0 0 .762-.158l1.31 1.31a3.02 3.02 0 0 0-.167.4h-1.859a1.92 1.92 0 0 0-1.784-1.217 1.915 1.915 0 1 0 0 3.829c.808 0 1.496-.502 1.784-1.217h1.859a3.02 3.02 0 0 0 .167.4l-1.31 1.31a1.97 1.97 0 0 0-.762-.158c-.511 0-.994.195-1.357.558s-.558.846-.558 1.357.195.994.558 1.357.846.558 1.357.558.994-.195 1.357-.558a1.91 1.91 0 0 0 .4-2.119l1.31-1.31a3.02 3.02 0 0 0 .4.167v1.859a1.92 1.92 0 0 0-1.217 1.784 1.914 1.914 0 1 0 3.829 0c0-.808-.502-1.496-1.217-1.784v-1.859a3.02 3.02 0 0 0 .4-.167l1.31 1.31a1.91 1.91 0 0 0 .4 2.119c.362.362.846.558 1.357.558s.994-.195 1.357-.558.558-.846.558-1.357-.195-.994-.558-1.357-.846-.558-1.357-.558a1.9 1.9 0 0 0-.762.158l-1.31-1.31a3.02 3.02 0 0 0 .167-.4h1.859a1.92 1.92 0 0 0 1.784 1.217 1.915 1.915 0 1 0 0-3.829zm-6.839 1.914c0-.53.427-.957.957-.957s.957.427.957.957-.427.957-.957.957-.957-.427-.957-.957zm4.749-4.525a.51.51 0 0 1 .372-.149c.139 0 .269.056.372.149a.51.51 0 0 1 .149.372c0 .139-.056.269-.149.372a.51.51 0 0 1-.372.149c-.139 0-.269-.056-.372-.149-.195-.214-.195-.548 0-.743zm-3.791-1.877a.52.52 0 1 1 0 1.041.52.52 0 1 1 0-1.041zm-4.525 2.611c-.102-.102-.149-.232-.149-.362 0-.139.056-.269.149-.372a.51.51 0 0 1 .372-.149c.139 0 .269.056.372.149.204.204.204.53 0 .734-.102.102-.232.149-.362.149-.158 0-.288-.056-.381-.149zm-1.357 4.312a.52.52 0 1 1 .52-.521c0 .288-.242.52-.52.52zm2.091 4.005a.51.51 0 0 1-.372.149c-.139 0-.269-.056-.372-.149a.51.51 0 0 1-.149-.372c0-.139.056-.269.149-.372a.51.51 0 0 1 .372-.149c.139 0 .269.056.362.149.204.214.204.548.009.743zm3.791 1.877a.52.52 0 1 1 0-1.041.52.52 0 1 1 0 1.041zm4.525-2.611a.51.51 0 0 1 .149.372c0 .139-.056.269-.149.372a.51.51 0 0 1-.372.149c-.139 0-.269-.056-.372-.149-.204-.204-.204-.53 0-.734.102-.102.232-.149.362-.149.158-.009.288.046.381.139zm1.357-3.271a.52.52 0 1 1 0-1.041.52.52 0 1 1 0 1.041z"/><g transform="matrix(.034105 -.140563 .140563 .034105 207.94527 56.666861)"><use xlink:href="#E"/><use xlink:href="#F"/></g><g transform="matrix(.048884 -.008774 .008774 .048884 45.791997 276.51319)" fill-rule="evenodd" stroke="#fff"><use xlink:href="#G"/><use xlink:href="#H"/><use xlink:href="#I"/><use xlink:href="#J"/><use xlink:href="#K"/><use xlink:href="#L"/><use xlink:href="#M"/><use xlink:href="#N"/><use xlink:href="#O"/><use xlink:href="#P"/><use xlink:href="#Q"/><use xlink:href="#R"/><use xlink:href="#S"/><use xlink:href="#T"/><use xlink:href="#U"/></g><path d="M190.925 347.919c.094-1.006-.376-1.797-1.314-2.186-.617-.268-1.355-.335-2.146-.416-.912-.08-1.945-.188-2.361-.617-.429-.429-.523-1.462-.617-2.361-.067-.751-.134-1.449-.376-2.052-.483-1.234-1.449-1.408-1.985-1.408-.08 0-.161 0-.255.013-2.133.201-4.212 1.073-5.982 2.481-.255-2.253-1.113-4.332-2.481-5.982-.55-.671-1.18-.805-1.596-.805-.979 0-1.797.684-2.683 1.408-.697.577-1.502 1.247-2.106 1.247s-1.395-.657-2.106-1.247c-.872-.724-1.703-1.408-2.683-1.408-.429 0-1.046.134-1.596.805-1.368 1.65-2.213 3.729-2.481 5.982-1.771-1.408-3.85-2.28-5.982-2.481-.08-.013-.174-.013-.255-.013-.537 0-1.502.188-1.985 1.408-.228.604-.295 1.301-.376 2.052-.08.912-.188 1.945-.617 2.361-.429.429-1.462.523-2.361.617-.778.08-1.529.148-2.146.416-.939.402-1.408 1.18-1.314 2.186.241 2.575 1.462 5.07 3.434 7.042a12.37 12.37 0 0 0 2.924 2.173c-1.06.563-2.052 1.288-2.924 2.173-1.972 1.972-3.192 4.48-3.434 7.042-.094 1.006.376 1.797 1.314 2.186.617.268 1.355.335 2.146.416.912.08 1.945.188 2.361.617.429.429.523 1.462.617 2.361.067.751.134 1.449.376 2.052.483 1.234 1.449 1.408 1.985 1.408.08 0 .161 0 .255-.013 2.133-.201 4.212-1.073 5.982-2.481.255 2.253 1.113 4.332 2.481 5.982.55.671 1.18.805 1.596.805.979 0 1.797-.684 2.683-1.408.697-.577 1.502-1.247 2.106-1.247s1.395.657 2.106 1.247c.872.724 1.703 1.408 2.683 1.408.429 0 1.046-.134 1.596-.805 1.368-1.65 2.213-3.729 2.481-5.982 1.771 1.408 3.85 2.28 5.982 2.481a1.67 1.67 0 0 0 .255.013c.537 0 1.502-.188 1.985-1.408.228-.604.295-1.301.376-2.052.08-.912.188-1.945.617-2.361.429-.429 1.462-.523 2.361-.617.778-.08 1.529-.148 2.146-.416.939-.402 1.408-1.18 1.314-2.186-.241-2.575-1.462-5.07-3.434-7.042a12.37 12.37 0 0 0-2.924-2.173c1.06-.563 2.052-1.288 2.924-2.173 1.972-1.972 3.192-4.48 3.434-7.042zm-9.376 8.236c-.443.107-.751.51-.751.979a1.02 1.02 0 0 0 .751.979c1.663.429 3.233 1.328 4.52 2.616 1.636 1.636 2.656 3.702 2.857 5.808v.107c-.215.174-1.1.255-1.636.309-1.247.121-2.656.255-3.595 1.194s-1.073 2.347-1.194 3.595c-.054.537-.134 1.422-.309 1.636h-.107c-2.106-.201-4.172-1.207-5.808-2.857l-.55-.604a.99.99 0 0 0-1.154-.268c-.402.161-.657.577-.617 1.006l.04.818c0 2.32-.738 4.493-2.092 6.13-.04.04-.054.067-.067.08-.268-.027-.966-.604-1.382-.939-.966-.791-2.066-1.703-3.38-1.703-1.328 0-2.428.899-3.38 1.703-.416.349-1.1.912-1.382.939a.51.51 0 0 1-.067-.08c-1.355-1.623-2.092-3.809-2.092-6.13l.04-.818c.027-.429-.215-.845-.617-1.006s-.872-.054-1.154.268l-.55.604c-1.636 1.636-3.702 2.656-5.808 2.857h-.107c-.174-.215-.255-1.1-.309-1.636-.121-1.247-.255-2.656-1.194-3.595s-2.347-1.073-3.595-1.194c-.537-.054-1.422-.134-1.636-.309v-.107c.201-2.106 1.207-4.172 2.857-5.808 1.288-1.288 2.844-2.186 4.52-2.616.443-.107.751-.51.751-.979a1.02 1.02 0 0 0-.751-.979c-1.663-.429-3.233-1.328-4.52-2.616-1.69-1.636-2.709-3.702-2.897-5.808v-.107c.215-.174 1.1-.255 1.636-.309 1.247-.121 2.656-.255 3.595-1.194s1.073-2.347 1.194-3.595c.054-.537.134-1.422.309-1.636h.107c2.106.201 4.172 1.207 5.808 2.857l.55.604a.99.99 0 0 0 1.154.268c.402-.161.657-.577.617-1.006l-.04-.818c0-2.32.738-4.493 2.092-6.13.04-.04.054-.067.067-.08.268.027.966.604 1.382.939.966.791 2.066 1.703 3.38 1.703 1.328 0 2.428-.899 3.38-1.703.416-.349 1.1-.912 1.382-.939.013.013.04.04.067.08 1.355 1.623 2.092 3.809 2.092 6.13l-.04.818c-.027.429.215.845.617 1.006s.872.054 1.154-.268l.55-.604c1.636-1.636 3.702-2.656 5.808-2.857h.107c.174.215.255 1.1.309 1.636.121 1.247.255 2.656 1.194 3.595s2.347 1.073 3.595 1.194c.537.054 1.422.134 1.636.309v.107c-.201 2.106-1.207 4.172-2.857 5.808-1.247 1.288-2.817 2.2-4.48 2.616zm-7.699-1.878l-3.018 1.167a4.19 4.19 0 0 0-2.777-2.334v-2.803c0-.55-.456-1.006-1.006-1.006s-1.006.456-1.006 1.006v2.803c-1.234.309-2.253 1.18-2.777 2.334l-3.018-1.167a1.006 1.006 0 1 0-.724 1.878l3.394 1.314c.08.993.51 1.891 1.167 2.562l-2.669 3.286c-.349.429-.282 1.06.148 1.422a1.04 1.04 0 0 0 .63.228.97.97 0 0 0 .778-.376l2.844-3.501c.389.121.791.188 1.221.188s.832-.067 1.221-.188l2.844 3.501a1.01 1.01 0 0 0 .778.376 1.01 1.01 0 0 0 .63-.228c.429-.349.496-.979.148-1.422L170 360.031a4.14 4.14 0 0 0 1.167-2.562l3.394-1.314a1 1 0 0 0 .577-1.301c-.188-.523-.778-.778-1.288-.577zm-8.933 2.857c0-.067 0-.148.013-.215.107-1.073 1.019-1.905 2.106-1.905 1.1 0 1.999.845 2.106 1.905.013.067.013.148.013.215a2.14 2.14 0 0 1-2.133 2.133c-1.18 0-2.106-.966-2.106-2.133z"/></g><defs ><path id="B" d="M417.3 233.8c-6.7-3-16.9-7.6-17.9-11.4s5.7-12.8 10.1-18.7c6.9-9.2 12.8-17.1 10.4-25.2-.8-2.8-3.1-6.7-9-8.9-19.7-7.4-43.3-8.2-66.6-2.2-8.4 2.2-16.6 5.2-24.1 9 2-8.8 3-18 3-27.3 0-24-6.7-46.8-18.8-63.9-3.7-5.2-7.9-6.4-10.9-6.4-8.5-.2-14.6 7.5-21.8 16.4-4.6 5.8-11.6 14.5-15.5 14.5s-10.9-8.7-15.5-14.5c-7.2-8.9-13.3-16.6-21.8-16.4-3 .1-7.3 1.3-10.9 6.4-12.2 17.2-18.8 39.9-18.8 63.9 0 9.3 1 18.5 3 27.3-7.6-3.8-15.7-6.8-24.1-9-23.3-6-46.9-5.3-66.6 2.2-5.9 2.2-8.2 6.1-9 8.9-2.4 8.1 3.5 16.1 10.4 25.2 4.4 5.9 11.1 14.9 10.1 18.7s-11.2 8.4-17.9 11.4c-10.5 4.7-19.5 8.7-21.4 17-.7 2.9-.6 7.3 3.5 12.2 13.6 16.1 33.9 28.3 57.1 34.3 5.6 1.4 11.2 2.5 16.7 3.2-4 4.4-7.7 9.2-11.2 14.3-13.4 20-20.4 42.6-19.9 63.6.2 6.3 3.1 9.7 5.5 11.4 6.9 4.9 16.3 1.9 27.3-1.5 7-2.2 17.7-5.6 21-3.4s4.2 13.3 4.9 20.7c1 11.4 1.8 21.3 9 25.8 1.6 1 3.8 1.9 6.7 1.9 1.7 0 3.7-.3 6-1.2 19.7-7.5 37.8-22.7 51.2-42.7a164.17 164.17 0 0 0 4.8-7.8c1.5 2.7 3.1 5.3 4.8 7.8 13.4 20 31.5 35.1 51.2 42.7 2.2.9 4.2 1.2 6 1.2 2.9 0 5.1-.9 6.7-1.9 7.2-4.5 8-14.3 9-25.8.6-7.4 1.6-18.5 4.9-20.7s13.9 1.2 21 3.4c10.9 3.4 20.4 6.4 27.3 1.5 2.4-1.7 5.3-5.1 5.5-11.4.5-21-6.5-43.6-19.9-63.6-3.4-5.1-7.2-9.9-11.2-14.4 5.6-.7 11.2-1.7 16.7-3.2 23.3-6.1 43.6-18.2 57.1-34.3 4.1-4.8 4.2-9.3 3.5-12.2-2.1-8.1-11.2-12.2-21.6-16.9zM219.6 94.3c2.5 1.9 6.5 7 9.1 10.2 7.6 9.4 16.1 20.1 27.2 20.1s19.7-10.7 27.2-20.1c2.6-3.2 6.7-8.3 9.1-10.2 10.2 14.6 15.7 34 15.7 54.8 0 14.7-2.9 29-8.3 41.4-2.2 5-4.8 9.7-7.8 13.9-4.3 6.1-9.3 11.1-14.7 14.7-4.4 3-9.1 5-13.8 6v-17.8c11.1-3.3 19.3-13.6 19.3-25.7 0-14.8-12-26.8-26.8-26.8s-26.8 12-26.8 26.8c0 12.2 8.2 22.5 19.3 25.7V225c-4.1-.9-8.1-2.5-12-4.9-2.8-6.4-6.7-12.6-11.6-18.5-3.9-4.6-8.4-8.9-13.4-12.9-5-12-7.6-25.6-7.6-39.7.2-20.6 5.8-40.1 15.9-54.7zm52.7 161.1c.6 2.4 1.4 4.7 2.4 6.9v.1c1.1 2.5 2.3 4.9 3.8 7.2-4.6 1.4-8.9 3.5-12.8 6.2l-.1.1c-.4.3-.9.6-1.3.9-3 2.2-5.7 4.6-8.2 7.4-2.5-2.8-5.2-5.2-8.2-7.4-.4-.3-.9-.6-1.3-.9l-.1-.1c-4-2.7-8.3-4.7-12.8-6.2 1.5-2.3 2.7-4.7 3.8-7.3 1-2.3 1.8-4.6 2.4-7 1.4-5.4 1.9-11.1 1.4-16.8 4.9 1.5 9.8 2.3 14.8 2.3s10-.8 14.8-2.3c-.5 5.8 0 11.5 1.4 16.9zM256 193.3c-6.6 0-11.9-5.3-11.9-11.8s5.3-11.8 11.8-11.8 11.8 5.3 11.8 11.8c.1 6.5-5.2 11.8-11.7 11.8zM88.7 253.8c2.4-1.9 8.4-4.6 12.2-6.3 11-4.9 23.5-10.5 26.3-21.3s-5.4-21.7-12.6-31.4c-2.5-3.3-6.4-8.5-7.6-11.4 16.7-6.2 36.9-6.7 57-1.5 13.7 3.6 26.4 9.6 36.8 17.5 4.8 3.7 9.1 7.7 12.7 11.9 4.5 5.3 7.8 10.8 10 16.6 2.9 7.6 3.6 15.2 2 22.4l-24.7-6.8c-.2-11.6-7.9-22.2-19.7-25.5-2.3-.6-4.7-1-7.1-1-12 0-22.6 8.1-25.8 19.7-3.9 14.3 4.5 29 18.7 33 2.3.6 4.7 1 7.1 1 9.4 0 18-5 22.8-12.7l22.3 6.2c-.7 1-1.6 2-2.4 3-8.4 0-17.1 1.7-26 5-8.6 3.3-16.9 8.1-24.8 14.2-9.3.1-18.8-1.1-28.2-3.5-20-5.3-37.4-15.6-49-29.1zm96.7-6.8c0 .1 0 .1 0 0 0 .1 0 .1 0 0-1.4 5.1-6.1 8.7-11.4 8.7-1.1 0-2.1-.1-3.2-.4-6.3-1.7-10-8.3-8.2-14.5 1.4-5.1 6.1-8.7 11.4-8.7 1.1 0 2.1.1 3.2.4 6.3 1.8 10 8.3 8.2 14.5zm9.8 170.9c-1-2.9-1.6-9.4-1.9-13.5-1-12-2.2-25.7-11.5-31.8-9.3-6.2-22.3-2.1-33.8 1.6-3.9 1.2-10.2 3.2-13.3 3.4-.3-17.8 5.8-37 17.4-54.3 6.1-9.1 13.3-17 21.3-23.6 7.2-5.9 14.9-10.4 22.8-13.4 8.1-3.1 15.9-4.4 23.2-4 4.6.3 8.9 1.3 12.8 3l-18.3 23.8c-3.1-1.2-6.4-1.9-9.7-1.9-8.4 0-16.1 3.8-21.3 10.5-9 11.7-6.8 28.6 4.9 37.6 4.7 3.6 10.4 5.6 16.3 5.6 8.4 0 16.1-3.8 21.3-10.5 4.4-5.7 6.3-12.7 5.3-19.8-.6-4.5-2.3-8.8-4.9-12.4l18.7-24.3c1 1.1 2 2.3 2.9 3.5-3.9 8.3-6.1 18.1-6.4 28.5-.3 12.4 2.1 25.7 6.9 38.6-2.5 5.7-5.6 11.3-9.2 16.7-11.5 17.1-27 30.2-43.5 36.7zm16.1-93.4c2.5 1.9 4.1 4.7 4.5 7.9.4 3.1-.4 6.2-2.4 8.7-2.3 2.9-5.7 4.6-9.4 4.6-2.6 0-5.1-.8-7.2-2.5-5.2-4-6.1-11.4-2.2-16.6 2.3-2.9 5.7-4.6 9.4-4.6 2.8.1 5.2.9 7.3 2.5zm166 52.9c-3.1-.2-9.3-2.2-13.3-3.4-11.5-3.6-24.5-7.7-33.8-1.5s-10.4 19.8-11.5 31.8c-.4 4.1-.9 10.6-1.9 13.5-16.6-6.5-32-19.5-43.5-36.8-4.2-6.2-7.6-12.8-10.4-19.4-4.9-11.9-7.3-24.1-7-35.4.3-9.7 2.5-18.5 6.6-25.5 1.4-2.5 3.1-4.8 5-6.9l18.7 24.3c-2.6 3.6-4.3 7.8-4.9 12.4-.9 7.1 1 14.1 5.3 19.8 5.1 6.6 12.9 10.5 21.3 10.5 6 0 11.6-1.9 16.3-5.6 11.7-9 13.9-25.9 4.9-37.6-5.1-6.6-12.9-10.5-21.3-10.5-3.4 0-6.7.6-9.7 1.9l-18.3-23.8a39.41 39.41 0 0 1 9.8-2.7c6.1 5.2 13.4 9.5 21.8 12.7 9 3.4 18.7 5.4 29.1 6 7.3 6.2 13.9 13.6 19.5 22 11.5 17.2 17.6 36.5 17.3 54.2zm-76.6-52.9c2.1-1.6 4.6-2.5 7.2-2.5 3.7 0 7.1 1.7 9.4 4.6 4 5.2 3 12.6-2.2 16.6-2.1 1.6-4.6 2.5-7.2 2.5-3.7 0-7.1-1.7-9.4-4.6-1.9-2.5-2.8-5.6-2.4-8.7.5-3.1 2.1-5.9 4.6-7.9zm73.5-41.7c-10.3 2.7-20.5 3.8-30.6 3.5-9.7-.3-18.7-2.1-26.9-5.2-7.7-2.9-14.2-6.9-19.3-11.8l-.6-.6c-1.4-1.5-2.8-3-3.9-4.6l22.3-6.2c4.8 7.7 13.4 12.7 22.8 12.7 2.4 0 4.8-.3 7.1-1 14.3-3.9 22.6-18.7 18.7-33-3.2-11.6-13.8-19.7-25.8-19.7-2.4 0-4.8.3-7.1 1-11.7 3.2-19.5 13.9-19.7 25.5l-24.7 6.8c-1.4-6.6-1-13.4 1.3-20.3 6.1-4.4 11.6-10.2 16.5-17 3.2-4.5 6-9.4 8.4-14.6 10.1-7.4 22.3-13.1 35.4-16.5 20.1-5.2 40.3-4.7 57 1.5-1.2 2.9-5.1 8.1-7.6 11.4-7.2 9.7-15.4 20.6-12.6 31.4s15.3 16.4 26.3 21.3c3.8 1.7 9.7 4.4 12.2 6.3-11.7 13.6-29.1 23.9-49.2 29.1zm-39.4-50.3c1-.3 2.1-.4 3.2-.4 5.3 0 10 3.6 11.4 8.7 1.7 6.3-2 12.8-8.2 14.5-1 .3-2.1.4-3.2.4h0c-5.3 0-10-3.6-11.4-8.7-1.8-6.2 1.9-12.7 8.2-14.5z"/><path id="C" d="M434 187.3c.7-7.5-2.8-13.4-9.8-16.3-4.6-2-10.1-2.5-16-3.1-6.8-.6-14.5-1.4-17.6-4.6-3.2-3.2-3.9-10.9-4.6-17.6-.5-5.6-1-10.8-2.8-15.3-3.6-9.2-10.8-10.5-14.8-10.5-.6 0-1.2 0-1.9.1-15.9 1.5-31.4 8-44.6 18.5-1.9-16.8-8.3-32.3-18.5-44.6-4.1-5-8.8-6-11.9-6-7.3 0-13.4 5.1-20 10.5-5.2 4.3-11.2 9.3-15.7 9.3s-10.4-4.9-15.7-9.3c-6.5-5.4-12.7-10.5-20-10.5-3.2 0-7.8 1-11.9 6-10.2 12.3-16.5 27.8-18.5 44.6-13.2-10.5-28.7-17-44.6-18.5-.6-.1-1.3-.1-1.9-.1-4 0-11.2 1.4-14.8 10.5-1.7 4.5-2.2 9.7-2.8 15.3-.6 6.8-1.4 14.5-4.6 17.6-3.2 3.2-10.9 3.9-17.6 4.6-5.8.6-11.4 1.1-16 3.1-7 3-10.5 8.8-9.8 16.3 1.8 19.2 10.9 37.8 25.6 52.5 6.5 6.5 13.9 12 21.8 16.2-7.9 4.2-15.3 9.6-21.8 16.2-14.7 14.7-23.8 33.4-25.6 52.5-.7 7.5 2.8 13.4 9.8 16.3 4.6 2 10.1 2.5 16 3.1 6.8.6 14.5 1.4 17.6 4.6 3.2 3.2 3.9 10.9 4.6 17.6.5 5.6 1 10.8 2.8 15.3 3.6 9.2 10.8 10.5 14.8 10.5.6 0 1.2 0 1.9-.1 15.9-1.5 31.4-8 44.6-18.5 1.9 16.8 8.3 32.3 18.5 44.6 4.1 5 8.8 6 11.9 6 7.3 0 13.4-5.1 20-10.5 5.2-4.3 11.2-9.3 15.7-9.3s10.4 4.9 15.7 9.3c6.5 5.4 12.7 10.5 20 10.5 3.2 0 7.8-1 11.9-6 10.2-12.3 16.5-27.8 18.5-44.6 13.2 10.5 28.7 17 44.6 18.5.6.1 1.3.1 1.9.1 4 0 11.2-1.4 14.8-10.5 1.7-4.5 2.2-9.7 2.8-15.3.6-6.8 1.4-14.5 4.6-17.6 3.2-3.2 10.9-3.9 17.6-4.6 5.8-.6 11.4-1.1 16-3.1 7-3 10.5-8.8 9.8-16.3-1.8-19.2-10.9-37.8-25.6-52.5-6.5-6.5-13.9-12-21.8-16.2 7.9-4.2 15.3-9.6 21.8-16.2 14.7-14.7 23.8-33.4 25.6-52.5zm-69.9 61.4c-3.3.8-5.6 3.8-5.6 7.3 0 3.4 2.3 6.4 5.6 7.3 12.4 3.2 24.1 9.9 33.7 19.5 12.2 12.2 19.8 27.6 21.3 43.3v.8c-1.6 1.3-8.2 1.9-12.2 2.3-9.3.9-19.8 1.9-26.8 8.9s-8 17.5-8.9 26.8c-.4 4-1 10.6-2.3 12.2h-.8c-15.7-1.5-31.1-9-43.3-21.3-1.3-1.3-2.7-2.8-4.1-4.5-2.1-2.5-5.6-3.3-8.6-2-3 1.2-4.9 4.3-4.6 7.5.2 2.2.3 4.2.3 6.1 0 17.3-5.5 33.5-15.6 45.7-.3.3-.4.5-.5.6-2-.2-7.2-4.5-10.3-7-7.2-5.9-15.4-12.7-25.2-12.7-9.9 0-18.1 6.7-25.2 12.7-3.1 2.6-8.2 6.8-10.3 7-.1-.1-.3-.3-.5-.6-10.1-12.1-15.6-28.4-15.6-45.7 0-1.9.1-3.9.3-6.1.2-3.2-1.6-6.3-4.6-7.5s-6.5-.4-8.6 2c-1.5 1.7-2.8 3.2-4.1 4.5-12.2 12.2-27.6 19.8-43.3 21.3h-.8c-1.3-1.6-1.9-8.2-2.3-12.2-.9-9.3-1.9-19.8-8.9-26.8s-17.5-8-26.8-8.9c-4-.4-10.6-1-12.2-2.3v-.8c1.5-15.7 9-31.1 21.3-43.3 9.6-9.6 21.2-16.3 33.7-19.5 3.3-.8 5.6-3.8 5.6-7.3 0-3.4-2.3-6.4-5.6-7.3-12.4-3.2-24.1-9.9-33.7-19.5C102 217 94.4 201.6 93 185.9v-.8c1.6-1.3 8.2-1.9 12.2-2.3 9.3-.9 19.8-1.9 26.8-8.9s8-17.5 8.9-26.8c.4-4 1-10.6 2.3-12.2h.8c15.7 1.5 31.1 9 43.3 21.3 1.3 1.3 2.7 2.8 4.1 4.5 2.1 2.5 5.6 3.3 8.6 2 3-1.2 4.9-4.3 4.6-7.5-.2-2.2-.3-4.2-.3-6.1 0-17.3 5.5-33.5 15.6-45.7.3-.3.4-.5.5-.6 2 .2 7.2 4.5 10.3 7 7.2 5.9 15.4 12.7 25.2 12.7 9.9 0 18.1-6.7 25.2-12.7 3.1-2.6 8.2-6.8 10.3-7 .1.1.3.3.5.6 10.1 12.1 15.6 28.4 15.6 45.7 0 1.9-.1 3.9-.3 6.1-.2 3.2 1.6 6.3 4.6 7.5s6.5.4 8.6-2c1.5-1.7 2.8-3.2 4.1-4.5 12.2-12.2 27.6-19.8 43.3-21.3h.8c1.3 1.6 1.9 8.2 2.3 12.2.9 9.3 1.9 19.8 8.9 26.8s17.5 8 26.8 8.9c4 .4 10.6 1 12.2 2.3v.8c-1.5 15.7-9 31.1-21.3 43.3-9.3 9.6-21 16.4-33.4 19.5z"/><path id="D" d="M306.7 234.7l-22.5 8.7c-3.8-8.5-11.4-15-20.7-17.4v-20.9c0-4.1-3.4-7.5-7.5-7.5s-7.5 3.4-7.5 7.5V226c-9.2 2.3-16.8 8.8-20.7 17.4l-22.5-8.7c-3.9-1.5-8.2.4-9.7 4.3s.4 8.2 4.3 9.7l25.3 9.8a30.83 30.83 0 0 0 8.7 19.1L214 302.1c-2.6 3.2-2.1 7.9 1.1 10.6 1.4 1.1 3.1 1.7 4.7 1.7 2.2 0 4.3-.9 5.8-2.8l21.2-26.1c2.9.9 5.9 1.4 9.1 1.4s6.2-.5 9.1-1.4l21.2 26.1c1.5 1.8 3.6 2.8 5.8 2.8 1.7 0 3.3-.6 4.7-1.7 3.2-2.6 3.7-7.3 1.1-10.6L278 277.6a30.83 30.83 0 0 0 8.7-19.1l25.3-9.8c3.9-1.5 5.8-5.8 4.3-9.7-1.4-3.9-5.8-5.8-9.6-4.3zM240.1 256c0-.5 0-1.1.1-1.6.8-8 7.6-14.2 15.7-14.2 8.2 0 14.9 6.3 15.7 14.2.1.5.1 1.1.1 1.6 0 8.7-7.1 15.9-15.9 15.9s-15.7-7.2-15.7-15.9z"/><path id="E" d="M120.3 236c7.7 7.7 16.1 14.5 24.9 20-8.8 5.6-17.3 12.4-24.9 20-17.6 17.6-30 38.5-34.8 58.9-1.5 6.4.3 10.5 2.2 12.9 4 5.1 10.7 5.8 16.7 5.8 2.4 0 4.9-.1 7.3-.2s4.9-.2 7.3-.2c6.9 0 9.1 1.2 9.8 1.8 2.3 2.3 1.9 11.2 1.6 17.1-.4 9-.8 17.5 4.3 22.9 1.7 1.8 4.8 3.9 9.6 3.9 1.4 0 3-.2 4.6-.6 15.7-3.7 31.7-11.9 46.3-23.5 2.1 18.5 7.6 35.7 16.1 49.4 3.9 6.3 8.7 7.6 12.1 7.6 7.5 0 13.3-6.4 19.5-13.2 4-4.4 9.9-10.9 13.2-10.9s9.3 6.6 13.2 10.9c6.1 6.8 12 13.2 19.5 13.2 3.4 0 8.2-1.3 12.1-7.6 8.4-13.7 14-30.8 16.1-49.4 14.6 11.6 30.6 19.8 46.3 23.5 1.6.4 3.1.6 4.6.6 4.8 0 7.9-2.1 9.6-3.9 5.1-5.3 4.7-13.9 4.3-22.9-.3-5.9-.7-14.8 1.6-17.1.7-.7 2.9-1.8 9.8-1.8 2.3 0 4.8.1 7.3.2 2.4.1 4.9.2 7.3.2 6 0 12.7-.7 16.7-5.8 1.8-2.3 3.7-6.4 2.2-12.9-4.8-20.4-17.2-41.3-34.8-58.9-7.7-7.7-16.1-14.5-24.9-20 8.8-5.6 17.3-12.4 24.9-20 17.6-17.6 30-38.5 34.8-58.9 1.5-6.4-.3-10.5-2.2-12.9-4-5.1-10.7-5.8-16.7-5.8-2.4 0-4.9.1-7.3.2l-7.3.2c-6.9 0-9.1-1.2-9.8-1.8-2.3-2.3-1.9-11.2-1.6-17.1.4-9 .8-17.5-4.3-22.9-1.7-1.8-4.8-3.9-9.6-3.9-1.4 0-3 .2-4.6.6-15.7 3.7-31.7 11.9-46.3 23.5-2.1-18.5-7.6-35.7-16.1-49.4-3.9-6.3-8.7-7.6-12.1-7.6-7.5 0-13.3 6.4-19.5 13.2-4 4.4-9.9 10.9-13.2 10.9s-9.3-6.6-13.2-10.9c-6.1-6.8-12-13.2-19.5-13.2-3.4 0-8.2 1.3-12.1 7.6-8.4 13.7-14 30.8-16.1 49.4-14.6-11.6-30.6-19.8-46.3-23.5-1.6-.4-3.1-.6-4.6-.6-4.8 0-7.9 2.1-9.6 3.9-5.1 5.3-4.7 13.9-4.3 22.9.3 5.9.7 14.8-1.6 17.1-.7.7-2.9 1.8-9.8 1.8-2.3 0-4.8-.1-7.3-.2l-7.3-.2c-6 0-12.7.7-16.7 5.8-1.8 2.3-3.7 6.4-2.2 12.9 4.9 20.4 17.2 41.3 34.8 58.9zm-15.9-62.6c2 0 4.2.1 6.6.2 2.6.1 5.3.3 8 .3 6.6 0 14.9-.7 20.4-6.2 7-7 6.5-18.4 6-28.4-.2-3.3-.4-8.3 0-10.9 17.4 4.1 35.5 14.8 51 30.1 2.1 2.1 5.4 2.7 8.1 1.6 2.8-1.2 4.6-3.9 4.6-6.9.1-21.8 5.4-42.1 14.7-57.4 2.1 1.5 5.5 5.3 7.7 7.7 6.8 7.4 14.4 15.9 24.3 15.9s17.6-8.4 24.3-15.9c2.2-2.4 5.6-6.2 7.7-7.7 9.4 15.2 14.6 35.6 14.7 57.4 0 3 1.8 5.7 4.6 6.9s6 .5 8.1-1.6c15.5-15.3 33.6-26 51-30.1.4 2.6.2 7.6 0 10.9-.5 10-1 21.4 6 28.4 5.5 5.5 13.8 6.2 20.4 6.2 2.7 0 5.4-.1 8-.3l6.6-.2c2.1 0 3.5.1 4.3.3-4.2 17.7-15.1 36-30.8 51.6-10 10-21.3 18.2-32.9 23.9-2.6 1.3-4.2 3.9-4.2 6.7s1.6 5.5 4.2 6.7c11.6 5.7 23 14 32.9 23.9 15.6 15.6 26.6 34 30.8 51.6-.8.1-2.2.3-4.3.3-2 0-4.2-.1-6.6-.2-2.6-.1-5.3-.3-8-.3-6.6 0-14.9.7-20.4 6.2-7 7-6.5 18.4-6 28.4.2 3.3.4 8.3 0 10.9-17.4-4.1-35.5-14.8-51-30.1-2.1-2.1-5.4-2.7-8.1-1.6-2.8 1.2-4.6 3.9-4.6 6.9-.1 21.8-5.4 42.1-14.7 57.4-2.1-1.5-5.5-5.3-7.7-7.7-6.8-7.4-14.4-15.9-24.3-15.9s-17.6 8.4-24.3 15.9c-2.2 2.4-5.6 6.2-7.7 7.7-9.4-15.2-14.6-35.6-14.7-57.4 0-3-1.8-5.7-4.6-6.9s-6-.5-8.1 1.6c-15.5 15.3-33.6 26-51 30.1-.4-2.6-.2-7.6 0-10.9.5-10 1-21.4-6-28.4-5.5-5.5-13.8-6.2-20.4-6.2-2.7 0-5.4.1-8 .3l-6.6.2c-2.1 0-3.5-.1-4.3-.3 4.2-17.7 15.1-36 30.8-51.6 10-10 21.3-18.2 32.9-23.9 2.6-1.3 4.2-3.9 4.2-6.7s-1.6-5.5-4.2-6.7c-11.6-5.7-23-14-32.9-23.9-15.6-15.6-26.6-34-30.8-51.6.9-.1 2.2-.3 4.3-.3z"/><path id="F" d="M180 214.4l62.7 41.7-61.7 43.1c-3.4 2.4-4.2 7-1.9 10.4 1.5 2.1 3.8 3.2 6.2 3.2 1.5 0 3-.4 4.3-1.4l59-41.1V311c0 4.1 3.4 7.5 7.5 7.5s7.5-3.4 7.5-7.5v-41l60.2 40.1c1.3.9 2.7 1.3 4.1 1.3 2.4 0 4.8-1.2 6.3-3.3 2.3-3.4 1.4-8.1-2.1-10.4L269.4 256l61.7-43.1c3.4-2.4 4.2-7 1.9-10.4-2.4-3.4-7-4.2-10.4-1.9l-59 41.1V201c0-4.1-3.4-7.5-7.5-7.5s-7.5 3.4-7.5 7.5v41l-60.2-40.1c-3.4-2.3-8.1-1.4-10.4 2.1-2.4 3.5-1.4 8.1 2 10.4z"/><path id="G" d="M228.375 387.843c0 59.273-48.054 107.327-107.327 107.327-59.286 0-107.327-48.055-107.327-107.327s48.041-90.527 107.327-90.527c59.273 0 107.327 31.255 107.327 90.527"/><path id="H" d="M180.816 310.223c14.112 14.743 22.587 34.56 22.587 59.341 0 59.273-48.054 107.327-107.327 107.327a106.78 106.78 0 0 1-50.18-12.48c19.364 19.008 45.874 30.761 75.154 30.761 59.273 0 107.327-48.054 107.327-107.327 0-37.152-18.884-63.277-47.561-77.622"/><path id="I" d="M121.044 311.026c-43.186 0-93.613 20.119-93.613 76.827 0 51.606 41.993 93.613 93.613 93.613s93.613-42.007 93.613-93.613c0-56.708-50.427-76.827-93.613-76.827m0 197.868C54.297 508.894.003 454.6.003 387.853c0-62.358 48.644-104.255 121.041-104.255s121.041 41.897 121.041 104.255c0 66.747-54.294 121.041-121.041 121.041"/><path id="J" d="M121.044 375.833c-28.868 0-41.623-15.058-42.98-16.786-4.704-5.925-3.689-14.551 2.249-19.255 5.925-4.704 14.564-3.689 19.268 2.249.027 0 6.144 6.363 21.463 6.363 15.415 0 21.504-6.446 21.764-6.72 4.992-5.431 13.55-6.158 19.172-1.371s6.624 12.946 2.043 18.734c-1.358 1.728-14.112 16.786-42.98 16.786"/><path id="K" d="M97.165 400.233c-28.772 0-44.16-20.722-44.832-21.627-3.333-4.594-2.318-11.026 2.277-14.359 4.594-3.305 10.985-2.331 14.331 2.208.535.713 11.081 14.222 29.965 13.166 5.691-.617 10.478 4.155 10.724 9.833.247 5.664-4.155 10.478-9.833 10.711a57.29 57.29 0 0 1-2.633.069"/><path id="L" d="M482.875 387.843c0 59.273-48.055 107.327-107.327 107.327-59.286 0-107.327-48.055-107.327-107.327s48.041-90.527 107.327-90.527c59.273 0 107.327 31.255 107.327 90.527"/><path id="M" d="M435.316 310.223c14.112 14.743 22.587 34.56 22.587 59.341 0 59.273-48.055 107.327-107.327 107.327a106.78 106.78 0 0 1-50.18-12.48c19.364 19.008 45.874 30.761 75.154 30.761 59.273 0 107.327-48.054 107.327-107.327 0-37.152-18.884-63.277-47.561-77.622"/><path id="N" d="M375.547 311.026c-43.186 0-93.613 20.119-93.613 76.827 0 51.606 41.993 93.613 93.613 93.613s93.613-42.007 93.613-93.613c0-56.708-50.427-76.827-93.613-76.827m0 197.868c-66.747 0-121.041-54.294-121.041-121.041 0-62.358 48.644-104.255 121.041-104.255s121.041 41.897 121.041 104.255c0 66.747-54.294 121.041-121.041 121.041"/><path id="O" d="M375.546 375.833c-28.868 0-41.623-15.058-42.98-16.786-4.704-5.925-3.689-14.551 2.249-19.255s14.564-3.689 19.268 2.249c.027 0 6.144 6.363 21.463 6.363 15.415 0 21.504-6.446 21.751-6.72 4.992-5.431 13.563-6.158 19.186-1.371 5.609 4.786 6.61 12.946 2.043 18.734-1.358 1.714-14.112 16.786-42.98 16.786"/><path id="P" d="M351.667 400.233c-28.786 0-44.173-20.722-44.832-21.627-3.333-4.594-2.318-11.026 2.277-14.359 4.594-3.305 10.985-2.331 14.318 2.208.494.645 10.766 13.906 29.979 13.166 5.842-.617 10.478 4.155 10.724 9.833.247 5.664-4.155 10.478-9.833 10.711a57.29 57.29 0 0 1-2.633.069"/><path id="Q" d="M121.044 370.047h-.027c-7.57-.014-13.7-6.171-13.687-13.742.082-38.907 20.667-63.469 40.58-87.208 29.156-34.779 59.314-70.765 41.005-161.786-1.495-7.433 3.319-14.66 10.738-16.155 7.419-1.55 14.66 3.319 16.155 10.738 20.914 103.967-16.676 148.799-46.875 184.826-19.063 22.724-34.121 40.69-34.176 69.641-.014 7.57-6.158 13.687-13.714 13.687"/><path id="R" d="M375.533 375.833c-6.213 0-11.835-4.251-13.33-10.574-.672-2.853-69.27-285.488-214.394-262.435-7.392 1.248-14.51-3.909-15.703-11.396-1.179-7.488 3.936-14.51 11.41-15.689C313.641 48.873 385.901 346.293 388.89 358.978c1.742 7.365-2.825 14.743-10.19 16.484-1.056.247-2.126.37-3.168.37"/><path id="S" d="M388.753 46.298C237.513-46.506 212.032 88.62 212.032 88.62s83.917 108.918 176.721-42.322"/><path id="T" d="M388.753 46.298L212.032 88.62s83.917 108.918 176.721-42.322"/><path id="U" d="M227.141 84.995c9.065 9.422 32.064 29.595 60.521 27.744 27.758-1.55 55.241-22.327 81.833-61.824-41.595-23.15-75.51-29.239-100.978-18.075-26.318 11.561-37.549 39.634-41.376 52.155m57.133 55.282c-49.165 0-81.709-41.472-83.108-43.296a13.72 13.72 0 0 1-2.606-10.916c.439-2.331 11.287-57.243 58.669-78.226 36.631-16.238 83.286-7.227 138.692 26.77 6.459 3.963 8.475 12.411 4.526 18.871-33.997 55.378-71.519 84.548-111.524 86.66-1.563.096-3.113.137-4.649.137"/></defs></svg>